G04 ================== begin FILE IDENTIFICATION RECORD ==================*
G04 Layout Name:  AVRUSB500_new.brd*
G04 Film Name:    Autosilk_Top*
G04 File Format:  Gerber RS274X*
G04 File Origin:  Cadence Allegro 16.6-S034*
G04 Origin Date:  Fri Jul 19 12:25:43 2019*
G04 *
G04 Layer:  MANUFACTURING/AUTOSILK_TOP*
G04 *
G04 Offset:    (0.000 0.000)*
G04 Mirror:    No*
G04 Mode:      Positive*
G04 Rotation:  0*
G04 FullContactRelief:  No*
G04 UndefLineWidth:     0.000*
G04 ================== end FILE IDENTIFICATION RECORD ====================*
%FSLAX25Y25*MOMM*%
%IR0*IPPOS*OFA0.00000B0.00000*MIA0B0*SFA1.00000B1.00000*%
%ADD10C,.203*%
%ADD11C,.254*%
G75*
%LPD*%
G75*
G54D10*
G01X222300Y444500D02*
G03X508000Y158800I285700J0D01*
G01X222300Y1333500D02*
G03X508000Y1047800I285700J0D01*
G01Y730200D02*
G03X222300Y444500I0J-285700D01*
G01X508000Y1619200D02*
G03X222300Y1333500I0J-285700D01*
G01X317500Y1955800D02*
Y2095500D01*
G01D02*
Y2349500D01*
G01D02*
Y2603500D01*
G01D02*
Y2857500D01*
G01X571500Y1955800D02*
X317500D01*
G01Y2857500D02*
Y3111500D01*
G01D02*
Y3251200D01*
G01D02*
X571500D01*
G01X304800Y4127500D02*
X444500D01*
G01X1600200Y3873500D02*
X304800D01*
G01D02*
Y4127500D01*
G01X508000Y158800D02*
G03X793700Y444500I0J285700D01*
G01X508000Y1047800D02*
G03X793700Y1333500I0J285700D01*
G01Y444500D02*
G03X508000Y730200I-285700J0D01*
G01X793700Y1333500D02*
G03X508000Y1619200I-285700J0D01*
G01X571500Y3251200D02*
Y1955800D01*
G01X444500Y4127500D02*
X698500D01*
G01D02*
X952500D01*
G01D02*
X1206500D01*
G01X1111300Y444500D02*
G03X1397000Y158800I285700J0D01*
G01D02*
G03X1682700Y444500I0J285700D01*
G01D02*
G03X1397000Y730200I-285700J0D01*
G01D02*
G03X1111300Y444500I0J-285700D01*
G01X1778000Y1778000D02*
Y1905000D01*
G01X2413000Y1778000D02*
X1778000D01*
G01Y2032000D02*
X2413000D01*
G01X1778000Y1905000D02*
Y2032000D01*
G01Y1905000D02*
X1714500D01*
G01X1778000Y2476500D02*
X2413000D01*
G01X1778000Y2349500D02*
Y2476500D01*
G01Y2222500D02*
Y2349500D01*
G01X2413000Y2222500D02*
X1778000D01*
G01Y2349500D02*
X1714500D01*
G01X1778000Y3365500D02*
X2413000D01*
G01X1778000Y3238500D02*
Y3365500D01*
G01Y3111500D02*
Y3238500D01*
G01X2413000Y3111500D02*
X1778000D01*
G01Y3238500D02*
X1714500D01*
G01X1778000Y2921000D02*
X2413000D01*
G01X1778000Y2794000D02*
Y2921000D01*
G01Y2667000D02*
Y2794000D01*
G01X2413000Y2667000D02*
X1778000D01*
G01Y2794000D02*
X1714500D01*
G01X1206500Y4127500D02*
X1460500D01*
G01D02*
X1600200D01*
G01D02*
Y3873500D01*
G01X2000300Y444500D02*
G03X2286000Y158800I285700J0D01*
G01D02*
G03X2571700Y444500I0J285700D01*
G01D02*
G03X2286000Y730200I-285700J0D01*
G01D02*
G03X2000300Y444500I0J-285700D01*
G01X2413000Y1905000D02*
Y1778000D01*
G01Y2032000D02*
Y1905000D01*
G01D02*
X2476500D01*
G01X2413000Y2349500D02*
Y2222500D01*
G01Y2476500D02*
Y2349500D01*
G01D02*
X2476500D01*
G01X2413000Y3238500D02*
Y3111500D01*
G01Y3365500D02*
Y3238500D01*
G01D02*
X2476500D01*
G01X2413000Y2794000D02*
Y2667000D01*
G01Y2921000D02*
Y2794000D01*
G01D02*
X2476500D01*
G01X3651300Y508000D02*
G03X3937000Y222300I285700J0D01*
G01D02*
G03X4222700Y508000I0J285700D01*
G01D02*
G03X3937000Y793700I-285700J0D01*
G01D02*
G03X3651300Y508000I0J-285700D01*
G01X3873500Y1143000D02*
Y1651000D01*
G01X5016500Y1143000D02*
X3873500D01*
G01Y1651000D02*
X5016500D01*
G01X4445000Y3746500D02*
X3810000D01*
G01Y4000500D02*
X4445000D01*
G01X3810000Y3873500D02*
Y4000500D01*
G01Y3746500D02*
Y3873500D01*
G01D02*
X3746500D01*
G01X4667300Y508000D02*
G03X4953000Y222300I285700J0D01*
G01Y793700D02*
G03X4667300Y508000I0J-285700D01*
G01X5175200Y2222500D02*
G03X4889500Y2508200I-285700J0D01*
G01D02*
G03X4603800Y2222500I0J-285700D01*
G01D02*
G03X4889500Y1936800I285700J0D01*
G01D02*
G03X5175200Y2222500I0J285700D01*
G01X4889500Y3397200D02*
G03X4603800Y3111500I0J-285700D01*
G01D02*
G03X4889500Y2825800I285700J0D01*
G01D02*
G03X5175200Y3111500I0J285700D01*
G01D02*
G03X4889500Y3397200I-285700J0D01*
G01X4445000Y3873500D02*
Y3746500D01*
G01Y4000500D02*
Y3873500D01*
G01D02*
X4508500D01*
G01X4953000Y222300D02*
G03X5238700Y508000I0J285700D01*
G01D02*
G03X4953000Y793700I-285700J0D01*
G01X5016500Y1651000D02*
Y1143000D01*
G01X6032500Y1016000D02*
X6667500D01*
G01X6032500Y889000D02*
Y1016000D01*
G01Y762000D02*
Y889000D01*
G01X6667500Y762000D02*
X6032500D01*
G01Y889000D02*
X5969000D01*
G01X6667500Y1778000D02*
X6032500D01*
G01D02*
Y1905000D01*
G01Y1524000D02*
X6667500D01*
G01X6032500Y1397000D02*
Y1524000D01*
G01Y1270000D02*
Y1397000D01*
G01X6667500Y1270000D02*
X6032500D01*
G01Y1397000D02*
X5969000D01*
G01X6032500Y2032000D02*
X6667500D01*
G01X6032500Y1905000D02*
Y2032000D01*
G01Y1905000D02*
X5969000D01*
G01X6667500Y2286000D02*
X6032500D01*
G01Y2540000D02*
X6667500D01*
G01X6032500Y2413000D02*
Y2540000D01*
G01Y2286000D02*
Y2413000D01*
G01D02*
X5969000D01*
G01X6667500Y3365500D02*
X6032500D01*
G01D02*
Y3492500D01*
G01X6667500Y2794000D02*
X6032500D01*
G01Y3048000D02*
X6667500D01*
G01X6032500Y2921000D02*
Y3048000D01*
G01Y2794000D02*
Y2921000D01*
G01D02*
X5969000D01*
G01X6032500Y3619500D02*
X6667500D01*
G01X6032500Y3492500D02*
Y3619500D01*
G01Y3492500D02*
X5969000D01*
G01X6032500Y4064000D02*
Y4191000D01*
G01Y3937000D02*
Y4064000D01*
G01X6667500Y3937000D02*
X6032500D01*
G01Y4064000D02*
X5969000D01*
G01X6032500Y4191000D02*
X6667500D01*
G01Y889000D02*
Y762000D01*
G01Y1016000D02*
Y889000D01*
G01D02*
X6731000D01*
G01X6667500Y1905000D02*
Y1778000D01*
G01Y1397000D02*
Y1270000D01*
G01Y1524000D02*
Y1397000D01*
G01D02*
X6731000D01*
G01X6667500Y2032000D02*
Y1905000D01*
G01D02*
X6731000D01*
G01X6667500Y2413000D02*
Y2286000D01*
G01Y2540000D02*
Y2413000D01*
G01D02*
X6731000D01*
G01X6667500Y3492500D02*
Y3365500D01*
G01Y2921000D02*
Y2794000D01*
G01Y3048000D02*
Y2921000D01*
G01D02*
X6731000D01*
G01X6667500Y3619500D02*
Y3492500D01*
G01D02*
X6731000D01*
G01X6667500Y4064000D02*
Y3937000D01*
G01Y4191000D02*
Y4064000D01*
G01D02*
X6731000D01*
G01X7429500Y1638300D02*
Y1778000D01*
G01D02*
Y2032000D01*
G01X7683500Y2933700D02*
Y1638300D01*
G01D02*
X7429500D01*
G01Y2032000D02*
Y2286000D01*
G01D02*
Y2540000D01*
G01D02*
Y2794000D01*
G01D02*
Y2933700D01*
G01D02*
X7683500D01*
G01X8413800Y3619500D02*
G03X8731200Y3937000I0J317400D01*
G01X8413800Y4254500D02*
G03Y3619500I0J-317500D01*
G01X8731200Y3937000D02*
G03X8413800Y4254500I-317400J100D01*
G01X9525000Y127000D02*
X8890000D01*
G01Y254000D02*
Y381000D01*
G01Y127000D02*
Y254000D01*
G01D02*
X8826500D01*
G01X8890000Y381000D02*
X9525000D01*
G01X8890000Y1079500D02*
X9525000D01*
G01X8890000Y952500D02*
Y1079500D01*
G01Y825500D02*
Y952500D01*
G01X9525000Y825500D02*
X8890000D01*
G01Y952500D02*
X8826500D01*
G01X10096500Y3873500D02*
X9461500D01*
G01Y4127500D02*
X10096500D01*
G01X9461500Y4000500D02*
Y4127500D01*
G01Y3873500D02*
Y4000500D01*
G01D02*
X9398000D01*
G01X9525000Y254000D02*
Y127000D01*
G01Y381000D02*
Y254000D01*
G01D02*
X9588500D01*
G01X9525000Y952500D02*
Y825500D01*
G01Y1079500D02*
Y952500D01*
G01D02*
X9588500D01*
G01X10033000Y1714500D02*
X9525000D01*
G01X10033000Y2857500D02*
Y1714500D01*
G01X9525000D02*
Y2857500D01*
G01D02*
X10033000D01*
G01X10096500Y4000500D02*
Y3873500D01*
G01Y4127500D02*
Y4000500D01*
G01D02*
X10160000D01*
G01X10318800Y1905000D02*
G03X10604500Y1619300I285700J0D01*
G01D02*
G03X10890200Y1905000I0J285700D01*
G01D02*
G03X10604500Y2190700I-285700J0D01*
G01D02*
G03X10318800Y1905000I0J-285700D01*
G01X10890200Y2984500D02*
G03X10604500Y3270200I-285700J0D01*
G01D02*
G03X10318800Y2984500I0J-285700D01*
G01D02*
G03X10604500Y2698800I285700J0D01*
G01D02*
G03X10890200Y2984500I0J285700D01*
G54D11*
G01X8312700Y1837700D02*
Y1980400D01*
M02*
