G04 ================== begin FILE IDENTIFICATION RECORD ==================*
G04 Layout Name:  AVRUSB500_new.brd*
G04 Film Name:    Autosilk_Bottom*
G04 File Format:  Gerber RS274X*
G04 File Origin:  Cadence Allegro 16.6-S034*
G04 Origin Date:  Fri Jul 19 12:25:43 2019*
G04 *
G04 Layer:  MANUFACTURING/AUTOSILK_BOTTOM*
G04 *
G04 Offset:    (0.000 0.000)*
G04 Mirror:    No*
G04 Mode:      Positive*
G04 Rotation:  0*
G04 FullContactRelief:  No*
G04 UndefLineWidth:     0.000*
G04 ================== end FILE IDENTIFICATION RECORD ====================*
%FSLAX25Y25*MOMM*%
%IR0*IPPOS*OFA0.00000B0.00000*MIA0B0*SFA1.00000B1.00000*%
%ADD10C,.2*%
G75*
%LPD*%
G75*
G54D10*
G01X8106700Y508000D02*
Y588000D01*
G01Y572000D02*
X8100000Y580000D01*
X8093300Y586000D01*
X8084000Y588000D01*
X8077300Y586000D01*
X8069300Y580000D01*
G01X8015500Y588000D02*
Y532000D01*
X8010100Y518000D01*
X8002100Y510000D01*
X7992800Y508000D01*
X7983500Y510000D01*
X7975500Y518000D01*
X7970100Y532000D01*
G01Y508000D02*
Y588000D01*
G01X7873600Y628000D02*
Y508000D01*
G01Y526000D02*
X7878900Y516000D01*
X7886900Y510000D01*
X7896300Y508000D01*
X7906900Y512000D01*
X7914900Y522000D01*
X7920300Y534000D01*
X7921600Y548000D01*
X7920300Y562000D01*
X7914900Y574000D01*
X7906900Y584000D01*
X7896300Y588000D01*
X7886900Y586000D01*
X7880300Y582000D01*
X7873600Y574000D01*
G01X7835700Y588000D02*
X7819700Y508000D01*
X7802400Y588000D01*
X7785100Y508000D01*
X7769100Y588000D01*
G01X7729900Y508000D02*
Y588000D01*
G01Y568000D02*
X7724500Y578000D01*
X7716500Y586000D01*
X7705900Y588000D01*
X7696500Y586000D01*
X7688500Y578000D01*
X7684500Y564000D01*
Y508000D01*
G01X7632000Y522000D02*
X7625300Y514000D01*
X7616000Y508000D01*
X7608000D01*
X7600000Y512000D01*
X7594700Y518000D01*
X7592000Y526000D01*
X7593300Y538000D01*
X7598700Y544000D01*
X7622700Y556000D01*
X7628000Y570000D01*
X7625300Y580000D01*
X7620000Y586000D01*
X7612000Y588000D01*
X7604000Y586000D01*
X7596000Y580000D01*
G01X7421600Y508000D02*
Y628000D01*
X7437600Y604000D01*
G01Y508000D02*
X7405600D01*
G01X7349100Y522000D02*
X7339700Y512000D01*
X7329100Y508000D01*
X7318400Y512000D01*
X7309100Y524000D01*
X7302400Y542000D01*
X7299700Y560000D01*
Y582000D01*
X7302400Y600000D01*
X7309100Y616000D01*
X7317100Y624000D01*
X7326400Y628000D01*
X7337100Y624000D01*
X7345100Y616000D01*
X7350400Y604000D01*
X7353100Y588000D01*
X7350400Y574000D01*
X7343700Y560000D01*
X7335700Y552000D01*
X7326400Y550000D01*
X7315700Y554000D01*
X7307700Y564000D01*
X7299700Y582000D01*
G01X7231200Y628000D02*
X7241900Y624000D01*
X7249900Y614000D01*
X7255200Y602000D01*
X7259200Y586000D01*
X7260500Y568000D01*
X7259200Y550000D01*
X7255200Y534000D01*
X7249900Y522000D01*
X7241900Y512000D01*
X7231200Y508000D01*
X7220500Y512000D01*
X7212500Y522000D01*
X7207200Y534000D01*
X7203200Y550000D01*
X7201900Y568000D01*
X7203200Y586000D01*
X7207200Y602000D01*
X7212500Y614000D01*
X7220500Y624000D01*
X7231200Y628000D01*
G01X7138700Y508000D02*
X7136000Y534000D01*
X7132000Y556000D01*
X7126700Y576000D01*
X7120000Y598000D01*
X7109300Y628000D01*
X7162700D01*
G01X7040800Y508000D02*
Y628000D01*
X7056800Y604000D01*
G01Y508000D02*
X7024800D01*
G01X6945600D02*
X6936300Y510000D01*
X6925600Y516000D01*
X6918900Y526000D01*
X6916300Y540000D01*
X6918900Y554000D01*
X6926900Y566000D01*
X6938900Y572000D01*
X6952300D01*
X6960300Y576000D01*
X6966900Y586000D01*
X6969600Y600000D01*
X6965600Y614000D01*
X6956300Y624000D01*
X6945600Y628000D01*
X6934900Y624000D01*
X6925600Y614000D01*
X6921600Y600000D01*
X6924300Y586000D01*
X6930900Y576000D01*
X6938900Y572000D01*
X6952300D01*
X6964300Y566000D01*
X6972300Y554000D01*
X6974900Y540000D01*
X6972300Y526000D01*
X6965600Y516000D01*
X6954900Y510000D01*
X6945600Y508000D01*
M02*
