G04 ================== begin FILE IDENTIFICATION RECORD ==================*
G04 Layout Name:  avrusb500.brd*
G04 Film Name:    BOTTOM*
G04 File Format:  Gerber RS274X*
G04 File Origin:  Cadence Allegro 17.2-P019*
G04 Origin Date:  Mon Jul 29 16:04:59 2019*
G04 *
G04 Layer:  ETCH/BOTTOM*
G04 Layer:  PIN/BOTTOM*
G04 Layer:  VIA CLASS/BOTTOM*
G04 *
G04 Offset:    (0.000 0.000)*
G04 Mirror:    No*
G04 Mode:      Positive*
G04 Rotation:  0*
G04 FullContactRelief:  No*
G04 UndefLineWidth:     0.000*
G04 ================== end FILE IDENTIFICATION RECORD ====================*
%FSLAX55Y55*MOMM*%
%IR0*IPPOS*OFA0.00000B0.00000*MIA0B0*SFA1.00000B1.00000*%
%ADD11C,1.321*%
%ADD10R,1.321X1.321*%
%ADD13C,1.575*%
%ADD14R,1.575X1.575*%
%ADD12C,.61*%
%ADD15C,.254*%
%ADD16C,.381*%
%ADD17C,1.58*%
%ADD18C,1.834*%
%ADD19C,2.088*%
G75*
%LPD*%
G75*
G36*
G01X0Y0D02*
Y4508500D01*
X10985500D01*
Y0D01*
X0D01*
G37*
%LPC*%
G75*
G36*
G01X8544400Y3744000D02*
Y3876000D01*
G02X8570000Y3901600I25550J50D01*
G01X8702000D01*
G02X8727600Y3876000I50J-25550D01*
G01Y3744000D01*
G02X8702000Y3718400I-25550J-50D01*
G01X8570000D01*
G02X8544400Y3744000I-50J25550D01*
G37*
G36*
G01X7261600Y2969200D02*
Y3126800D01*
G02X7287200Y3152400I25650J-50D01*
G01X7444800D01*
G02X7470400Y3126800I-50J-25650D01*
G01Y2969200D01*
G02X7444800Y2943600I-25650J50D01*
G01X7287200D01*
G02X7261600Y2969200I50J25650D01*
G37*
G36*
G01X2194400Y442000D02*
Y574000D01*
G02X2220000Y599600I25550J50D01*
G01X2352000D01*
G02X2377600Y574000I50J-25550D01*
G01Y442000D01*
G02X2352000Y416400I-25550J-50D01*
G01X2220000D01*
G02X2194400Y442000I-50J25550D01*
G37*
G36*
G01X1178400D02*
Y574000D01*
G02X1204000Y599600I25550J50D01*
G01X1336000D01*
G02X1361600Y574000I50J-25550D01*
G01Y442000D01*
G02X1336000Y416400I-25550J-50D01*
G01X1204000D01*
G02X1178400Y442000I-50J25550D01*
G37*
G36*
G01X403600Y3223200D02*
Y3380800D01*
G02X429200Y3406400I25650J-50D01*
G01X586800D01*
G02X612400Y3380800I-50J-25650D01*
G01Y3223200D01*
G02X586800Y3197600I-25650J50D01*
G01X429200D01*
G02X403600Y3223200I50J25650D01*
G37*
G36*
G01X4165800Y3508400D02*
X4189100Y3485100D01*
X4191200D01*
G02X4134900Y3428800I-200J-56100D01*
G01Y3430900D01*
X4089200Y3476600D01*
Y3642000D01*
G02X4165800I38300J41000D01*
G01Y3508400D01*
G37*
G36*
G01X5039000Y2819200D02*
X4676500D01*
G02Y2895800I-41000J38300D01*
G01X5039000D01*
G02Y2819200I41000J-38300D01*
G37*
G36*
G01X7518200Y2936900D02*
X8048600Y3467300D01*
X8523000D01*
X8528100Y3472400D01*
X8616900D01*
X8622000Y3467300D01*
X8658500D01*
G02Y3390700I41000J-38300D01*
G01X8637100D01*
G03X8627100Y3378200I-49J-10211D01*
G02X8574800Y3309400I-54634J-12747D01*
G03X8565100Y3299700I455J-10155D01*
G02X8468000Y3263700I-56071J2286D01*
G01X8207400D01*
X7848800Y2905100D01*
Y2835000D01*
G02X7772200I-38300J-41000D01*
G01Y2936900D01*
X8153800Y3318500D01*
G03X8150200Y3327200I-3588J3610D01*
G01X8143900D01*
X7721800Y2905100D01*
Y2835000D01*
G02X7645200I-38300J-41000D01*
G01Y2936900D01*
X8090300Y3382000D01*
G03X8086700Y3390700I-3588J3610D01*
G01X8080400D01*
X7594800Y2905100D01*
Y2835000D01*
G02X7518200I-38300J-41000D01*
G01Y2936900D01*
G37*
G36*
G01X4256400Y2723100D02*
X4515900Y2982600D01*
Y3659800D01*
G02X4592500I38300J41000D01*
G01Y2950800D01*
X4310600Y2668900D01*
Y2666800D01*
G02X4254300Y2723100I-56100J200D01*
G01X4256400D01*
G37*
G36*
G01X8492700Y2749300D02*
Y2576400D01*
G02X8403300I-44700J-33900D01*
G01Y2950600D01*
G02X8492700I44700J33900D01*
G01Y2838700D01*
X9075900D01*
G02Y2749300I33900J-44700D01*
G01X8492700D01*
G37*
G36*
G01X4038800Y2746400D02*
X4189100Y2596100D01*
X4191200D01*
G02X4134900Y2539800I-200J-56100D01*
G01Y2541900D01*
X3962200Y2714600D01*
Y2880000D01*
G02X4038800I38300J41000D01*
G01Y2746400D01*
G37*
G36*
G01X5039000Y1993700D02*
X4613000D01*
G02Y2070300I-41000J38300D01*
G01X5039000D01*
G02Y1993700I41000J-38300D01*
G37*
G36*
G01X6992400Y1462400D02*
X6796400Y1658400D01*
X6794300D01*
G02X6850600Y1714700I200J56100D01*
G01Y1712600D01*
X7046600Y1516600D01*
X7048700D01*
G02X6992400Y1460300I-200J-56100D01*
G01Y1462400D01*
G37*
G36*
G01X5730900Y1689300D02*
X5935300Y1484900D01*
X5937400D01*
G02X5881100Y1428600I-200J-56100D01*
G01Y1430700D01*
X5699100Y1612700D01*
X2016100D01*
X977700Y2651100D01*
Y3966900D01*
G02X1054300I38300J97100D01*
G01Y2682900D01*
X2047900Y1689300D01*
X5730900D01*
G37*
G36*
G01X4740000Y1428900D02*
X4662800Y1506000D01*
X3576700D01*
G02Y1582600I-41000J38300D01*
G01X4694600D01*
X4794100Y1483000D01*
X4797100Y1484000D01*
G02X4739000Y1425900I28900J-87000D01*
G01X4740000Y1428900D01*
G37*
G36*
G01X3533500Y1435300D02*
X3980700D01*
G02Y1358700I83300J-38300D01*
G01X3533500D01*
G02Y1435300I-41000J38300D01*
G37*
G36*
G01X1920900Y1308300D02*
X2054500D01*
G02Y1231700I41000J-38300D01*
G01X1889100D01*
X1632600Y1488200D01*
X549000D01*
G02Y1564800I-41000J38300D01*
G01X1664400D01*
X1920900Y1308300D01*
G37*
G36*
G01X8662900Y1043200D02*
X8236200Y616500D01*
Y414900D01*
G02X8200700Y325700I-44703J-33873D01*
G01X8199100Y325400D01*
X7892500Y18800D01*
X1188000D01*
X790400Y416400D01*
X696000D01*
G02X670400Y442000I-50J25550D01*
G01Y574000D01*
G02X696000Y599600I25550J50D01*
G01X828000D01*
G02X853600Y574000I50J-25550D01*
G01Y479600D01*
X1225000Y108200D01*
X7855500D01*
X8135900Y388600D01*
X8136200Y390200D01*
G02X8146800Y414900I55340J-9125D01*
G01Y653500D01*
X8573500Y1080200D01*
Y1426600D01*
G02X8662900I44700J33900D01*
G01Y1043200D01*
G37*
G36*
G01X4224900Y2304800D02*
G02Y2394200I-33900J44700D01*
G01X4553500D01*
X4934500Y2775200D01*
X5823500D01*
X5872300Y2824000D01*
Y2921300D01*
G03X5859000Y2931000I-10185J3D01*
G02X5803700Y3025500I-17020J53471D01*
G01Y3286100D01*
X5254600Y3835200D01*
X1698600D01*
X1565600Y3968200D01*
G02X1621000Y4025500I-41673J95723D01*
G01X1619800Y4022400D01*
X1668900Y3973200D01*
X1674400Y3978700D01*
X1674000Y3981200D01*
G02X1673600Y3985200I25201J4540D01*
G01Y4142800D01*
G02X1699200Y4168400I25650J-50D01*
G01X1856800D01*
G02X1882400Y4142800I-50J-25650D01*
G01Y3985200D01*
G02X1856800Y3959600I-25650J50D01*
G01X1699200D01*
G02X1695200Y3960000I540J25601D01*
G01X1692700Y3960400D01*
X1687200Y3954900D01*
X1730400Y3911800D01*
X5286400D01*
X5880300Y3317900D01*
Y3301100D01*
G03X5897700Y3293900I10200J26D01*
G01X5967900Y3364100D01*
X6166500D01*
X6170000Y3360600D01*
X6171600Y3360300D01*
G02X6115200Y3274700I-9191J-55325D01*
G01X6004900D01*
X5950200Y3220000D01*
Y3045500D01*
X5961700Y3034000D01*
Y2787000D01*
X5860500Y2685800D01*
X4971500D01*
X4590500Y2304800D01*
X4224900D01*
G37*
G36*
G01X5261600Y1790700D02*
G02X5166000Y1739700I-54633J-12691D01*
G01X3413100D01*
X3303900Y1848900D01*
X3301800D01*
G02X3256700Y1938100I197J56101D01*
G03X3248500Y1954300I-8240J6005D01*
G01X3191900D01*
G02Y2030900I-41000J38300D01*
G01X3484300D01*
X3635400Y1879800D01*
X5157500D01*
X5162600Y1884900D01*
X5251400D01*
X5256500Y1879800D01*
X7185400D01*
G03X7192600Y1897200I3J10188D01*
G01X6798100Y2291700D01*
Y2711100D01*
G02X6874700I38300J41000D01*
G01Y2323500D01*
X7254900Y1943300D01*
X7301000D01*
G03X7307500Y1961400I45J10201D01*
G02X7424500I58500J70600D01*
G03X7431000Y1943300I6455J-7899D01*
G01X7731100D01*
X7944900Y2157100D01*
Y2159200D01*
G02X8001200Y2102900I56100J-200D01*
G01X7999100D01*
X7793400Y1897200D01*
G03X7800600Y1879800I7197J-7212D01*
G01X7858100D01*
X8071900Y2093600D01*
Y2095700D01*
G02X8128200Y2039400I56100J-200D01*
G01X8126100D01*
X7889900Y1803200D01*
X5271600D01*
G03X5261600Y1790700I-49J-10211D01*
G37*
G54D17*
X508000Y508000D03*
X1524000D03*
X2540000D03*
G54D18*
X508000Y2286000D03*
X762000Y4064000D03*
X8318500Y3810000D03*
X9652000Y2222500D03*
Y2984500D03*
G54D19*
X508000Y2540000D03*
Y2794000D03*
Y3048000D03*
X1270000Y4064000D03*
X7366000Y2286000D03*
Y2540000D03*
Y2794000D03*
%LPD*%
G75*
G36*
G01X3565900Y1816300D02*
X3444900D01*
X3358100Y1903100D01*
Y1905200D01*
G03X3347300Y1938100I-56101J-194D01*
G02X3355500Y1954300I8240J6005D01*
G01X3452500D01*
X3573100Y1833700D01*
G02X3565900Y1816300I-7197J-7212D01*
G37*
G54D10*
X762000Y508000D03*
X1270000D03*
X2286000D03*
X8636000Y3810000D03*
G54D11*
X508000Y508000D03*
X1524000D03*
X2540000D03*
X4064000Y1397000D03*
X4826000D03*
X8318500Y3810000D03*
X9652000Y2222500D03*
Y2984500D03*
G54D12*
X762000Y508000D03*
X508000Y1526500D03*
X762000Y4064000D03*
X2095500Y1270000D03*
X3302000Y1905000D03*
X3150900Y1992600D03*
X3429000Y2794000D03*
X3535700Y1544300D03*
X3492500Y1397000D03*
X4191000Y2349500D03*
X3810000Y2413000D03*
X4191000Y2540000D03*
X3746500Y2794000D03*
X4191000Y3429000D03*
X4000500Y2921000D03*
X4127500Y3683000D03*
X4572000Y2032000D03*
X4254500Y2667000D03*
X4635500Y2857500D03*
X4554200Y3700800D03*
X5207000Y1778000D03*
X5080000Y2032000D03*
Y2857500D03*
X5937200Y1428800D03*
X6162400Y3305000D03*
X5842000Y2984500D03*
X7048500Y1460500D03*
X6794500Y1714500D03*
X6836400Y2752100D03*
X7620000Y2032000D03*
X8001000Y2159000D03*
X7556500Y2794000D03*
X7683500D03*
X7810500D03*
X8191500Y381000D03*
X8618200Y1460500D03*
X8128000Y2095500D03*
X8448000Y2542500D03*
X8699500Y3429000D03*
X8572500Y3365500D03*
X8509000Y3302000D03*
X8448000Y2984500D03*
X8318500Y2794000D03*
X9109800D03*
G54D13*
X508000Y2286000D03*
Y2540000D03*
Y2794000D03*
Y3048000D03*
X762000Y4064000D03*
X1016000D03*
X1270000D03*
X1524000D03*
X7366000Y2032000D03*
Y2286000D03*
Y2540000D03*
Y2794000D03*
G54D14*
X508000Y3302000D03*
X1778000Y4064000D03*
X7366000Y3048000D03*
G54D15*
G01X2095500Y1270000D02*
X1905000D01*
X1648500Y1526500D01*
X508000D01*
G01X5937200Y1428800D02*
X5715000Y1651000D01*
X2032000D01*
X1016000Y2667000D01*
Y4064000D01*
G01X1524000D02*
X1714500Y3873500D01*
X5270500D01*
X5842000Y3302000D01*
Y2984500D01*
G01X5207000Y1778000D02*
X3429000D01*
X3302000Y1905000D01*
G01X8128000Y2095500D02*
X7874000Y1841500D01*
X5240600D01*
X5235500Y1846600D01*
X5178500D01*
X5173400Y1841500D01*
X3619500D01*
X3468400Y1992600D01*
X3150900D01*
G01X3535700Y1544300D02*
X4678700D01*
X4826000Y1397000D01*
G01X3492500D02*
X4064000D01*
G01X4191000Y2540000D02*
X4000500Y2730500D01*
Y2921000D01*
G01X4127500Y3683000D02*
Y3492500D01*
X4191000Y3429000D01*
G01X4572000Y2032000D02*
X5080000D01*
G01Y2857500D02*
X4635500D01*
G01X4554200Y3700800D02*
Y2966700D01*
X4254500Y2667000D01*
G01X7048500Y1460500D02*
X6794500Y1714500D01*
G01X8001000Y2159000D02*
X7747000Y1905000D01*
X7239000D01*
X6836400Y2307600D01*
Y2752100D01*
G01X8699500Y3429000D02*
X8606100D01*
X8601000Y3434100D01*
X8544000D01*
X8538900Y3429000D01*
X8064500D01*
X7556500Y2921000D01*
Y2794000D01*
G01X8572500Y3365500D02*
X8542600D01*
X8537500Y3370600D01*
X8480500D01*
X8475400Y3365500D01*
X8128000D01*
X7683500Y2921000D01*
Y2794000D01*
G01X8509000Y3302000D02*
X8191500D01*
X7810500Y2921000D01*
Y2794000D01*
G54D16*
G01X8191500Y381000D02*
X7874000Y63500D01*
X1206500D01*
X762000Y508000D01*
G01X508000Y423900D02*
Y508000D01*
G01D02*
Y592100D01*
G01X423900Y508000D02*
X508000D01*
G01D02*
X592100D01*
G01X762000Y4064000D02*
Y2476500D01*
G01X635000Y2413000D02*
X508000Y2286000D01*
G01X762000Y2476500D02*
X698500Y2413000D01*
X635000D01*
G01X508000Y2189200D02*
Y2286000D01*
G01D02*
Y2382800D01*
G01X411200Y2286000D02*
X508000D01*
G01D02*
X604800D01*
G01X762000Y4064000D02*
Y4160800D01*
G01X665200Y4064000D02*
X762000D01*
G01D02*
X858800D01*
G01X1524000Y423900D02*
Y508000D01*
G01D02*
Y592100D01*
G01X1439900Y508000D02*
X1524000D01*
G01D02*
X1608100D01*
G01X2540000Y423900D02*
Y508000D01*
G01D02*
Y592100D01*
G01X2455900Y508000D02*
X2540000D01*
G01D02*
X2624100D01*
G01X3619500Y2794000D02*
Y2603500D01*
X3810000Y2413000D01*
G01X3429000Y2794000D02*
X3619500D01*
G01D02*
X3746500D01*
G01X6162400Y3305000D02*
X6148000Y3319400D01*
X5986400D01*
X5905500Y3238500D01*
Y3027000D01*
X5917000Y3015500D01*
Y2805500D01*
X5842000Y2730500D01*
X4953000D01*
X4572000Y2349500D01*
X4191000D01*
G01X7620000Y2032000D02*
Y2095500D01*
X8318500Y2794000D01*
G01X7366000Y2032000D02*
Y2128800D01*
G01X7269200Y2032000D02*
X7366000D01*
G01D02*
X7462800D01*
G01X8191500Y381000D02*
Y635000D01*
X8618200Y1061700D01*
Y1460500D01*
G01X8448000Y2794000D02*
Y2542500D01*
G01Y2984500D02*
Y2794000D01*
G01X9109800D02*
X8448000D01*
M02*
