G04 ================== begin FILE IDENTIFICATION RECORD ==================*
G04 Layout Name:  AVRUSB500_new.brd*
G04 Film Name:    BOTTOM*
G04 File Format:  Gerber RS274X*
G04 File Origin:  Cadence Allegro 16.6-S034*
G04 Origin Date:  Fri Jul 19 12:25:43 2019*
G04 *
G04 Layer:  ETCH/BOTTOM*
G04 Layer:  PIN/BOTTOM*
G04 Layer:  VIA CLASS/BOTTOM*
G04 *
G04 Offset:    (0.000 0.000)*
G04 Mirror:    No*
G04 Mode:      Positive*
G04 Rotation:  0*
G04 FullContactRelief:  No*
G04 UndefLineWidth:     0.000*
G04 ================== end FILE IDENTIFICATION RECORD ====================*
%FSLAX25Y25*MOMM*%
%IR0*IPPOS*OFA0.00000B0.00000*MIA0B0*SFA1.00000B1.00000*%
%ADD10C,1.321*%
%ADD11R,1.321X1.321*%
%ADD13C,1.575*%
%ADD14R,1.575X1.575*%
%ADD15O,1.9X1.2*%
%ADD12C,.61*%
%ADD16C,.254*%
%ADD17C,.381*%
%ADD18C,.382*%
%ADD20C,1.58*%
%ADD22C,1.834*%
%ADD23C,2.088*%
%ADD19O,2.412X1.712*%
%ADD25R,1.58X1.58*%
%ADD29R,1.834X1.832*%
%ADD27R,1.834X1.834*%
%ADD24R,2.086X2.086*%
%ADD28R,2.086X2.088*%
%ADD30R,1.578X1.58*%
%ADD21R,1.58X1.578*%
%ADD26R,1.578X1.578*%
G75*
%LPD*%
G75*
G36*
G01X0Y0D02*
Y4508500D01*
X10985500D01*
Y1258400D01*
G02X10966600Y1253000I-10204J-63D01*
G03X10893500Y1294100I-73100J-44457D01*
G01X10823500D01*
G03Y1122900I0J-85600D01*
G01X10893500D01*
G03X10966600Y1164000I0J85557D01*
G02X10985500Y1158600I8696J-5337D01*
G01Y238400D01*
G02X10966600Y233000I-10204J-63D01*
G03X10893500Y274100I-73100J-44457D01*
G01X10823500D01*
G03Y102900I0J-85600D01*
G01X10893500D01*
G03X10966600Y144000I0J85557D01*
G02X10985500Y138600I8696J-5337D01*
G01Y0D01*
X0D01*
G37*
%LPC*%
G75*
G36*
G01X1338700Y3922400D02*
G03X1356200Y3929600I7271J7194D01*
G01Y4104800D01*
X1564800D01*
Y3896200D01*
X1389600D01*
G03X1382400Y3878700I-6J-10229D01*
G01X1412900Y3848300D01*
X3222600D01*
X3540100Y4165800D01*
X5095900D01*
X5730900Y3530800D01*
X5758700D01*
G02X5870900Y3579500I83298J-38311D01*
G01X5873900Y3578500D01*
X6080100Y3784800D01*
X7191400D01*
X7456800Y3519400D01*
X8901100D01*
G02Y3442800I41000J-38300D01*
G01X7425000D01*
X7159600Y3708200D01*
X6111900D01*
X5928000Y3524400D01*
X5929000Y3521400D01*
G02X5758700Y3454200I-87051J-28784D01*
G01X5699100D01*
X5064100Y4089200D01*
X3571900D01*
X3254400Y3771700D01*
X1381100D01*
X1248100Y3904700D01*
G02X1303500Y3962000I-41673J95723D01*
G01X1302300Y3958900D01*
X1338700Y3922400D01*
G37*
G36*
G01X9118800Y4277000D02*
Y3216000D01*
G02X9042200I-38300J-41000D01*
G01Y4277000D01*
G02X9118800I38300J41000D01*
G37*
G36*
G01X8834400Y1643400D02*
X8617500Y1860300D01*
X7628500D01*
G03X7621300Y1842900I8J-10193D01*
G02X7491700I-64800J-64900D01*
G03X7484500Y1860300I-7208J7207D01*
G01X6938100D01*
G02Y1949700I-80100J44700D01*
G01X7467400D01*
G03X7475400Y1966300I45J10206D01*
G02X7637600I81100J65700D01*
G03X7645600Y1949700I7955J-6394D01*
G01X8654500D01*
X8897600Y1706600D01*
X8899200Y1706300D01*
G02X8834700Y1641800I-9200J-55300D01*
G01X8834400Y1643400D01*
G37*
G36*
G01X8547300Y1190600D02*
Y549000D01*
G02X8470700I-38300J-41000D01*
G01Y1222400D01*
X8516400Y1268100D01*
Y1270200D01*
G02X8572700Y1213900I56100J-200D01*
G01X8570600D01*
X8547300Y1190600D01*
G37*
G36*
G01X3076600Y1870500D02*
X2203700Y997600D01*
Y536200D01*
X2250600D01*
Y352800D01*
X2067400D01*
Y536200D01*
X2114300D01*
Y1034600D01*
X3039600Y1959900D01*
X3341800D01*
G02Y1870500I33900J-44700D01*
G01X3076600D01*
G37*
G36*
G01X726600Y399800D02*
Y352800D01*
X543400D01*
Y536200D01*
X726600D01*
Y489200D01*
X1178400D01*
Y536200D01*
X1361600D01*
Y352800D01*
X1178400D01*
Y399800D01*
X726600D01*
G37*
G36*
G01X8343700Y1476400D02*
X8407200Y1539900D01*
Y1673500D01*
G02X8483800I38300J41000D01*
G01Y1508100D01*
X8420300Y1444600D01*
Y231500D01*
G02X8343700I-38300J-41000D01*
G01Y1476400D01*
G37*
G36*
G01X8785500Y222100D02*
X8905900Y101800D01*
X9877400D01*
X9931200Y155600D01*
Y381900D01*
G03X9913800Y389100I-10200J-26D01*
G01X9803800Y279000D01*
X9804500Y276200D01*
G02X9737700Y343000I-89000J-22200D01*
G01X9740500Y342300D01*
X9861300Y463000D01*
Y743500D01*
X9740500Y864200D01*
X9737700Y863500D01*
G02X9804500Y930300I-22200J89000D01*
G01X9803800Y927500D01*
X9950700Y780500D01*
Y504500D01*
G03X9968100Y497300I10188J-3D01*
G01X10271100Y800300D01*
X10436500D01*
G02Y723700I41000J-38300D01*
G01X10302900D01*
X10007800Y428600D01*
Y123800D01*
X9909200Y25200D01*
X8874100D01*
X8731400Y168000D01*
X8728400Y167000D01*
G02X8786500Y225100I-28900J87000D01*
G01X8785500Y222100D01*
G37*
G36*
G01X5928000Y2444900D02*
X5929000Y2441900D01*
G02X5755000I-87000J-28900D01*
G01X5756000Y2444900D01*
X5635600Y2565200D01*
X4441800D01*
X4343200Y2663800D01*
Y3137600D01*
X4336500Y3144300D01*
X4125500D01*
X4033300Y3236500D01*
Y3517700D01*
X1000100D01*
X660200Y3857600D01*
Y3903400D01*
G02X736800I38300J97100D01*
G01Y3889400D01*
X1031900Y3594300D01*
X4079900D01*
X4109900Y3564300D01*
Y3268300D01*
X4157300Y3220900D01*
X4368300D01*
X4419800Y3169400D01*
Y2695600D01*
X4473600Y2641800D01*
X5667400D01*
X5810100Y2499000D01*
X5813100Y2500000D01*
G02X5870900I28900J-87000D01*
G01X5873900Y2499000D01*
X6080100Y2705300D01*
X6778600D01*
X6887800Y2814400D01*
G03X6878300Y2831600I-7215J7239D01*
G02X6947400Y2900700I-20300J89400D01*
G03X6964600Y2891200I9961J-2285D01*
G01X7286600Y3213300D01*
X8722000D01*
G02Y3136700I41000J-38300D01*
G01X7318400D01*
X6810400Y2628700D01*
X6111900D01*
X5928000Y2444900D01*
G37*
G36*
G01Y2952900D02*
X5929000Y2949900D01*
G02X5870900Y3008000I-87000J-28900D01*
G01X5873900Y3007000D01*
X6080100Y3213300D01*
X6715100D01*
X6887800Y3385900D01*
G03X6878300Y3403100I-7215J7239D01*
G02X6916500Y3421900I-20280J89417D01*
G03X6923000Y3403800I6455J-7899D01*
G01X8785500D01*
G02Y3327200I41000J-38300D01*
G01X6937400D01*
X6746900Y3136700D01*
X6111900D01*
X5928000Y2952900D01*
G37*
G36*
G01X5758700Y927300D02*
G02Y850700I83300J-38300D01*
G01X5699100D01*
X4810100Y1739700D01*
X4530600D01*
X4432000Y1838300D01*
Y2244800D01*
X4152700Y2524100D01*
Y2778100D01*
X4139500Y2791300D01*
X4041500D01*
G02X3959900Y2868300I-41074J38209D01*
G03Y2882300I-7429J7000D01*
G02X4041500Y2959300I40526J38791D01*
G01X4194200D01*
X4292800Y2860700D01*
Y2568600D01*
X4346600Y2514800D01*
X4448200D01*
X4559400Y2403600D01*
Y1921000D01*
X4600600Y1879800D01*
X4905400D01*
X5349900Y1435300D01*
X5758700D01*
G02Y1358700I83300J-38300D01*
G01X5318100D01*
X4873600Y1803200D01*
X4867300D01*
G03X4863700Y1794500I-12J-5090D01*
G01X5730900Y927300D01*
X5758700D01*
G37*
G54D20*
X381000Y444500D03*
X1524000D03*
X2413000D03*
X4889500Y3238500D03*
G54D22*
X508000Y1460500D03*
X444500Y2095500D03*
Y4000500D03*
X1587500Y1905000D03*
Y2349500D03*
Y3238500D03*
Y2794000D03*
X2603500Y1905000D03*
Y2349500D03*
Y3238500D03*
Y2794000D03*
X4064000Y508000D03*
Y1397000D03*
X3619500Y3873500D03*
X4826000Y508000D03*
Y1397000D03*
X4889500Y2095500D03*
X4635500Y3873500D03*
X5842000Y1905000D03*
Y4064000D03*
X6858000Y889000D03*
Y1397000D03*
Y2413000D03*
Y4064000D03*
X8699500Y952500D03*
X8255000Y3937000D03*
X9271000Y4000500D03*
X9779000Y1905000D03*
Y2667000D03*
X10287000Y4000500D03*
X10604500Y1778000D03*
Y2857500D03*
G54D23*
X444500Y2349500D03*
Y2603500D03*
Y2857500D03*
X952500Y4000500D03*
X7556500Y2286000D03*
Y2540000D03*
G54D19*
X10488500Y1208500D03*
Y188500D03*
G54D25*
X3810000Y508000D03*
X5080000D03*
G54D29*
X8572500Y3937000D03*
G54D27*
X4889500Y2984500D03*
G54D24*
X444500Y3111500D03*
G54D28*
X7556500Y2794000D03*
G54D30*
X10604500Y2032000D03*
G54D21*
X508000Y1206500D03*
G54D26*
X4889500Y2349500D03*
X10604500Y3111500D03*
%LPD*%
G75*
G36*
G01X4465400Y2319800D02*
X4364400Y2420800D01*
G02X4371600Y2438200I7197J7212D01*
G01X4416400D01*
X4482800Y2371800D01*
Y2327000D01*
G02X4465400Y2319800I-10188J-3D01*
G37*
G54D10*
X381000Y444500D03*
X508000Y1460500D03*
X1524000Y444500D03*
X1587500Y1905000D03*
Y2349500D03*
Y3238500D03*
Y2794000D03*
X2413000Y444500D03*
X2603500Y1905000D03*
Y2349500D03*
Y3238500D03*
Y2794000D03*
X4064000Y508000D03*
Y1397000D03*
X3619500Y3873500D03*
X4826000Y508000D03*
Y1397000D03*
X4889500Y2095500D03*
Y3238500D03*
X4635500Y3873500D03*
X5842000Y889000D03*
Y1905000D03*
Y1397000D03*
Y2413000D03*
Y2921000D03*
Y3492500D03*
Y4064000D03*
X6858000Y889000D03*
Y1905000D03*
Y1397000D03*
Y2413000D03*
Y2921000D03*
Y3492500D03*
Y4064000D03*
X8699500Y254000D03*
Y952500D03*
X8255000Y3937000D03*
X9271000Y4000500D03*
X9715500Y254000D03*
Y952500D03*
X9779000Y1905000D03*
Y2667000D03*
X10287000Y4000500D03*
X10604500Y1778000D03*
Y2857500D03*
G54D11*
X635000Y444500D03*
X508000Y1206500D03*
X1270000Y444500D03*
X2159000D03*
X3810000Y508000D03*
X4889500Y2349500D03*
Y2984500D03*
X5080000Y508000D03*
X8572500Y3937000D03*
X10604500Y2032000D03*
Y3111500D03*
G54D12*
X635000Y444500D03*
X2159000D03*
X3375700Y1915200D03*
X3150900Y2909600D03*
X3775700Y2204700D03*
X4000500Y3047900D03*
Y3048000D03*
Y2829600D03*
Y2921000D03*
X3492500Y3683000D03*
X5842000Y889000D03*
X7556500Y1778000D03*
X8699500Y254000D03*
X8382000Y190500D03*
X8509000Y508000D03*
X8572500Y1270000D03*
X8445500Y1714500D03*
X8572500Y2286000D03*
X8763000Y3175000D03*
X8542000Y2754600D03*
X8890000Y1651000D03*
X8953500Y1905000D03*
X8826500Y3365500D03*
X9080500Y3175000D03*
X8942100Y3481100D03*
X9080500Y4318000D03*
X9715500Y254000D03*
X10477500Y762000D03*
G54D13*
X444500Y2095500D03*
Y2349500D03*
Y2603500D03*
Y2857500D03*
Y4000500D03*
X698500D03*
X952500D03*
X1206500D03*
X7556500Y1778000D03*
Y2032000D03*
Y2286000D03*
Y2540000D03*
G54D14*
X444500Y3111500D03*
X1460500Y4000500D03*
X7556500Y2794000D03*
G54D15*
X10858500Y188500D03*
X10488500D03*
X10858500Y1208500D03*
X10488500D03*
G54D16*
G01X698500Y4000500D02*
Y3873500D01*
X1016000Y3556000D01*
X4064000D01*
X4071600Y3548400D01*
Y3252400D01*
X4141400Y3182600D01*
X4352400D01*
X4381500Y3153500D01*
Y2679700D01*
X4457700Y2603500D01*
X5651500D01*
X5842000Y2413000D01*
G01Y3492500D02*
X5715000D01*
X5080000Y4127500D01*
X3556000D01*
X3238500Y3810000D01*
X1397000D01*
X1206500Y4000500D01*
G01X4000500Y2829600D02*
X4155400D01*
X4191000Y2794000D01*
Y2540000D01*
X4470300Y2260700D01*
Y1854200D01*
X4546500Y1778000D01*
X4826000D01*
X5715000Y889000D01*
X5842000D01*
G01Y1397000D02*
X5334000D01*
X4889500Y1841500D01*
X4584700D01*
X4521100Y1905100D01*
Y2387700D01*
X4432300Y2476500D01*
X4330700D01*
X4254500Y2552700D01*
Y2844800D01*
X4178300Y2921000D01*
X4000500D01*
G01X5842000Y2413000D02*
X6096000Y2667000D01*
X6794500D01*
X7302500Y3175000D01*
X8763000D01*
G01X5842000Y2921000D02*
X6096000Y3175000D01*
X6731000D01*
X6921500Y3365500D01*
X8826500D01*
G01X5842000Y3492500D02*
X6096000Y3746500D01*
X7175500D01*
X7440900Y3481100D01*
X8942100D01*
G01X8382000Y190500D02*
Y1460500D01*
X8445500Y1524000D01*
Y1714500D01*
G01X10477500Y762000D02*
X10287000D01*
X9969500Y444500D01*
Y139700D01*
X9893300Y63500D01*
X8890000D01*
X8699500Y254000D01*
G01X8509000Y508000D02*
Y1206500D01*
X8572500Y1270000D01*
G01X9080500Y4318000D02*
Y3175000D01*
G54D17*
G01X296900Y444500D02*
X381000D01*
G01Y360400D02*
Y444500D01*
G01D02*
X465100D01*
G01X508000Y1206500D02*
Y1290600D01*
G01Y1206500D02*
X592100D01*
G01X444500Y1998700D02*
Y2095500D01*
G01D02*
Y2192300D01*
G01Y2095500D02*
X541300D01*
G01X444500Y3903700D02*
Y4000500D01*
G01D02*
Y4097300D01*
G01Y4000500D02*
X541300D01*
G01X1524000Y360400D02*
Y444500D01*
G01D02*
Y528600D01*
G01X1439900Y444500D02*
X1524000D01*
G01D02*
X1608100D01*
G01X2413000Y360400D02*
Y444500D01*
G01D02*
Y528600D01*
G01X3810000Y423900D02*
Y508000D01*
G01D02*
X3894100D01*
G01X3492500Y3683000D02*
X4699000D01*
X4889500Y3492500D01*
G01Y2265400D02*
Y2349500D01*
G01D02*
Y2433600D01*
G01Y2349500D02*
X4973600D01*
G01X4889500Y3492500D02*
Y3238500D01*
G01Y3154400D02*
Y3238500D01*
G01X4805400D02*
X4889500D01*
G01D02*
X4973600D01*
G01X6921500Y444500D02*
X5588000D01*
X5507100Y525400D01*
X5195300D01*
X5177900Y508000D01*
G01D02*
X5080000D01*
G01Y423900D02*
Y508000D01*
G01D02*
Y592100D01*
G01X4995900Y508000D02*
X5080000D01*
G01X6921500Y444500D02*
Y177800D01*
X7035800Y63500D01*
X8394700D01*
X8509000Y177800D01*
Y317500D01*
X9080500Y889000D01*
Y1778000D01*
X8953500Y1905000D01*
G01X7556500Y1079500D02*
X6921500Y444500D01*
G01X6858000Y1905000D02*
X8636000D01*
X8890000Y1651000D01*
G01X7556500Y1778000D02*
Y1079500D01*
G01X8572500Y2286000D02*
X8839200D01*
X8953500Y2171700D01*
Y1905000D01*
G01X8542000Y2754600D02*
Y2954000D01*
X8572500Y2984500D01*
X10096500D01*
X10223500Y3111500D01*
G01D02*
X10604500D01*
G01Y1947900D02*
Y2032000D01*
G01D02*
Y2116100D01*
G01X10520400Y2032000D02*
X10604500D01*
G01D02*
X10688600D01*
G01X10604500Y3027400D02*
Y3111500D01*
G01D02*
Y3195600D01*
G01Y3111500D02*
X10688600D01*
G54D18*
G01X444500Y2095500D02*
X190500Y1841500D01*
G01D02*
Y1270000D01*
X254000Y1206500D01*
G01D02*
X508000D01*
G01X254000Y2095500D02*
X444500D01*
G01X254000Y4000500D02*
X127000Y3873500D01*
Y2222500D01*
X254000Y2095500D01*
G01X444500Y4000500D02*
X254000D01*
G01X635000Y444500D02*
X1270000D01*
G01X381000D02*
X508000Y571500D01*
G01Y1206500D02*
Y1079500D01*
G01Y571500D02*
X1397000D01*
G01X508000Y1079500D02*
X381000Y952500D01*
G01D02*
Y444500D01*
G01X1651000Y571500D02*
X1524000Y444500D01*
G01X1397000Y571500D02*
X1524000Y444500D01*
G01X2307800D02*
X2269600Y406300D01*
Y360000D01*
X2243500Y333900D01*
X2074500D01*
X2032000Y376400D01*
Y533300D01*
X1993800Y571500D01*
X1651000D01*
G01X3375700Y1915200D02*
X3058100D01*
X2159000Y1016100D01*
Y444500D01*
G01X2413000D02*
X3429000D01*
G01X2413000D02*
X2307800D01*
G01X3775700Y2204700D02*
Y2828300D01*
X3694400Y2909600D01*
X3150900D01*
G01X3810000Y508000D02*
X4064000Y254000D01*
G01D02*
X4826000D01*
G01X3810000Y508000D02*
Y599500D01*
G01X3429000Y444500D02*
X3492500Y508000D01*
G01D02*
X3810000D01*
G01Y599500D02*
X3775700Y633800D01*
Y2204700D01*
G01X4603700Y2349500D02*
X4578300Y2374900D01*
Y2411400D01*
X4456000Y2533700D01*
X4354400D01*
X4311700Y2576400D01*
Y2868500D01*
X4202000Y2978200D01*
X4106600D01*
X4062800Y3022000D01*
Y3073900D01*
X4026400Y3110300D01*
X3974600D01*
X3938200Y3073900D01*
Y2964800D01*
X3925500Y2952100D01*
Y2798500D01*
X3969400Y2754600D01*
X4031600D01*
X4049400Y2772400D01*
X4131700D01*
X4133800Y2770300D01*
Y2516300D01*
X4254500Y2395600D01*
Y2349500D01*
X4127500Y2222500D01*
X3849500D01*
X3831700Y2204700D01*
X3775700D01*
G01X4826000Y254000D02*
X5080000Y508000D01*
G01X4889500Y2349500D02*
X4603700D01*
G01X9715500Y952500D02*
X9906000Y762000D01*
Y444500D01*
X9715500Y254000D01*
G01X10858500Y2286000D02*
X10604500Y2032000D01*
G01X10858500Y2857500D02*
Y2286000D01*
G01X10604500Y3111500D02*
X10858500Y2857500D01*
M02*
