G04 ================== begin FILE IDENTIFICATION RECORD ==================*
G04 Layout Name:  avrusb500.brd*
G04 Film Name:    Design*
G04 File Format:  Gerber RS274X*
G04 File Origin:  Cadence Allegro 17.2-P019*
G04 Origin Date:  Mon Jul 29 16:04:59 2019*
G04 *
G04 Layer:  BOARD GEOMETRY/DESIGN_OUTLINE*
G04 Layer:  VIA CLASS/BOTTOM*
G04 Layer:  VIA CLASS/TOP*
G04 Layer:  ROUTE KEEPIN/ALL*
G04 Layer:  REF DES/SILKSCREEN_TOP*
G04 Layer:  REF DES/SILKSCREEN_BOTTOM*
G04 Layer:  PIN/BOTTOM*
G04 Layer:  PIN/TOP*
G04 Layer:  PACKAGE KEEPIN/ALL*
G04 Layer:  PACKAGE GEOMETRY/PIN_NUMBER*
G04 Layer:  PACKAGE GEOMETRY/SILKSCREEN_TOP*
G04 Layer:  PACKAGE GEOMETRY/SILKSCREEN_BOTTOM*
G04 Layer:  PACKAGE GEOMETRY/SOLDERMASK_TOP*
G04 Layer:  PACKAGE GEOMETRY/SOLDERMASK_BOTTOM*
G04 Layer:  PACKAGE GEOMETRY/PASTEMASK_TOP*
G04 Layer:  PACKAGE GEOMETRY/PASTEMASK_BOTTOM*
G04 Layer:  MANUFACTURING/NCLEGEND-1-2*
G04 Layer:  ETCH/BOTTOM*
G04 Layer:  ETCH/TOP*
G04 Layer:  BOARD GEOMETRY/SILKSCREEN_TOP*
G04 Layer:  BOARD GEOMETRY/SILKSCREEN_BOTTOM*
G04 Layer:  BOARD GEOMETRY/SOLDERMASK_TOP*
G04 Layer:  BOARD GEOMETRY/SOLDERMASK_BOTTOM*
G04 *
G04 Offset:    (0.000 0.000)*
G04 Mirror:    No*
G04 Mode:      Positive*
G04 Rotation:  0*
G04 FullContactRelief:  No*
G04 UndefLineWidth:     0.000*
G04 ================== end FILE IDENTIFICATION RECORD ====================*
%FSLAX55Y55*MOMM*%
%IR0*IPPOS*OFA0.00000B0.00000*MIA0B0*SFA1.00000B1.00000*%
%AMMACRO13*
1,1,0.0,-.45,.25*
20,1,0.0,-.45,.25,.45,.25,0.0*
1,1,0.0,.45,.25*
20,1,0.0,.45,.25,.493412,.246202,0.0*
1,1,0.0,.493412,.246202*
20,1,0.0,.493412,.246202,.535505,.234923,0.0*
1,1,0.0,.535505,.234923*
20,1,0.0,.535505,.234923,.575,.216506,0.0*
1,1,0.0,.575,.216506*
20,1,0.0,.575,.216506,.610697,.191511,0.0*
1,1,0.0,.610697,.191511*
20,1,0.0,.610697,.191511,.641511,.160697,0.0*
1,1,0.0,.641511,.160697*
20,1,0.0,.641511,.160697,.666506,.125,0.0*
1,1,0.0,.666506,.125*
20,1,0.0,.666506,.125,.684923,.085505,0.0*
1,1,0.0,.684923,.085505*
20,1,0.0,.684923,.085505,.696202,.043412,0.0*
1,1,0.0,.696202,.043412*
20,1,0.0,.696202,.043412,.7,0.0,0.0*
1,1,0.0,.7,0.0*
20,1,0.0,.7,0.0,.696202,-.043412,0.0*
1,1,0.0,.696202,-.043412*
20,1,0.0,.696202,-.043412,.684923,-.085505,0.0*
1,1,0.0,.684923,-.085505*
20,1,0.0,.684923,-.085505,.666506,-.125,0.0*
1,1,0.0,.666506,-.125*
20,1,0.0,.666506,-.125,.641511,-.160697,0.0*
1,1,0.0,.641511,-.160697*
20,1,0.0,.641511,-.160697,.610697,-.191511,0.0*
1,1,0.0,.610697,-.191511*
20,1,0.0,.610697,-.191511,.575,-.216506,0.0*
1,1,0.0,.575,-.216506*
20,1,0.0,.575,-.216506,.535505,-.234923,0.0*
1,1,0.0,.535505,-.234923*
20,1,0.0,.535505,-.234923,.493412,-.246202,0.0*
1,1,0.0,.493412,-.246202*
20,1,0.0,.493412,-.246202,.45,-.25,0.0*
1,1,0.0,.45,-.25*
20,1,0.0,.45,-.25,-.45,-.25,0.0*
1,1,0.0,-.45,-.25*
20,1,0.0,-.45,-.25,-.493412,-.246202,0.0*
1,1,0.0,-.493412,-.246202*
20,1,0.0,-.493412,-.246202,-.535505,-.234923,0.0*
1,1,0.0,-.535505,-.234923*
20,1,0.0,-.535505,-.234923,-.575,-.216506,0.0*
1,1,0.0,-.575,-.216506*
20,1,0.0,-.575,-.216506,-.610697,-.191511,0.0*
1,1,0.0,-.610697,-.191511*
20,1,0.0,-.610697,-.191511,-.641511,-.160697,0.0*
1,1,0.0,-.641511,-.160697*
20,1,0.0,-.641511,-.160697,-.666506,-.125,0.0*
1,1,0.0,-.666506,-.125*
20,1,0.0,-.666506,-.125,-.684923,-.085505,0.0*
1,1,0.0,-.684923,-.085505*
20,1,0.0,-.684923,-.085505,-.696202,-.043412,0.0*
1,1,0.0,-.696202,-.043412*
20,1,0.0,-.696202,-.043412,-.7,0.0,0.0*
1,1,0.0,-.7,0.0*
20,1,0.0,-.7,0.0,-.696202,.043412,0.0*
1,1,0.0,-.696202,.043412*
20,1,0.0,-.696202,.043412,-.684923,.085505,0.0*
1,1,0.0,-.684923,.085505*
20,1,0.0,-.684923,.085505,-.666506,.125,0.0*
1,1,0.0,-.666506,.125*
20,1,0.0,-.666506,.125,-.641511,.160697,0.0*
1,1,0.0,-.641511,.160697*
20,1,0.0,-.641511,.160697,-.610697,.191511,0.0*
1,1,0.0,-.610697,.191511*
20,1,0.0,-.610697,.191511,-.575,.216506,0.0*
1,1,0.0,-.575,.216506*
20,1,0.0,-.575,.216506,-.535505,.234923,0.0*
1,1,0.0,-.535505,.234923*
20,1,0.0,-.535505,.234923,-.493412,.246202,0.0*
1,1,0.0,-.493412,.246202*
20,1,0.0,-.493412,.246202,-.45,.25,0.0*
1,1,0.0,-.45,.25*
%
%ADD13MACRO13*%
%ADD27R,2.25X.5*%
%ADD15C,1.321*%
%ADD14R,1.321X1.321*%
%AMMACRO10*
1,1,0.0,.635,0.0*
20,1,0.0,.635,0.0,.625353,-.110267,0.0*
1,1,0.0,.625353,-.110267*
20,1,0.0,.625353,-.110267,.596705,-.217183,0.0*
1,1,0.0,.596705,-.217183*
20,1,0.0,.596705,-.217183,.549926,-.3175,0.0*
1,1,0.0,.549926,-.3175*
20,1,0.0,.549926,-.3175,.486438,-.40817,0.0*
1,1,0.0,.486438,-.40817*
20,1,0.0,.486438,-.40817,.40817,-.486438,0.0*
1,1,0.0,.40817,-.486438*
20,1,0.0,.40817,-.486438,.3175,-.549926,0.0*
1,1,0.0,.3175,-.549926*
20,1,0.0,.3175,-.549926,.217183,-.596705,0.0*
1,1,0.0,.217183,-.596705*
20,1,0.0,.217183,-.596705,.110267,-.625353,0.0*
1,1,0.0,.110267,-.625353*
20,1,0.0,.110267,-.625353,0.0,-.635,0.0*
1,1,0.0,0.0,-.635*
20,1,0.0,0.0,-.635,-.110267,-.625353,0.0*
1,1,0.0,-.110267,-.625353*
20,1,0.0,-.110267,-.625353,-.217183,-.596705,0.0*
1,1,0.0,-.217183,-.596705*
20,1,0.0,-.217183,-.596705,-.3175,-.549926,0.0*
1,1,0.0,-.3175,-.549926*
20,1,0.0,-.3175,-.549926,-.40817,-.486438,0.0*
1,1,0.0,-.40817,-.486438*
20,1,0.0,-.40817,-.486438,-.486438,-.40817,0.0*
1,1,0.0,-.486438,-.40817*
20,1,0.0,-.486438,-.40817,-.549926,-.3175,0.0*
1,1,0.0,-.549926,-.3175*
20,1,0.0,-.549926,-.3175,-.596705,-.217183,0.0*
1,1,0.0,-.596705,-.217183*
20,1,0.0,-.596705,-.217183,-.625353,-.110267,0.0*
1,1,0.0,-.625353,-.110267*
20,1,0.0,-.625353,-.110267,-.635,0.0,0.0*
1,1,0.0,-.635,0.0*
20,1,0.0,-.635,0.0,-.625353,.110267,0.0*
1,1,0.0,-.625353,.110267*
20,1,0.0,-.625353,.110267,-.596705,.217183,0.0*
1,1,0.0,-.596705,.217183*
20,1,0.0,-.596705,.217183,-.549926,.3175,0.0*
1,1,0.0,-.549926,.3175*
20,1,0.0,-.549926,.3175,-.486438,.40817,0.0*
1,1,0.0,-.486438,.40817*
20,1,0.0,-.486438,.40817,-.40817,.486438,0.0*
1,1,0.0,-.40817,.486438*
20,1,0.0,-.40817,.486438,-.3175,.549926,0.0*
1,1,0.0,-.3175,.549926*
20,1,0.0,-.3175,.549926,-.217183,.596705,0.0*
1,1,0.0,-.217183,.596705*
20,1,0.0,-.217183,.596705,-.110267,.625353,0.0*
1,1,0.0,-.110267,.625353*
20,1,0.0,-.110267,.625353,0.0,.635,0.0*
1,1,0.0,0.0,.635*
20,1,0.0,0.0,.635,.110267,.625353,0.0*
1,1,0.0,.110267,.625353*
20,1,0.0,.110267,.625353,.217183,.596705,0.0*
1,1,0.0,.217183,.596705*
20,1,0.0,.217183,.596705,.3175,.549926,0.0*
1,1,0.0,.3175,.549926*
20,1,0.0,.3175,.549926,.40817,.486438,0.0*
1,1,0.0,.40817,.486438*
20,1,0.0,.40817,.486438,.486438,.40817,0.0*
1,1,0.0,.486438,.40817*
20,1,0.0,.486438,.40817,.549926,.3175,0.0*
1,1,0.0,.549926,.3175*
20,1,0.0,.549926,.3175,.596705,.217183,0.0*
1,1,0.0,.596705,.217183*
20,1,0.0,.596705,.217183,.625353,.110267,0.0*
1,1,0.0,.625353,.110267*
20,1,0.0,.625353,.110267,.635,0.0,0.0*
1,1,0.0,.635,0.0*
1,1,0.0,.3175,0.0*
20,1,0.0,.3175,0.0,-.3175,0.0,0.0*
1,1,0.0,-.3175,0.0*
1,1,0.0,0.0,.3175*
20,1,0.0,0.0,.3175,0.0,-.3175,0.0*
1,1,0.0,0.0,-.3175*
%
%ADD10MACRO10*%
%ADD18C,1.575*%
%ADD19R,1.575X1.575*%
%ADD22O,.457X1.778*%
%ADD21O,1.778X.457*%
%ADD25R,.457X1.778*%
%ADD23R,1.778X.457*%
%ADD28R,2.X2.*%
%AMMACRO12*
1,1,0.0,.533,0.0*
20,1,0.0,.533,0.0,.524903,-.092554,0.0*
1,1,0.0,.524903,-.092554*
20,1,0.0,.524903,-.092554,.500856,-.182297,0.0*
1,1,0.0,.500856,-.182297*
20,1,0.0,.500856,-.182297,.461592,-.2665,0.0*
1,1,0.0,.461592,-.2665*
20,1,0.0,.461592,-.2665,.408302,-.342606,0.0*
1,1,0.0,.408302,-.342606*
20,1,0.0,.408302,-.342606,.342606,-.408302,0.0*
1,1,0.0,.342606,-.408302*
20,1,0.0,.342606,-.408302,.2665,-.461592,0.0*
1,1,0.0,.2665,-.461592*
20,1,0.0,.2665,-.461592,.182297,-.500856,0.0*
1,1,0.0,.182297,-.500856*
20,1,0.0,.182297,-.500856,.092554,-.524903,0.0*
1,1,0.0,.092554,-.524903*
20,1,0.0,.092554,-.524903,0.0,-.533,0.0*
1,1,0.0,0.0,-.533*
20,1,0.0,0.0,-.533,-.092554,-.524903,0.0*
1,1,0.0,-.092554,-.524903*
20,1,0.0,-.092554,-.524903,-.182297,-.500856,0.0*
1,1,0.0,-.182297,-.500856*
20,1,0.0,-.182297,-.500856,-.2665,-.461592,0.0*
1,1,0.0,-.2665,-.461592*
20,1,0.0,-.2665,-.461592,-.342606,-.408302,0.0*
1,1,0.0,-.342606,-.408302*
20,1,0.0,-.342606,-.408302,-.408302,-.342606,0.0*
1,1,0.0,-.408302,-.342606*
20,1,0.0,-.408302,-.342606,-.461592,-.2665,0.0*
1,1,0.0,-.461592,-.2665*
20,1,0.0,-.461592,-.2665,-.500856,-.182297,0.0*
1,1,0.0,-.500856,-.182297*
20,1,0.0,-.500856,-.182297,-.524903,-.092554,0.0*
1,1,0.0,-.524903,-.092554*
20,1,0.0,-.524903,-.092554,-.533,0.0,0.0*
1,1,0.0,-.533,0.0*
20,1,0.0,-.533,0.0,-.524903,.092554,0.0*
1,1,0.0,-.524903,.092554*
20,1,0.0,-.524903,.092554,-.500856,.182297,0.0*
1,1,0.0,-.500856,.182297*
20,1,0.0,-.500856,.182297,-.461592,.2665,0.0*
1,1,0.0,-.461592,.2665*
20,1,0.0,-.461592,.2665,-.408302,.342606,0.0*
1,1,0.0,-.408302,.342606*
20,1,0.0,-.408302,.342606,-.342606,.408302,0.0*
1,1,0.0,-.342606,.408302*
20,1,0.0,-.342606,.408302,-.2665,.461592,0.0*
1,1,0.0,-.2665,.461592*
20,1,0.0,-.2665,.461592,-.182297,.500856,0.0*
1,1,0.0,-.182297,.500856*
20,1,0.0,-.182297,.500856,-.092554,.524903,0.0*
1,1,0.0,-.092554,.524903*
20,1,0.0,-.092554,.524903,0.0,.533,0.0*
1,1,0.0,0.0,.533*
20,1,0.0,0.0,.533,.092554,.524903,0.0*
1,1,0.0,.092554,.524903*
20,1,0.0,.092554,.524903,.182297,.500856,0.0*
1,1,0.0,.182297,.500856*
20,1,0.0,.182297,.500856,.2665,.461592,0.0*
1,1,0.0,.2665,.461592*
20,1,0.0,.2665,.461592,.342606,.408302,0.0*
1,1,0.0,.342606,.408302*
20,1,0.0,.342606,.408302,.408302,.342606,0.0*
1,1,0.0,.408302,.342606*
20,1,0.0,.408302,.342606,.461592,.2665,0.0*
1,1,0.0,.461592,.2665*
20,1,0.0,.461592,.2665,.500856,.182297,0.0*
1,1,0.0,.500856,.182297*
20,1,0.0,.500856,.182297,.524903,.092554,0.0*
1,1,0.0,.524903,.092554*
20,1,0.0,.524903,.092554,.533,0.0,0.0*
1,1,0.0,.533,0.0*
1,1,0.0,-.222,-.266*
20,1,0.0,-.222,-.266,0.0,.267,0.0*
1,1,0.0,0.0,.267*
20,1,0.0,0.0,.267,.223,-.266,0.0*
1,1,0.0,.223,-.266*
1,1,0.0,.143,-.079*
20,1,0.0,.143,-.079,-.142,-.079,0.0*
1,1,0.0,-.142,-.079*
%
%ADD12MACRO12*%
%ADD26R,1.5X2.*%
%ADD17C,.61*%
%AMMACRO11*
1,1,0.0,.3935,0.0*
20,1,0.0,.3935,0.0,.387522,-.068331,0.0*
1,1,0.0,.387522,-.068331*
20,1,0.0,.387522,-.068331,.369769,-.134585,0.0*
1,1,0.0,.369769,-.134585*
20,1,0.0,.369769,-.134585,.340781,-.19675,0.0*
1,1,0.0,.340781,-.19675*
20,1,0.0,.340781,-.19675,.301438,-.252937,0.0*
1,1,0.0,.301438,-.252937*
20,1,0.0,.301438,-.252937,.252937,-.301438,0.0*
1,1,0.0,.252937,-.301438*
20,1,0.0,.252937,-.301438,.19675,-.340781,0.0*
1,1,0.0,.19675,-.340781*
20,1,0.0,.19675,-.340781,.134585,-.369769,0.0*
1,1,0.0,.134585,-.369769*
20,1,0.0,.134585,-.369769,.068331,-.387522,0.0*
1,1,0.0,.068331,-.387522*
20,1,0.0,.068331,-.387522,0.0,-.3935,0.0*
1,1,0.0,0.0,-.3935*
20,1,0.0,0.0,-.3935,-.068331,-.387522,0.0*
1,1,0.0,-.068331,-.387522*
20,1,0.0,-.068331,-.387522,-.134585,-.369769,0.0*
1,1,0.0,-.134585,-.369769*
20,1,0.0,-.134585,-.369769,-.19675,-.340781,0.0*
1,1,0.0,-.19675,-.340781*
20,1,0.0,-.19675,-.340781,-.252937,-.301438,0.0*
1,1,0.0,-.252937,-.301438*
20,1,0.0,-.252937,-.301438,-.301438,-.252937,0.0*
1,1,0.0,-.301438,-.252937*
20,1,0.0,-.301438,-.252937,-.340781,-.19675,0.0*
1,1,0.0,-.340781,-.19675*
20,1,0.0,-.340781,-.19675,-.369769,-.134585,0.0*
1,1,0.0,-.369769,-.134585*
20,1,0.0,-.369769,-.134585,-.387522,-.068331,0.0*
1,1,0.0,-.387522,-.068331*
20,1,0.0,-.387522,-.068331,-.3935,0.0,0.0*
1,1,0.0,-.3935,0.0*
20,1,0.0,-.3935,0.0,-.387522,.068331,0.0*
1,1,0.0,-.387522,.068331*
20,1,0.0,-.387522,.068331,-.369769,.134585,0.0*
1,1,0.0,-.369769,.134585*
20,1,0.0,-.369769,.134585,-.340781,.19675,0.0*
1,1,0.0,-.340781,.19675*
20,1,0.0,-.340781,.19675,-.301438,.252937,0.0*
1,1,0.0,-.301438,.252937*
20,1,0.0,-.301438,.252937,-.252937,.301438,0.0*
1,1,0.0,-.252937,.301438*
20,1,0.0,-.252937,.301438,-.19675,.340781,0.0*
1,1,0.0,-.19675,.340781*
20,1,0.0,-.19675,.340781,-.134585,.369769,0.0*
1,1,0.0,-.134585,.369769*
20,1,0.0,-.134585,.369769,-.068331,.387522,0.0*
1,1,0.0,-.068331,.387522*
20,1,0.0,-.068331,.387522,0.0,.3935,0.0*
1,1,0.0,0.0,.3935*
20,1,0.0,0.0,.3935,.068331,.387522,0.0*
1,1,0.0,.068331,.387522*
20,1,0.0,.068331,.387522,.134585,.369769,0.0*
1,1,0.0,.134585,.369769*
20,1,0.0,.134585,.369769,.19675,.340781,0.0*
1,1,0.0,.19675,.340781*
20,1,0.0,.19675,.340781,.252937,.301438,0.0*
1,1,0.0,.252937,.301438*
20,1,0.0,.252937,.301438,.301438,.252937,0.0*
1,1,0.0,.301438,.252937*
20,1,0.0,.301438,.252937,.340781,.19675,0.0*
1,1,0.0,.340781,.19675*
20,1,0.0,.340781,.19675,.369769,.134585,0.0*
1,1,0.0,.369769,.134585*
20,1,0.0,.369769,.134585,.387522,.068331,0.0*
1,1,0.0,.387522,.068331*
20,1,0.0,.387522,.068331,.3935,0.0,0.0*
1,1,0.0,.3935,0.0*
1,1,0.0,-.163,-.196*
20,1,0.0,-.163,-.196,0.0,.197,0.0*
1,1,0.0,0.0,.197*
20,1,0.0,0.0,.197,.164,-.196,0.0*
1,1,0.0,.164,-.196*
1,1,0.0,.105,-.058*
20,1,0.0,.105,-.058,-.104,-.058,0.0*
1,1,0.0,-.104,-.058*
%
%ADD11MACRO11*%
%ADD24R,1.829X2.591*%
%ADD16R,2.591X1.829*%
%ADD20R,1.499X2.845*%
%ADD29C,.203*%
%ADD30C,.152*%
%ADD31C,.254*%
%ADD32C,.381*%
%ADD36C,1.122*%
%ADD38C,1.58*%
%ADD33C,1.834*%
%ADD34C,2.088*%
%ADD35R,.766X.766*%
%ADD37R,.766X.894*%
G75*
%LPD*%
G75*
G36*
G01X0Y0D02*
Y4508500D01*
X10985500D01*
Y0D01*
X0D01*
G37*
%LPC*%
G75*
G36*
G01X1856800Y3959600D02*
X1699200D01*
G02X1695200Y3960000I540J25601D01*
G01X1693200Y3960300D01*
G02X1674300Y3979200I6050J24950D01*
G01X1674000Y3981200D01*
G02X1673600Y3985200I25201J4540D01*
G01Y4142800D01*
G02X1699200Y4168400I25650J-50D01*
G01X1856800D01*
G02X1882400Y4142800I-50J-25650D01*
G01Y3985200D01*
G02X1856800Y3959600I-25650J50D01*
G37*
G36*
G01X1620200Y4023500D02*
G02X1449300Y4136900I-96222J40466D01*
G02X1621000Y4025500I74626J-73000D01*
G01X1620200Y4023500D01*
G37*
G36*
G01X1366200D02*
G02X1195300Y4136900I-96222J40466D01*
G02X1367000Y4025500I74626J-73000D01*
G01X1366200Y4023500D01*
G37*
G36*
G01X5236000Y3835200D02*
X4987500D01*
X5000600Y3848300D01*
X5222900D01*
X5236000Y3835200D01*
G37*
G36*
G01X8570000Y3718400D02*
G02X8544400Y3743900I-50J25550D01*
G01Y3876100D01*
G02X8570000Y3901600I25550J-50D01*
G01X8702000D01*
G02X8727600Y3876100I50J-25550D01*
G01Y3743900D01*
G02X8702000Y3718400I-25550J50D01*
G01X8570000D01*
G37*
G36*
G01X8377000Y3880600D02*
G02X8289600Y3723000I-58527J-70578D01*
G01X8287500Y3723700D01*
G02X8232200Y3779000I31000J86300D01*
G01X8231500Y3781100D01*
G02X8260000Y3880600I87011J28909D01*
G03X8260400Y3881000I-6977J7377D01*
G02X8376600I58100J-71000D01*
G03X8377000Y3880600I7377J6977D01*
G37*
G36*
G01X4592500Y3581200D02*
X4515900D01*
Y3659800D01*
G02X4592500I38300J41000D01*
G01Y3581200D01*
G37*
G36*
G01X4165800Y3576100D02*
X4089200D01*
Y3642000D01*
G02X4165800Y3724000I38300J41000D01*
G02X4182100Y3670300I-38321J-40956D01*
G03X4181900Y3669400I9868J-2665D01*
G02X4165800Y3642000I-54433J13554D01*
G01Y3576100D01*
G37*
G36*
G01X4191200Y3485100D02*
G02X4134900Y3428800I-200J-56100D01*
G01Y3429800D01*
G02X4190200Y3485100I56100J-800D01*
G01X4191200D01*
G37*
G36*
G01X6171600Y3360300D02*
G02X6115200Y3274700I-9191J-55325D01*
G01X6059000D01*
Y3364100D01*
X6166500D01*
X6170000Y3360600D01*
X6171600Y3360300D01*
G37*
G36*
G01X8565100Y3299700D02*
G02X8470700Y3261000I-56070J2287D01*
G01X8470400Y3261300D01*
G02X8468000Y3263700I38460J40860D01*
G01X8467900D01*
G02X8506700Y3358100I41046J38303D01*
G03X8516400Y3367800I-455J10155D01*
G02X8627000Y3378900I56087J-2294D01*
G03X8627100Y3378200I10123J1089D01*
G02X8574800Y3309400I-54634J-12747D01*
G03X8565100Y3299700I455J-10155D01*
G37*
G36*
G01X586800Y3197600D02*
X429200D01*
G02X403600Y3223200I50J25650D01*
G01Y3380800D01*
G02X429200Y3406400I25650J-50D01*
G01X586800D01*
G02X612400Y3380800I-50J-25650D01*
G01Y3223200D01*
G02X586800Y3197600I-25650J50D01*
G37*
G36*
G01X8207400Y3263700D02*
X8079600Y3135900D01*
Y3201700D01*
G02X8154000Y3242500I48424J-67D01*
G03X8169700Y3251100I5494J8601D01*
G01Y3467300D01*
X8246300D01*
Y3263700D01*
X8207400D01*
G37*
G36*
G01X7444800Y2943600D02*
X7287200D01*
G02X7261600Y2969200I50J25650D01*
G01Y3126800D01*
G02X7287200Y3152400I25650J-50D01*
G01X7444800D01*
G02X7470400Y3126800I-50J-25650D01*
G01Y2969200D01*
G02X7444800Y2943600I-25650J50D01*
G37*
G36*
G01X8493600Y3017100D02*
G02X8402400I-45600J-32600D01*
G01X8403300Y3018400D01*
G02X8492700I44700J-33900D01*
G01X8493600Y3017100D01*
G37*
G36*
G01X7872000Y2928300D02*
G02X7881700Y2943800I45165J-17479D01*
G03Y2957800I-7439J7000D01*
G02X7917100Y3039200I35469J32973D01*
G01X7982900D01*
X7872000Y2928300D01*
G37*
G36*
G01X5961700Y3004100D02*
Y2895700D01*
X5911200Y2946200D01*
X5883000D01*
G02Y3022800I-41000J38300D01*
G01X5943000D01*
X5961700Y3004100D01*
G37*
G36*
G01X9735300Y2946200D02*
G02X9568700Y3022800I-83300J38300D01*
G02X9593700Y3055300I83358J-38256D01*
G02X9735300Y2946200I58286J-70792D01*
G37*
G36*
G01X4676500Y2819200D02*
G02Y2895800I-41000J38300D01*
G01X4800800D01*
Y2819200D01*
X4676500D01*
G37*
G36*
G01X8947300Y2749300D02*
X8718300D01*
G02X8731300Y2783800I48424J1452D01*
G03Y2797800I-7439J7000D01*
G02X8719000Y2838700I35467J32966D01*
G01X8946600D01*
G02X8934300Y2797800I-47767J-7934D01*
G03Y2783800I7439J-7000D01*
G02X8947300Y2749300I-35424J-33048D01*
G37*
G36*
G01X9165100Y2784800D02*
G02X9100600Y2849300I-55300J9200D01*
G01X9101900Y2849500D01*
G02X9165300Y2786100I7900J-55500D01*
G01X9165100Y2784800D01*
G37*
G36*
G01X7848800Y2835000D02*
G02X7772200I-38300J-41000D01*
G02X7848800I38300J-41018D01*
G37*
G36*
G01X7721800D02*
G02X7636300Y2763700I-38278J-41012D01*
G01X7635500Y2765000D01*
G02X7721800Y2835000I48018J28999D01*
G37*
G36*
G01X6874700Y2628700D02*
X6798100D01*
Y2711100D01*
G02X6874700I38300J41000D01*
G01Y2628700D01*
G37*
G36*
G01X4310600Y2666800D02*
G02X4254300Y2723100I-56100J200D01*
G01X4256400D01*
X4515900Y2982600D01*
Y3086300D01*
X4592500D01*
Y2950800D01*
X4310600Y2668900D01*
Y2666800D01*
G37*
G36*
G01X8503500Y2550400D02*
G02X8440100Y2487000I-55500J-7900D01*
G01X8438800Y2487200D01*
G02X8503300Y2551700I9200J55300D01*
G01X8503500Y2550400D01*
G37*
G36*
G01X4191200Y2596100D02*
G02X4134900Y2539800I-200J-56100D01*
G01Y2541900D01*
X3962200Y2714600D01*
Y2880000D01*
G02X3958300Y2958000I38295J41012D01*
G01X3958400D01*
G02X4042600I42100J-37000D01*
G01X4042700D01*
G02X4038800Y2880000I-42195J-36988D01*
G01Y2746400D01*
X4189100Y2596100D01*
X4191200D01*
G37*
G36*
G01X411000Y2501500D02*
G02X469500Y2443000I97000J38500D01*
G01X467500Y2443800D01*
G02X411800Y2499500I40500J96200D01*
G01X411000Y2501500D01*
G37*
G36*
G01X7463100Y2501700D02*
G02X7268900Y2578300I-97100J38300D01*
G02X7454200Y2595800I97095J-38319D01*
G03X7454700Y2595100I8553J5581D01*
G02X7463100Y2501700I-88704J-55055D01*
G37*
G36*
G01X4224900Y2304800D02*
G02Y2394200I-33900J44700D01*
G01X4494600D01*
X4584000Y2304800D01*
X4224900D01*
G37*
G36*
G01X1435300Y2301900D02*
Y2193500D01*
X1358700Y2270100D01*
Y2378500D01*
X1435300Y2301900D01*
G37*
G36*
G01X7463000Y2324500D02*
G02X7327500Y2189000I-97000J-38500D01*
G01X7325500Y2189800D01*
G02X7295600Y2363100I40502J96217D01*
G02X7404500Y2383000I70363J-77130D01*
G01X7406500Y2382200D01*
G02X7462200Y2326500I-40500J-96200D01*
G01X7463000Y2324500D01*
G37*
G36*
G01X9680900Y2135500D02*
G02X9568700Y2184200I-28902J87011D01*
G02Y2260800I83300J38300D01*
G02X9739000Y2193600I83249J-38416D01*
G01X9738300Y2191500D01*
G02X9683000Y2136200I-86300J31000D01*
G01X9680900Y2135500D01*
G37*
G36*
G01X8032900Y2112900D02*
G02X7944900Y2158200I-31903J46150D01*
G01Y2159200D01*
G02X8032900Y2112900I56087J-177D01*
G37*
G36*
G01X7071000Y2127200D02*
X7016800Y2073000D01*
X6962600Y2127200D01*
X7016800Y2181400D01*
X7071000Y2127200D01*
G37*
G36*
G01X8126100Y2039400D02*
X8125400Y2038700D01*
G03X8121700Y2039800I-4714J-9082D01*
G02X8073400Y2108200I6317J55714D01*
G03X8073600Y2109000I-9804J2876D01*
G02X8128200Y2039400I54430J-13517D01*
G01X8126100D01*
G37*
G36*
G01X1743500Y1993700D02*
X1635100D01*
X1558500Y2070300D01*
X1666900D01*
X1743500Y1993700D01*
G37*
G36*
G01X7166200Y2032000D02*
X7112000Y1977800D01*
X7057800Y2032000D01*
X7112000Y2086200D01*
X7166200Y2032000D01*
G37*
G36*
G01X4612900Y1993700D02*
G02X4531000I-40950J38312D01*
G02X4613000Y2070300I41000J38300D01*
G01X4818400D01*
X4895000Y1993700D01*
X4683100D01*
X4645100Y2031700D01*
G03X4627700Y2025700I-7263J-7166D01*
G02X4612900Y1993700I-55718J6347D01*
G37*
G36*
G01X5039000Y2070300D02*
G02Y1993700I41000J-38300D01*
G01X4924800D01*
Y2070300D01*
X5039000D01*
G37*
G36*
G01X7424100Y1961000D02*
G02X7307900I-58100J71000D01*
G03X7307500Y1961400I-7377J-6977D01*
G02X7424500I58500J70600D01*
G03X7424100Y1961000I6977J-7377D01*
G37*
G36*
G01X6679100Y1864200D02*
X6528900D01*
G02X6505400Y1879800I73J25610D01*
G01X6702600D01*
G02X6679100Y1864200I-23573J10010D01*
G37*
G36*
G01X6102400D02*
G02X6078800Y1879800I-64J25555D01*
G01X6275800D01*
G02X6252200Y1864200I-23536J9955D01*
G01X6102400D01*
G37*
G36*
G01X5680500Y1803200D02*
X5572100D01*
X5495500Y1879800D01*
X5603900D01*
X5680500Y1803200D01*
G37*
G36*
G01X5149000Y1739700D02*
X4937100D01*
X4797000Y1879800D01*
X5008900D01*
X5149000Y1739700D01*
G37*
G36*
G01X3574000D02*
X3413100D01*
X3331000Y1821800D01*
Y1841500D01*
G03X3317900Y1851200I-10197J-75D01*
G02X3302500Y1848900I-15907J53800D01*
G01X3301800D01*
G02X3256700Y1938100I197J56101D01*
G03X3256800Y1938300I-8944J4597D01*
G02X3263700Y1946000I45066J-33443D01*
G01Y2004700D01*
X3257400Y2011000D01*
Y2030900D01*
X3484300D01*
X3574000Y1941200D01*
Y1739700D01*
G37*
G36*
G01X5261600Y1790700D02*
G02X5173800Y1732800I-54630J-12679D01*
G02X5261400Y1791500I33167J45218D01*
G03X5261600Y1790700I10004J2076D01*
G37*
G36*
G01X5744000Y1676200D02*
X5699100D01*
X5686000Y1689300D01*
X5730900D01*
X5744000Y1676200D01*
G37*
G36*
G01X6795300Y1658400D02*
X6794300D01*
G02X6850600Y1714700I200J56100D01*
G01Y1713700D01*
G02X6795300Y1658400I-56100J800D01*
G37*
G36*
G01X5426500Y1612700D02*
X5318100D01*
X5241500Y1689300D01*
X5349900D01*
X5426500Y1612700D01*
G37*
G36*
G01X5276000D02*
X5064100D01*
X4987500Y1689300D01*
X5199400D01*
X5276000Y1612700D01*
G37*
G36*
G01X3574000D02*
X3320800D01*
Y1679600D01*
X3330500Y1689300D01*
X3574000D01*
Y1612700D01*
G37*
G36*
G01X6962400Y1600800D02*
X6908200Y1546600D01*
X6854000Y1600800D01*
X6908200Y1655000D01*
X6962400Y1600800D01*
G37*
G36*
G01X3576700Y1506000D02*
G02Y1582600I-41000J38300D01*
G02X3576800Y1506000I-40956J-38354D01*
G01X3576700D01*
G37*
G36*
G01X549000Y1488200D02*
G02Y1564800I-41000J38300D01*
G01X663200D01*
Y1488200D01*
X549000D01*
G37*
G36*
G01X7080700Y1414600D02*
G02X6992800Y1454200I-32181J45923D01*
G03X6992700Y1455100I-10191J-677D01*
G02X6992400Y1460300I55775J5826D01*
G01Y1462400D01*
X6930800Y1524000D01*
X6985000Y1578200D01*
X7046600Y1516600D01*
X7048700D01*
G02X7053900Y1516300I-626J-56075D01*
G03X7054800Y1516200I1577J10091D01*
G02X7086300Y1501900I-6299J-55719D01*
G02X7080700Y1414600I-37819J-41404D01*
G37*
G36*
G01X5937400Y1484900D02*
G02X5881100Y1428600I-200J-56100D01*
G01Y1429600D01*
G02X5936400Y1484900I56100J-800D01*
G01X5937400D01*
G37*
G36*
G01X3533500Y1435300D02*
G02X3436400Y1396800I-40998J-38296D01*
G01Y1397800D01*
G02X3533500Y1435300I56100J-800D01*
G37*
G36*
G01X4797100Y1484000D02*
G02X4739000Y1425900I28900J-87000D01*
G01X4739400Y1427200D01*
G02X4795800Y1483600I86600J-30200D01*
G01X4797100Y1484000D01*
G37*
G36*
G01X4102300Y1313700D02*
G02X3980700Y1358700I-38300J83300D01*
G02Y1435300I83298J38300D01*
G02X4155500Y1402100I83274J-38324D01*
G02X4104800Y1314900I-91531J-5121D01*
G02X4102300Y1313700I-40919J82044D01*
G37*
G36*
G01X8662900Y1292600D02*
X8573500D01*
Y1426600D01*
G02X8662900I44700J33900D01*
G01Y1292600D01*
G37*
G36*
G01X2054500Y1308300D02*
G02Y1231700I41000J-38300D01*
G01X2012800D01*
Y1308300D01*
X2054500D01*
G37*
G36*
G01X8343400Y723700D02*
X8217000D01*
X8357100Y863800D01*
X8483500D01*
X8343400Y723700D01*
G37*
G36*
G01X2220000Y416400D02*
G02X2194400Y442000I-50J25550D01*
G01Y574000D01*
G02X2220000Y599600I25550J50D01*
G01X2352000D01*
G02X2377600Y574000I50J-25550D01*
G01Y442000D01*
G02X2352000Y416400I-25550J-50D01*
G01X2220000D01*
G37*
G36*
G01X1204000D02*
G02X1178400Y442000I-50J25550D01*
G01Y574000D01*
G02X1204000Y599600I25550J50D01*
G01X1336000D01*
G02X1361600Y574000I50J-25550D01*
G01Y442000D01*
G02X1336000Y416400I-25550J-50D01*
G01X1204000D01*
G37*
G36*
G01X696000D02*
G02X670400Y442000I-50J25550D01*
G01Y574000D01*
G02X696000Y599600I25550J50D01*
G01X828000D01*
G02X853600Y574000I50J-25550D01*
G01Y479600D01*
X869900Y463300D01*
X853600D01*
Y442000D01*
G02X828000Y416400I-25550J-50D01*
G01X696000D01*
G37*
G36*
G01X8109000Y235300D02*
G02X8108800Y238700I25365J3198D01*
G01Y361500D01*
X8135900Y388600D01*
X8136200Y390200D01*
G02X8146800Y414900I55340J-9125D01*
G01Y548800D01*
X8236200D01*
Y414900D01*
G02X8200700Y325700I-44703J-33873D01*
G01X8199100Y325400D01*
X8109000Y235300D01*
G37*
G54D36*
X8699500Y3429000D03*
X5080000Y2857500D03*
X7556500Y2794000D03*
X3150900Y1992600D03*
G54D38*
X2540000Y508000D03*
X1524000D03*
X508000D03*
G54D33*
X762000Y4064000D03*
X508000Y2286000D03*
G54D34*
X1016000Y4064000D03*
X508000Y3048000D03*
X7366000Y2794000D03*
X508000D03*
G54D35*
X4554200Y3873500D03*
X4127500D03*
X1016000Y3302000D03*
Y3048000D03*
Y2794000D03*
X7048500Y1841500D03*
X2540000Y1651000D03*
G54D37*
X5715000Y2730500D03*
%LPD*%
G75*
G36*
G01X2640600Y1940200D02*
Y2174200D01*
G03X2615000Y2199800I-25600J0D01*
G01X2596100D01*
G02X2588900Y2217300I-6J10229D01*
G01X3000400Y2628700D01*
X3043700D01*
G03X3046000Y2626700I17920J18285D01*
G02X3046800Y2619500I-3177J-3997D01*
G03X3038800Y2604700I37989J-30097D01*
G01X3038500Y2603500D01*
X2985600Y2550700D01*
Y2260700D01*
X2658000Y1933000D01*
G02X2640600Y1940200I-7205J7214D01*
G37*
G36*
G01X3565900Y1816300D02*
X3444900D01*
X3358100Y1903100D01*
Y1905200D01*
G03X3347300Y1938100I-56101J-194D01*
G02X3355500Y1954300I8240J6005D01*
G01X3452500D01*
X3573100Y1833700D01*
G02X3565900Y1816300I-7197J-7212D01*
G37*
G36*
G01X3591000Y2296600D02*
G02X3575600Y2298200I-7013J7409D01*
G03X3502700Y2306200I-39902J-27459D01*
G02X3488700I-7000J7439D01*
G03X3435000Y2314500I-32973J-35468D01*
G02X3420400Y2323800I-4387J9224D01*
G01Y2343900D01*
X3410200Y2354100D01*
Y2394500D01*
X3480500Y2464800D01*
X3881400D01*
G02X3890700Y2450200I76J-10213D01*
G03X3896400Y2399500I43765J-20750D01*
G02X3895600Y2392300I-3977J-3203D01*
G03X3886000Y2372400I15991J-19980D01*
G01Y2326600D01*
Y2326100D01*
G02X3872300Y2316300I-10182J-242D01*
G03X3815800Y2298200I-16562J-45535D01*
G02X3800400Y2296600I-8387J5809D01*
G03X3756300Y2300800I-24711J-25844D01*
G02X3741600Y2304800I-5576J8519D01*
G03X3718600Y2319200I-23026J-11209D01*
G01X3672800D01*
G03X3649800Y2304800I26J-25609D01*
G02X3635100Y2300800I-9124J4519D01*
G03X3591000Y2296600I-19389J-30044D01*
G37*
G36*
G01X4417100Y2392700D02*
G02X4399700Y2385500I-10188J-3D01*
G01X4247100Y2538100D01*
Y2540200D01*
G03X4135000Y2543500I-56103J-151D01*
G02X4117600Y2536900I-10180J601D01*
G01X4103500Y2551000D01*
G02X4103300Y2557900I3648J3559D01*
G03X4107400Y2615500I-36755J31562D01*
G02X4116000Y2631200I8601J5494D01*
G01X4162400D01*
X4164900Y2628700D01*
X4213500D01*
G03X4260800Y2722700I41004J38267D01*
G02X4254800Y2740100I1166J10137D01*
G01X4333900Y2819200D01*
X4594500D01*
G03Y2895800I41000J38300D01*
G01X4302100D01*
X4175100Y2768800D01*
X4149700D01*
X4128900Y2789600D01*
X4229300Y2889900D01*
Y3009700D01*
X4683100D01*
X4724200Y2968600D01*
Y2810000D01*
X4417100Y2502900D01*
Y2392700D01*
G37*
G36*
G01X3770000Y2070300D02*
X3739600Y2100700D01*
X3741300Y2104000D01*
G03X3741600Y2104600I-22762J11756D01*
G02X3756300Y2108600I9124J-4519D01*
G03X3800400Y2112800I19389J30044D01*
G02X3815800Y2111200I7013J-7409D01*
G03X3904200Y2138600I39940J27444D01*
G01Y2270800D01*
G03X3901200Y2287400I-48475J-189D01*
G02X3911000Y2301100I9596J3491D01*
G03X3911600Y2301000I4459J24907D01*
G01X4089400D01*
G03X4115000Y2326600I0J25600D01*
G01Y2372400D01*
G03X4105400Y2392300I-25591J-80D01*
G02X4104600Y2399500I3177J3997D01*
G03X4107300Y2403300I-38100J29930D01*
G02X4123100Y2405000I8585J-5512D01*
G01X4145500Y2382600D01*
X4143400Y2379100D01*
G03X4235700Y2383400I47630J-29612D01*
G01Y2418800D01*
X4175100Y2479400D01*
X4180500Y2484800D01*
X4183000Y2484500D01*
G03X4190800Y2483900I8192J55490D01*
G01X4192900D01*
X4571700Y2105100D01*
G02X4565700Y2087700I-7166J-7263D01*
G03X4531000Y2070300I6237J-55739D01*
G01X3770000D01*
G37*
G36*
G01X9880400Y897900D02*
Y854100D01*
X9826600Y800300D01*
X9769100D01*
G02X9761900Y817700I-3J10188D01*
G01X9842100Y897900D01*
X9880400D01*
G37*
G36*
G01X9906000Y405300D02*
Y771300D01*
X9952900Y818200D01*
X10025600D01*
G03X10033000Y810400I21864J13332D01*
G02X10035000Y804900I-2922J-4176D01*
G03X10034600Y801700I12600J-3200D01*
G01Y751700D01*
G03X10035000Y748500I13000J0D01*
G02X10033000Y743100I-4944J-1239D01*
G03X10021900Y722000I14505J-21100D01*
G01Y672000D01*
G03X10047500Y646400I25600J0D01*
G01X10272500D01*
G03X10298100Y672000I0J25600D01*
G01Y722000D01*
G03X10287000Y743100I-25605J0D01*
G02X10285000Y748500I2944J4161D01*
G03X10285400Y751700I-12600J3200D01*
G01Y801700D01*
G03X10285000Y804900I-13000J0D01*
G02X10287000Y810400I4922J1324D01*
G03X10298100Y831500I-14505J21100D01*
G01Y1003400D01*
X10393000Y1098300D01*
X10535500D01*
G02X10542700Y1080900I-26J-10200D01*
G01X10496300Y1034500D01*
Y590000D01*
X10395500Y489200D01*
X10014500D01*
X9923400Y398100D01*
G02X9906000Y405300I-7200J7226D01*
G37*
G54D10*
X202900Y-1283600D03*
G54D20*
X2540000Y1270000D03*
X2113300D03*
X2540000Y2032000D03*
X2113300D03*
X2540000Y2794000D03*
X2113300D03*
X2540000Y3556000D03*
X2113300D03*
X4127500Y4127500D03*
X4554200D03*
X6177300Y317500D03*
Y825500D03*
Y1397000D03*
Y2667000D03*
Y2032000D03*
X6159500Y3365500D03*
X6177300Y3937000D03*
X6604000Y317500D03*
Y825500D03*
Y1397000D03*
Y2667000D03*
Y2032000D03*
X6586200Y3365500D03*
X6604000Y3937000D03*
X8636000Y381000D03*
X8209300D03*
X8191500Y1460500D03*
X8618200D03*
X9906000Y4191000D03*
X10332700D03*
G54D11*
X202900Y-1474200D03*
X4064000Y1397000D03*
X4826000D03*
G54D30*
G01X336600Y1657300D02*
Y882700D01*
G01D02*
X679400D01*
G01Y1657300D02*
X336600D01*
G01X679400Y882700D02*
Y1657300D01*
G01X2674600Y1066800D02*
X1978700D01*
G01D02*
Y1473200D01*
G01D02*
X2674600D01*
G01Y1828800D02*
X1978700D01*
G01D02*
Y2235200D01*
G01D02*
X2674600D01*
G01Y2590800D02*
X1978700D01*
G01D02*
Y2997200D01*
G01D02*
X2674600D01*
G01Y3352800D02*
X1978700D01*
G01D02*
Y3759200D01*
G01D02*
X2674600D01*
G01Y1473200D02*
Y1066800D01*
G01Y2235200D02*
Y1828800D01*
G01Y2997200D02*
Y2590800D01*
G01Y3759200D02*
Y3352800D01*
G01X3422700Y679400D02*
Y336600D01*
G01D02*
X4197300D01*
G01X3992900Y3924300D02*
Y4330700D01*
G01X4688800Y3924300D02*
X3992900D01*
G01Y4330700D02*
X4688800D01*
G01X4692700Y679400D02*
Y336600D01*
G01D02*
X5467300D01*
G01Y679400D02*
X4692700D01*
G01X4908600Y1898700D02*
X5251400D01*
G01X4908600Y2673300D02*
Y1898700D01*
G01Y3689300D02*
Y2914700D01*
G01D02*
X5251400D01*
G01Y2673300D02*
X4908600D01*
G01X4688800Y4330700D02*
Y3924300D01*
G01X5251400Y3689300D02*
X4908600D01*
G01X5467300Y336600D02*
Y679400D01*
G01X5251400Y1898700D02*
Y2673300D01*
G01Y2914700D02*
Y3689300D01*
G01X6738600Y114300D02*
X6042700D01*
G01D02*
Y520700D01*
G01X6738600Y622300D02*
X6042700D01*
G01D02*
Y1028700D01*
G01D02*
X6738600D01*
G01X6042700Y520700D02*
X6738600D01*
G01Y1828800D02*
X6042700D01*
G01D02*
Y2235200D01*
G01X6738600Y1193800D02*
X6042700D01*
G01D02*
Y1600200D01*
G01D02*
X6738600D01*
G01Y2463800D02*
X6042700D01*
G01D02*
Y2870200D01*
G01Y2235200D02*
X6738600D01*
G01X6024900Y3162300D02*
Y3568700D01*
G01X6720800Y3162300D02*
X6024900D01*
G01X6042700Y2870200D02*
X6738600D01*
G01X6024900Y3568700D02*
X6720800D01*
G01X6738600Y3733800D02*
X6042700D01*
G01D02*
Y4140200D01*
G01D02*
X6738600D01*
G01Y520700D02*
Y114300D01*
G01Y1028700D02*
Y622300D01*
G01Y2235200D02*
Y1828800D01*
G01Y1600200D02*
Y1193800D01*
G01Y2870200D02*
Y2463800D01*
G01X6720800Y3568700D02*
Y3162300D01*
G01X6738600Y4140200D02*
Y3733800D01*
G01X8770600Y177800D02*
X8074700D01*
G01X9771400Y3987800D02*
Y4394200D01*
G01X10467300Y3987800D02*
X9771400D01*
G01Y4394200D02*
X10467300D01*
G01D02*
Y3987800D01*
G54D12*
X202900Y-1664600D03*
X508000Y2286000D03*
Y2540000D03*
Y2794000D03*
Y3048000D03*
Y3302000D03*
G54D21*
X3150900Y2589500D03*
Y2509500D03*
Y2429500D03*
Y2349500D03*
Y2909600D03*
Y2829600D03*
Y2749500D03*
X4000500Y2429500D03*
Y2509500D03*
Y2589500D03*
Y2669500D03*
Y2749500D03*
Y2829600D03*
Y2909600D03*
X7983200Y2510800D03*
Y2430800D03*
Y2990800D03*
Y2910800D03*
Y2830800D03*
Y2750800D03*
Y2670800D03*
X8832800Y2430800D03*
Y2590800D03*
Y2670800D03*
Y2750800D03*
Y2830800D03*
Y2910800D03*
Y2990800D03*
G54D31*
G01X508000Y1526500D02*
X353000D01*
X350500Y1524000D01*
X317500D01*
X190500Y1651000D01*
Y2222500D01*
X508000Y2540000D01*
G01X2095500Y1270000D02*
X1905000D01*
X1648500Y1526500D01*
X508000D01*
G01X5937200Y1428800D02*
X5715000Y1651000D01*
X2032000D01*
X1016000Y2667000D01*
Y4064000D01*
G01X2113300Y3556000D02*
X1460500D01*
X1206500Y3302000D01*
X508000D01*
G01X2113300Y2794000D02*
X1333500D01*
X1079500Y3048000D01*
X508000D01*
G01X2113300Y2032000D02*
X1524000D01*
X1397000Y2159000D01*
Y2476500D01*
X1079500Y2794000D01*
X508000D01*
G01X1778000Y4064000D02*
X2159000Y4445000D01*
X5207000D01*
X5715000Y3937000D01*
X6177300D01*
G01X1524000Y4064000D02*
X1714500Y3873500D01*
X5270500D01*
X5842000Y3302000D01*
Y2984500D01*
G01X6177300Y2032000D02*
X5969000D01*
X5715000Y2286000D01*
Y3302000D01*
X5207000Y3810000D01*
X5016500D01*
X4826000Y3619500D01*
X4161100D01*
X4156000Y3614400D01*
X4005600D01*
X3873500Y3746500D01*
X1587500D01*
X1270000Y4064000D01*
G01X2540000Y1270000D02*
Y1760900D01*
X3023900Y2244800D01*
Y2534800D01*
X3078600Y2589500D01*
X3150900D01*
G01Y2669500D02*
X3036600D01*
X3034100Y2667000D01*
X2984500D01*
X2540000Y2222500D01*
Y2032000D01*
G01Y2794000D02*
X2750800D01*
X2795300Y2749500D01*
X3150900D01*
G01Y2829600D02*
X3012400D01*
X2540000Y3302000D01*
Y3556000D01*
G01X5207000Y1778000D02*
X3429000D01*
X3302000Y1905000D01*
G01D02*
Y2020600D01*
X3295700Y2026900D01*
Y2204700D01*
G01X3150900Y2349500D02*
Y1992600D01*
G01X8128000Y2095500D02*
X7874000Y1841500D01*
X5240600D01*
X5235500Y1846600D01*
X5178500D01*
X5173400Y1841500D01*
X3619500D01*
X3468400Y1992600D01*
X3150900D01*
G01X4066500Y508000D02*
Y1302900D01*
X4064000Y1305400D01*
Y1397000D01*
G01X3535700Y2204700D02*
Y1544300D01*
G01D02*
X4678700D01*
X4826000Y1397000D01*
G01X3455700Y2204700D02*
Y1433800D01*
X3492500Y1397000D01*
G01D02*
X4064000D01*
G01X3695700Y2204700D02*
Y2090400D01*
X3754100Y2032000D01*
X4572000D01*
G01X4191000Y2540000D02*
X4000500Y2730500D01*
Y2921000D01*
G01X4191000Y3048000D02*
Y2905800D01*
X4114800Y2829600D01*
X4000500D01*
G01Y2749500D02*
X4114800D01*
X4133800Y2730500D01*
X4191000D01*
X4318000Y2857500D01*
X4635500D01*
G01X4254500Y2667000D02*
X4180800D01*
X4178300Y2669500D01*
X4000500D01*
G01X4127500Y4127500D02*
Y3683000D01*
G01D02*
Y3492500D01*
X4191000Y3429000D01*
G01X4826000Y1397000D02*
Y665500D01*
X4823500Y663000D01*
Y508000D01*
G01X4191000Y2540000D02*
X6177300Y553700D01*
Y317500D01*
G01X4572000Y2032000D02*
X5080000D01*
G01X4191000Y3048000D02*
X4699000D01*
X4762500Y2984500D01*
Y2794100D01*
X4455400Y2487000D01*
Y2379200D01*
X6009100Y825500D01*
X6177300D01*
G01X4191000Y3429000D02*
Y3048000D01*
G01X5080000Y2857500D02*
X4635500D01*
G01X4554200Y3700800D02*
Y2966700D01*
X4254500Y2667000D01*
G01X4554200Y4127500D02*
Y3700800D01*
G01X5207000Y1778000D02*
X5461000Y1524000D01*
X5524500D01*
X5905500Y1143000D01*
X6794500D01*
X6858000Y1206500D01*
Y1397000D01*
X7112000Y1651000D01*
X7810500D01*
X8288000Y2128500D01*
Y2286000D01*
G01X5080000Y2029500D02*
X5400000D01*
X5715000Y1714500D01*
X6794500D01*
G01X5080000Y3048000D02*
Y2857500D01*
G01X5937200Y1428800D02*
X6045100D01*
X6076900Y1397000D01*
X6177300D01*
G01Y2667000D02*
Y2734300D01*
X5927100Y2984500D01*
X5842000D01*
G01X6586200Y3365500D02*
X6489700D01*
X6413500Y3441700D01*
Y3533100D01*
X6177300Y3769300D01*
Y3937000D01*
G01X10160000Y856500D02*
X9937000D01*
X9842500Y762000D01*
X7937500D01*
X7493000Y317500D01*
X6604000D01*
G01X10160000Y936200D02*
X9826200D01*
X9715500Y825500D01*
X6604000D01*
G01X8191500Y1460500D02*
X7048500D01*
G01D02*
X6794500Y1714500D01*
G01X7366000Y2286000D02*
X7048500Y1968500D01*
Y1741100D01*
X6704400Y1397000D01*
X6604000D01*
G01X7366000Y2540000D02*
X7175500D01*
X7112000Y2476500D01*
Y2222500D01*
X6921500Y2032000D01*
X6604000D01*
G01X8001000Y2159000D02*
X7747000Y1905000D01*
X7239000D01*
X6836400Y2307600D01*
Y2752100D01*
G01X7366000Y2794000D02*
X7175500D01*
X7048500Y2667000D01*
X6604000D01*
G01X7366000Y3048000D02*
X6836400D01*
G01D02*
X6586200Y3298200D01*
Y3365500D01*
G01X6836400Y3048000D02*
Y2752100D01*
G01X8832800Y2990800D02*
Y3039100D01*
X8890000Y3096300D01*
Y3479800D01*
X8813800Y3556000D01*
X8585200D01*
X8509000Y3632200D01*
Y3860800D01*
X8432800Y3937000D01*
X6604000D01*
G01X7366000Y2540000D02*
X7470200D01*
X7683500Y2753300D01*
Y2794000D01*
G01X7366000Y2286000D02*
X7810500Y2730500D01*
Y2794000D01*
G01X7366000D02*
X7556500D01*
G01X8699500Y3429000D02*
X8606100D01*
X8601000Y3434100D01*
X8544000D01*
X8538900Y3429000D01*
X8064500D01*
X7556500Y2921000D01*
Y2794000D01*
G01X8572500Y3365500D02*
X8542600D01*
X8537500Y3370600D01*
X8480500D01*
X8475400Y3365500D01*
X8128000D01*
X7683500Y2921000D01*
Y2794000D01*
G01X8509000Y3302000D02*
X8191500D01*
X7810500Y2921000D01*
Y2794000D01*
G01X8636000Y381000D02*
X9271000D01*
X9588500Y698500D01*
X9906000D01*
G01X8128000Y2095500D02*
X8208000Y2175500D01*
Y2286000D01*
G01X8001000Y2159000D02*
X8067000D01*
X8128000Y2220000D01*
Y2286000D01*
G01X8699500Y3429000D02*
Y3261300D01*
X8688100Y3249900D01*
Y3135600D01*
G01X8572500Y3365500D02*
Y3335600D01*
X8577600Y3330500D01*
Y3304400D01*
X8608100Y3273900D01*
Y3135600D01*
G01X8509000Y3302000D02*
Y3154600D01*
X8528000Y3135600D01*
G01X8318500Y3810000D02*
X8208000Y3699500D01*
Y3135600D01*
G01X8636000Y3810000D02*
X9017000D01*
X9398000Y4191000D01*
X9906000D01*
G01X8832800Y2510800D02*
X9051300D01*
X9525000Y2984500D01*
X9652000D01*
G01X8832800Y2430800D02*
X9010600D01*
X9028400Y2413000D01*
X9144000D01*
X9334500Y2222500D01*
X9652000D01*
G01X10022100Y776700D02*
X10160000D01*
G01X9906000Y698500D02*
X9969500Y762000D01*
X10007400D01*
X10022100Y776700D01*
G01X10414000Y2029500D02*
X9845000D01*
X9652000Y2222500D01*
G01X10414000Y3045500D02*
X9804600D01*
X9743600Y2984500D01*
X9652000D01*
G54D22*
X3295700Y2204700D03*
X3375700D03*
Y3054300D03*
X3295700D03*
X3455700Y2204700D03*
X3535700D03*
X3615700D03*
X3775700D03*
X3855700D03*
Y3054300D03*
X3695700D03*
X3615700D03*
X3535700D03*
X3455700D03*
X8208000Y2286000D03*
X8288000D03*
X8368000D03*
X8448000D03*
X8528000D03*
X8608100D03*
X8688100D03*
Y3135600D03*
X8608100D03*
X8528000D03*
X8368000D03*
X8288000D03*
X8208000D03*
X8128000D03*
G54D13*
X202900Y-1855200D03*
G54D32*
G01X8191500Y381000D02*
X7874000Y63500D01*
X1206500D01*
X762000Y508000D01*
G01X508000D02*
X762000Y254000D01*
G01D02*
X1282700D01*
X1397000Y368300D01*
Y381000D01*
G01X762000Y508000D02*
X1270000D01*
G01X508000Y1016000D02*
Y508000D01*
G01X762000Y1016000D02*
X508000D01*
G01Y423900D02*
Y508000D01*
G01X423900D02*
X508000D01*
G01D02*
X592100D01*
G01X508000Y1016000D02*
Y1125500D01*
G01X360400Y1016000D02*
X508000D01*
G01Y423900D02*
Y508000D01*
G01D02*
Y592100D01*
G01X423900Y508000D02*
X508000D01*
G01D02*
X592100D01*
G01X508000Y2095500D02*
X952500Y1651000D01*
Y1206500D01*
X762000Y1016000D01*
G01Y4064000D02*
Y2476500D01*
G01X508000Y2286000D02*
Y2095500D01*
G01Y2286000D02*
Y2382800D01*
G01X411200Y2286000D02*
X508000D01*
G01D02*
X604800D01*
G01X635000Y2413000D02*
X508000Y2286000D01*
G01X762000Y2476500D02*
X698500Y2413000D01*
X635000D01*
G01X508000Y2189200D02*
Y2286000D01*
G01D02*
Y2382800D01*
G01X411200Y2286000D02*
X508000D01*
G01D02*
X604800D01*
G01X762000Y3967200D02*
Y4064000D01*
G01D02*
Y4160800D01*
G01X665200Y4064000D02*
X762000D01*
G01D02*
X858800D01*
G01X762000D02*
Y4160800D01*
G01X665200Y4064000D02*
X762000D01*
G01D02*
X858800D01*
G01X2286000Y508000D02*
X2095500Y698500D01*
X1460500D01*
X1270000Y508000D01*
G01X1524000D02*
X1905000D01*
G01X1397000Y381000D02*
X1524000Y508000D01*
G01Y423900D02*
Y508000D01*
G01D02*
Y592100D01*
G01X1439900Y508000D02*
X1524000D01*
G01Y423900D02*
Y508000D01*
G01D02*
Y592100D01*
G01X1439900Y508000D02*
X1524000D01*
G01D02*
X1608100D01*
G01X2349500Y317500D02*
X2540000Y508000D01*
G01X1905000D02*
X2095500Y317500D01*
X2349500D01*
G01X3375700Y2204700D02*
Y1937300D01*
X3377000Y1936000D01*
Y1874000D01*
X3375700Y1872700D01*
Y1671300D01*
X3365500Y1661100D01*
Y1587500D01*
X2286000Y508000D01*
G01X2540000D02*
X3556000D01*
G01X2540000Y423900D02*
Y508000D01*
G01D02*
Y592100D01*
G01X2455900Y508000D02*
X2540000D01*
G01Y423900D02*
Y508000D01*
G01D02*
Y592100D01*
G01X2455900Y508000D02*
X2540000D01*
G01D02*
X2624100D01*
G01X3375700Y2204700D02*
Y2325400D01*
X3365500Y2335600D01*
Y2413000D01*
X3462000Y2509500D01*
X3556000D01*
G01X3150900Y2909600D02*
X3313400D01*
G01D02*
X3429000Y2794000D01*
G01X3150900Y2909600D02*
Y2950500D01*
G01X3044000Y2909600D02*
X3150900D01*
G01X3683000Y508000D02*
X4064000Y127000D01*
X4991100D01*
G01X3556000Y508000D02*
Y669400D01*
G01Y508000D02*
X3683000D01*
G01X3615700Y729100D02*
Y2204700D01*
G01X3556000Y669400D02*
X3615700Y729100D01*
G01X4000500Y2509500D02*
Y2589500D01*
G01X3556000Y2509500D02*
X4000500D01*
G01X3535700Y3054300D02*
Y2529800D01*
X3556000Y2509500D01*
G01X4000500D02*
X4081800D01*
X4191000Y2400300D01*
Y2349500D01*
G01X3619500Y2794000D02*
Y2603500D01*
X3810000Y2413000D01*
G01X3775700Y2204700D02*
X3788400Y2217400D01*
Y2298700D01*
X3810000Y2320300D01*
G01X3775700Y2204700D02*
Y2325400D01*
G01X3810000Y2320300D02*
Y2413000D01*
G01X3615700Y2340600D02*
Y2204700D01*
G01X3775700Y2325400D02*
X3724300Y2376800D01*
X3651900D01*
X3615700Y2340600D01*
G01X3429000Y2794000D02*
X3619500D01*
G01X3855700Y3054300D02*
Y3232100D01*
G01X3455700Y3054300D02*
Y2933600D01*
G01X3746500Y2794000D02*
X3855700Y2903200D01*
G01X3619500Y2794000D02*
X3746500D01*
G01X3455700Y2933600D02*
X3429000Y2906900D01*
Y2794000D01*
G01X3855700Y2903200D02*
Y3054300D01*
G01Y3232100D02*
X3873500Y3249900D01*
Y3302000D01*
X4128700Y3557200D01*
X4179700D01*
X4181000Y3558500D01*
X4918600D01*
G01X6162400Y3305000D02*
X6148000Y3319400D01*
X5986400D01*
X5905500Y3238500D01*
Y3027000D01*
X5917000Y3015500D01*
Y2805500D01*
X5842000Y2730500D01*
X4953000D01*
X4572000Y2349500D01*
X4191000D01*
G01X4826000Y2654300D02*
X4940300Y2540000D01*
X5080000D01*
G01X4918600Y3558500D02*
X4826000Y3465900D01*
Y2654300D01*
G01X4918600Y3558500D02*
X5080000D01*
G01X4991100Y127000D02*
X5334000Y469900D01*
Y508000D01*
G01D02*
X5588000D01*
G01X5334000D02*
Y655600D01*
G01X5224500Y508000D02*
X5334000D01*
G01X5588000D02*
X6032500Y63500D01*
X9652000D01*
G01X5080000Y2430500D02*
Y2540000D01*
G01D02*
Y2649500D01*
G01Y2540000D02*
X5227600D01*
G01X5080000Y3449000D02*
Y3558500D01*
G01D02*
Y3668000D01*
G01Y3558500D02*
X5227600D01*
G01X7366000Y2032000D02*
X7620000D01*
G01D02*
Y2095500D01*
X8318500Y2794000D01*
G01X7366000Y1935200D02*
Y2032000D01*
G01D02*
Y2128800D01*
G01X7269200Y2032000D02*
X7366000D01*
G01D02*
Y2128800D01*
G01X7269200Y2032000D02*
X7366000D01*
G01D02*
X7462800D01*
G01X8191500Y381000D02*
Y635000D01*
X8618200Y1061700D01*
Y1460500D01*
G01D02*
Y1742500D01*
X8608100Y1752600D01*
Y2286000D01*
G01X8448000Y2542500D02*
X8608100Y2382400D01*
Y2286000D01*
G01X8448000Y2794000D02*
Y2542500D01*
G01X8688100Y2286000D02*
Y2424400D01*
G01Y2108200D02*
Y2286000D01*
G01Y2424400D02*
X8318500Y2794000D01*
G01X9779000Y1016000D02*
X8699500Y2095500D01*
Y2096800D01*
X8688100Y2108200D01*
G01X8448000Y3135600D02*
Y2984500D01*
G01D02*
Y2794000D01*
G01X9109800D02*
X8448000D01*
G01X8318500D02*
X8288000Y2824500D01*
G01D02*
Y3135600D01*
G01X10332700Y4191000D02*
Y4016900D01*
X9109800Y2794000D01*
G01X10668000Y1143000D02*
X10541000Y1016000D01*
Y571500D01*
X10414000Y444500D01*
X10033000D01*
X9652000Y63500D01*
G01X10160000Y1016000D02*
X9779000D01*
G01X10160000D02*
X10247500D01*
X10374500Y1143000D01*
X10668000D01*
G01D02*
X10795000Y1270000D01*
Y1587500D01*
X10705200Y1677300D01*
Y2628000D01*
G01X10617200Y2540000D02*
X10414000D01*
G01Y2430500D02*
Y2540000D01*
G01D02*
Y2649500D01*
G01X10266400Y2540000D02*
X10414000D01*
G01X10705200Y2628000D02*
X10617200Y2540000D01*
G01X10575400Y3556000D02*
X10731500Y3399900D01*
Y2654300D01*
X10705200Y2628000D01*
G01X10414000Y3556000D02*
X10575400D01*
G01X10414000Y3446500D02*
Y3556000D01*
G01D02*
Y3665500D01*
G01X10266400Y3556000D02*
X10414000D01*
G54D23*
X3150900Y2669500D03*
X4000500Y2349500D03*
X7983200Y2590800D03*
X8832800Y2510800D03*
G54D14*
X762000Y508000D03*
D03*
X1270000D03*
D03*
X2286000D03*
D03*
X8636000Y3810000D03*
D03*
G54D24*
X3556000Y508000D03*
X4066500D03*
X4823500D03*
X5334000D03*
G54D15*
X508000D03*
D03*
X1524000D03*
D03*
X2540000D03*
D03*
X4064000Y1397000D03*
D03*
X4826000D03*
D03*
X8318500Y3810000D03*
D03*
X9652000Y2222500D03*
D03*
Y2984500D03*
D03*
G54D16*
X508000Y1016000D03*
Y1526500D03*
X5080000Y2540000D03*
Y2029500D03*
Y3048000D03*
Y3558500D03*
X10414000Y2540000D03*
Y2029500D03*
Y3045500D03*
Y3556000D03*
G54D25*
X3695700Y2204700D03*
X3775700Y3054300D03*
X8128000Y2286000D03*
X8448000Y3135600D03*
G54D17*
X762000Y508000D03*
D03*
X508000Y1526500D03*
D03*
X762000Y4064000D03*
D03*
X2095500Y1270000D03*
D03*
X3302000Y1905000D03*
D03*
X3150900Y1992600D03*
D03*
X3429000Y2794000D03*
D03*
X3535700Y1544300D03*
D03*
X3492500Y1397000D03*
D03*
X4191000Y2349500D03*
D03*
X3810000Y2413000D03*
D03*
X4191000Y2540000D03*
D03*
X3746500Y2794000D03*
D03*
X4191000Y3429000D03*
D03*
X4000500Y2921000D03*
D03*
X4127500Y3683000D03*
D03*
X4572000Y2032000D03*
D03*
X4254500Y2667000D03*
D03*
X4635500Y2857500D03*
D03*
X4554200Y3700800D03*
D03*
X5207000Y1778000D03*
D03*
X5080000Y2032000D03*
D03*
Y2857500D03*
D03*
X5937200Y1428800D03*
D03*
X6162400Y3305000D03*
D03*
X5842000Y2984500D03*
D03*
X7048500Y1460500D03*
D03*
X6794500Y1714500D03*
D03*
X6836400Y2752100D03*
D03*
X7620000Y2032000D03*
D03*
X8001000Y2159000D03*
D03*
X7556500Y2794000D03*
D03*
X7683500D03*
D03*
X7810500D03*
D03*
X8191500Y381000D03*
D03*
X8618200Y1460500D03*
D03*
X8128000Y2095500D03*
D03*
X8448000Y2542500D03*
D03*
X8699500Y3429000D03*
D03*
X8572500Y3365500D03*
D03*
X8509000Y3302000D03*
D03*
X8448000Y2984500D03*
D03*
X8318500Y2794000D03*
D03*
X9109800D03*
D03*
G54D26*
X10160000Y207000D03*
Y1506000D03*
G54D18*
X508000Y2286000D03*
D03*
Y2540000D03*
D03*
Y2794000D03*
D03*
Y3048000D03*
D03*
X762000Y4064000D03*
D03*
X1016000D03*
D03*
X1270000D03*
D03*
X1524000D03*
D03*
X7366000Y2032000D03*
D03*
Y2286000D03*
D03*
Y2540000D03*
D03*
Y2794000D03*
D03*
G54D27*
X10160000Y1016000D03*
Y936200D03*
Y856500D03*
Y776700D03*
Y697000D03*
G54D28*
X10585000Y207000D03*
Y1506000D03*
G54D19*
X508000Y3302000D03*
D03*
X1778000Y4064000D03*
D03*
X7366000Y3048000D03*
D03*
G54D29*
G01X920700Y508000D02*
G02I-285700J0D01*
G01X622300Y3937000D02*
Y4191000D01*
G01X1917700Y3937000D02*
X622300D01*
G01X1016000Y4191000D02*
X1270000D01*
G01X762000D02*
X1016000D01*
G01X622300D02*
X762000D01*
G01X1682700Y508000D02*
G02I-285700J0D01*
G01X1778000Y4191000D02*
X1917700D01*
G01X1524000D02*
X1778000D01*
G01X1270000D02*
X1524000D01*
G01X2698700Y508000D02*
G02I-285700J0D01*
G01X1917700Y4191000D02*
Y3937000D01*
G01X7239000Y2540000D02*
Y2794000D01*
G01Y2286000D02*
Y2540000D01*
G01Y2032000D02*
Y2286000D01*
G01Y1892300D02*
Y2032000D01*
G01Y3048000D02*
Y3187700D01*
G01Y2794000D02*
Y3048000D01*
G01X9398000Y2032000D02*
Y3175000D01*
G01X9906000Y2032000D02*
X9398000D01*
G01Y3175000D02*
X9906000D01*
G01D02*
Y2032000D01*
M02*
