G04 ================== begin FILE IDENTIFICATION RECORD ==================*
G04 Layout Name:  AVRUSB500_new.brd*
G04 Film Name:    Design*
G04 File Format:  Gerber RS274X*
G04 File Origin:  Cadence Allegro 16.6-S034*
G04 Origin Date:  Fri Jul 19 12:25:43 2019*
G04 *
G04 Layer:  VIA CLASS/BOTTOM*
G04 Layer:  VIA CLASS/TOP*
G04 Layer:  ROUTE KEEPIN/ALL*
G04 Layer:  REF DES/SILKSCREEN_TOP*
G04 Layer:  REF DES/SILKSCREEN_BOTTOM*
G04 Layer:  PIN/BOTTOM*
G04 Layer:  PIN/TOP*
G04 Layer:  PACKAGE KEEPIN/ALL*
G04 Layer:  PACKAGE GEOMETRY/PIN_NUMBER*
G04 Layer:  PACKAGE GEOMETRY/SILKSCREEN_TOP*
G04 Layer:  PACKAGE GEOMETRY/SILKSCREEN_BOTTOM*
G04 Layer:  PACKAGE GEOMETRY/SOLDERMASK_TOP*
G04 Layer:  PACKAGE GEOMETRY/SOLDERMASK_BOTTOM*
G04 Layer:  PACKAGE GEOMETRY/PASTEMASK_TOP*
G04 Layer:  PACKAGE GEOMETRY/PASTEMASK_BOTTOM*
G04 Layer:  MANUFACTURING/NCLEGEND-1-2*
G04 Layer:  ETCH/BOTTOM*
G04 Layer:  ETCH/TOP*
G04 Layer:  BOARD GEOMETRY/OUTLINE*
G04 Layer:  BOARD GEOMETRY/SILKSCREEN_TOP*
G04 Layer:  BOARD GEOMETRY/SILKSCREEN_BOTTOM*
G04 Layer:  BOARD GEOMETRY/SOLDERMASK_TOP*
G04 Layer:  BOARD GEOMETRY/SOLDERMASK_BOTTOM*
G04 *
G04 Offset:    (0.000 0.000)*
G04 Mirror:    No*
G04 Mode:      Positive*
G04 Rotation:  0*
G04 FullContactRelief:  No*
G04 UndefLineWidth:     0.000*
G04 ================== end FILE IDENTIFICATION RECORD ====================*
%FSLAX25Y25*MOMM*%
%IR0*IPPOS*OFA0.00000B0.00000*MIA0B0*SFA1.00000B1.00000*%
%AMMACRO13*
1,1,0.0,-.45,.25*
20,1,0.0,-.45,.25,.45,.25,0.0*
1,1,0.0,.45,.25*
20,1,0.0,.45,.25,.493412,.246202,0.0*
1,1,0.0,.493412,.246202*
20,1,0.0,.493412,.246202,.535505,.234923,0.0*
1,1,0.0,.535505,.234923*
20,1,0.0,.535505,.234923,.575,.216506,0.0*
1,1,0.0,.575,.216506*
20,1,0.0,.575,.216506,.610697,.191511,0.0*
1,1,0.0,.610697,.191511*
20,1,0.0,.610697,.191511,.641511,.160697,0.0*
1,1,0.0,.641511,.160697*
20,1,0.0,.641511,.160697,.666506,.125,0.0*
1,1,0.0,.666506,.125*
20,1,0.0,.666506,.125,.684923,.085505,0.0*
1,1,0.0,.684923,.085505*
20,1,0.0,.684923,.085505,.696202,.043412,0.0*
1,1,0.0,.696202,.043412*
20,1,0.0,.696202,.043412,.7,0.0,0.0*
1,1,0.0,.7,0.0*
20,1,0.0,.7,0.0,.696202,-.043412,0.0*
1,1,0.0,.696202,-.043412*
20,1,0.0,.696202,-.043412,.684923,-.085505,0.0*
1,1,0.0,.684923,-.085505*
20,1,0.0,.684923,-.085505,.666506,-.125,0.0*
1,1,0.0,.666506,-.125*
20,1,0.0,.666506,-.125,.641511,-.160697,0.0*
1,1,0.0,.641511,-.160697*
20,1,0.0,.641511,-.160697,.610697,-.191511,0.0*
1,1,0.0,.610697,-.191511*
20,1,0.0,.610697,-.191511,.575,-.216506,0.0*
1,1,0.0,.575,-.216506*
20,1,0.0,.575,-.216506,.535505,-.234923,0.0*
1,1,0.0,.535505,-.234923*
20,1,0.0,.535505,-.234923,.493412,-.246202,0.0*
1,1,0.0,.493412,-.246202*
20,1,0.0,.493412,-.246202,.45,-.25,0.0*
1,1,0.0,.45,-.25*
20,1,0.0,.45,-.25,-.45,-.25,0.0*
1,1,0.0,-.45,-.25*
20,1,0.0,-.45,-.25,-.493412,-.246202,0.0*
1,1,0.0,-.493412,-.246202*
20,1,0.0,-.493412,-.246202,-.535505,-.234923,0.0*
1,1,0.0,-.535505,-.234923*
20,1,0.0,-.535505,-.234923,-.575,-.216506,0.0*
1,1,0.0,-.575,-.216506*
20,1,0.0,-.575,-.216506,-.610697,-.191511,0.0*
1,1,0.0,-.610697,-.191511*
20,1,0.0,-.610697,-.191511,-.641511,-.160697,0.0*
1,1,0.0,-.641511,-.160697*
20,1,0.0,-.641511,-.160697,-.666506,-.125,0.0*
1,1,0.0,-.666506,-.125*
20,1,0.0,-.666506,-.125,-.684923,-.085505,0.0*
1,1,0.0,-.684923,-.085505*
20,1,0.0,-.684923,-.085505,-.696202,-.043412,0.0*
1,1,0.0,-.696202,-.043412*
20,1,0.0,-.696202,-.043412,-.7,0.0,0.0*
1,1,0.0,-.7,0.0*
20,1,0.0,-.7,0.0,-.696202,.043412,0.0*
1,1,0.0,-.696202,.043412*
20,1,0.0,-.696202,.043412,-.684923,.085505,0.0*
1,1,0.0,-.684923,.085505*
20,1,0.0,-.684923,.085505,-.666506,.125,0.0*
1,1,0.0,-.666506,.125*
20,1,0.0,-.666506,.125,-.641511,.160697,0.0*
1,1,0.0,-.641511,.160697*
20,1,0.0,-.641511,.160697,-.610697,.191511,0.0*
1,1,0.0,-.610697,.191511*
20,1,0.0,-.610697,.191511,-.575,.216506,0.0*
1,1,0.0,-.575,.216506*
20,1,0.0,-.575,.216506,-.535505,.234923,0.0*
1,1,0.0,-.535505,.234923*
20,1,0.0,-.535505,.234923,-.493412,.246202,0.0*
1,1,0.0,-.493412,.246202*
20,1,0.0,-.493412,.246202,-.45,.25,0.0*
1,1,0.0,-.45,.25*
%
%ADD13MACRO13*%
%ADD24R,1.72X.4*%
%ADD14C,1.321*%
%ADD15R,1.321X1.321*%
%AMMACRO10*
1,1,0.0,.635,0.0*
20,1,0.0,.635,0.0,.625353,-.110267,0.0*
1,1,0.0,.625353,-.110267*
20,1,0.0,.625353,-.110267,.596705,-.217183,0.0*
1,1,0.0,.596705,-.217183*
20,1,0.0,.596705,-.217183,.549926,-.3175,0.0*
1,1,0.0,.549926,-.3175*
20,1,0.0,.549926,-.3175,.486438,-.40817,0.0*
1,1,0.0,.486438,-.40817*
20,1,0.0,.486438,-.40817,.40817,-.486438,0.0*
1,1,0.0,.40817,-.486438*
20,1,0.0,.40817,-.486438,.3175,-.549926,0.0*
1,1,0.0,.3175,-.549926*
20,1,0.0,.3175,-.549926,.217183,-.596705,0.0*
1,1,0.0,.217183,-.596705*
20,1,0.0,.217183,-.596705,.110267,-.625353,0.0*
1,1,0.0,.110267,-.625353*
20,1,0.0,.110267,-.625353,0.0,-.635,0.0*
1,1,0.0,0.0,-.635*
20,1,0.0,0.0,-.635,-.110267,-.625353,0.0*
1,1,0.0,-.110267,-.625353*
20,1,0.0,-.110267,-.625353,-.217183,-.596705,0.0*
1,1,0.0,-.217183,-.596705*
20,1,0.0,-.217183,-.596705,-.3175,-.549926,0.0*
1,1,0.0,-.3175,-.549926*
20,1,0.0,-.3175,-.549926,-.40817,-.486438,0.0*
1,1,0.0,-.40817,-.486438*
20,1,0.0,-.40817,-.486438,-.486438,-.40817,0.0*
1,1,0.0,-.486438,-.40817*
20,1,0.0,-.486438,-.40817,-.549926,-.3175,0.0*
1,1,0.0,-.549926,-.3175*
20,1,0.0,-.549926,-.3175,-.596705,-.217183,0.0*
1,1,0.0,-.596705,-.217183*
20,1,0.0,-.596705,-.217183,-.625353,-.110267,0.0*
1,1,0.0,-.625353,-.110267*
20,1,0.0,-.625353,-.110267,-.635,0.0,0.0*
1,1,0.0,-.635,0.0*
20,1,0.0,-.635,0.0,-.625353,.110267,0.0*
1,1,0.0,-.625353,.110267*
20,1,0.0,-.625353,.110267,-.596705,.217183,0.0*
1,1,0.0,-.596705,.217183*
20,1,0.0,-.596705,.217183,-.549926,.3175,0.0*
1,1,0.0,-.549926,.3175*
20,1,0.0,-.549926,.3175,-.486438,.40817,0.0*
1,1,0.0,-.486438,.40817*
20,1,0.0,-.486438,.40817,-.40817,.486438,0.0*
1,1,0.0,-.40817,.486438*
20,1,0.0,-.40817,.486438,-.3175,.549926,0.0*
1,1,0.0,-.3175,.549926*
20,1,0.0,-.3175,.549926,-.217183,.596705,0.0*
1,1,0.0,-.217183,.596705*
20,1,0.0,-.217183,.596705,-.110267,.625353,0.0*
1,1,0.0,-.110267,.625353*
20,1,0.0,-.110267,.625353,0.0,.635,0.0*
1,1,0.0,0.0,.635*
20,1,0.0,0.0,.635,.110267,.625353,0.0*
1,1,0.0,.110267,.625353*
20,1,0.0,.110267,.625353,.217183,.596705,0.0*
1,1,0.0,.217183,.596705*
20,1,0.0,.217183,.596705,.3175,.549926,0.0*
1,1,0.0,.3175,.549926*
20,1,0.0,.3175,.549926,.40817,.486438,0.0*
1,1,0.0,.40817,.486438*
20,1,0.0,.40817,.486438,.486438,.40817,0.0*
1,1,0.0,.486438,.40817*
20,1,0.0,.486438,.40817,.549926,.3175,0.0*
1,1,0.0,.549926,.3175*
20,1,0.0,.549926,.3175,.596705,.217183,0.0*
1,1,0.0,.596705,.217183*
20,1,0.0,.596705,.217183,.625353,.110267,0.0*
1,1,0.0,.625353,.110267*
20,1,0.0,.625353,.110267,.635,0.0,0.0*
1,1,0.0,.635,0.0*
1,1,0.0,.3175,0.0*
20,1,0.0,.3175,0.0,-.3175,0.0,0.0*
1,1,0.0,-.3175,0.0*
1,1,0.0,0.0,.3175*
20,1,0.0,0.0,.3175,0.0,-.3175,0.0*
1,1,0.0,0.0,-.3175*
%
%ADD10MACRO10*%
%ADD17C,1.575*%
%ADD18R,1.575X1.575*%
%ADD20O,.457X1.778*%
%ADD19O,1.778X.457*%
%ADD22R,.457X1.778*%
%ADD21R,1.778X.457*%
%AMMACRO12*
1,1,0.0,.533,0.0*
20,1,0.0,.533,0.0,.524903,-.092554,0.0*
1,1,0.0,.524903,-.092554*
20,1,0.0,.524903,-.092554,.500856,-.182297,0.0*
1,1,0.0,.500856,-.182297*
20,1,0.0,.500856,-.182297,.461592,-.2665,0.0*
1,1,0.0,.461592,-.2665*
20,1,0.0,.461592,-.2665,.408302,-.342606,0.0*
1,1,0.0,.408302,-.342606*
20,1,0.0,.408302,-.342606,.342606,-.408302,0.0*
1,1,0.0,.342606,-.408302*
20,1,0.0,.342606,-.408302,.2665,-.461592,0.0*
1,1,0.0,.2665,-.461592*
20,1,0.0,.2665,-.461592,.182297,-.500856,0.0*
1,1,0.0,.182297,-.500856*
20,1,0.0,.182297,-.500856,.092554,-.524903,0.0*
1,1,0.0,.092554,-.524903*
20,1,0.0,.092554,-.524903,0.0,-.533,0.0*
1,1,0.0,0.0,-.533*
20,1,0.0,0.0,-.533,-.092554,-.524903,0.0*
1,1,0.0,-.092554,-.524903*
20,1,0.0,-.092554,-.524903,-.182297,-.500856,0.0*
1,1,0.0,-.182297,-.500856*
20,1,0.0,-.182297,-.500856,-.2665,-.461592,0.0*
1,1,0.0,-.2665,-.461592*
20,1,0.0,-.2665,-.461592,-.342606,-.408302,0.0*
1,1,0.0,-.342606,-.408302*
20,1,0.0,-.342606,-.408302,-.408302,-.342606,0.0*
1,1,0.0,-.408302,-.342606*
20,1,0.0,-.408302,-.342606,-.461592,-.2665,0.0*
1,1,0.0,-.461592,-.2665*
20,1,0.0,-.461592,-.2665,-.500856,-.182297,0.0*
1,1,0.0,-.500856,-.182297*
20,1,0.0,-.500856,-.182297,-.524903,-.092554,0.0*
1,1,0.0,-.524903,-.092554*
20,1,0.0,-.524903,-.092554,-.533,0.0,0.0*
1,1,0.0,-.533,0.0*
20,1,0.0,-.533,0.0,-.524903,.092554,0.0*
1,1,0.0,-.524903,.092554*
20,1,0.0,-.524903,.092554,-.500856,.182297,0.0*
1,1,0.0,-.500856,.182297*
20,1,0.0,-.500856,.182297,-.461592,.2665,0.0*
1,1,0.0,-.461592,.2665*
20,1,0.0,-.461592,.2665,-.408302,.342606,0.0*
1,1,0.0,-.408302,.342606*
20,1,0.0,-.408302,.342606,-.342606,.408302,0.0*
1,1,0.0,-.342606,.408302*
20,1,0.0,-.342606,.408302,-.2665,.461592,0.0*
1,1,0.0,-.2665,.461592*
20,1,0.0,-.2665,.461592,-.182297,.500856,0.0*
1,1,0.0,-.182297,.500856*
20,1,0.0,-.182297,.500856,-.092554,.524903,0.0*
1,1,0.0,-.092554,.524903*
20,1,0.0,-.092554,.524903,0.0,.533,0.0*
1,1,0.0,0.0,.533*
20,1,0.0,0.0,.533,.092554,.524903,0.0*
1,1,0.0,.092554,.524903*
20,1,0.0,.092554,.524903,.182297,.500856,0.0*
1,1,0.0,.182297,.500856*
20,1,0.0,.182297,.500856,.2665,.461592,0.0*
1,1,0.0,.2665,.461592*
20,1,0.0,.2665,.461592,.342606,.408302,0.0*
1,1,0.0,.342606,.408302*
20,1,0.0,.342606,.408302,.408302,.342606,0.0*
1,1,0.0,.408302,.342606*
20,1,0.0,.408302,.342606,.461592,.2665,0.0*
1,1,0.0,.461592,.2665*
20,1,0.0,.461592,.2665,.500856,.182297,0.0*
1,1,0.0,.500856,.182297*
20,1,0.0,.500856,.182297,.524903,.092554,0.0*
1,1,0.0,.524903,.092554*
20,1,0.0,.524903,.092554,.533,0.0,0.0*
1,1,0.0,.533,0.0*
1,1,0.0,-.222,-.266*
20,1,0.0,-.222,-.266,0.0,.267,0.0*
1,1,0.0,0.0,.267*
20,1,0.0,0.0,.267,.223,-.266,0.0*
1,1,0.0,.223,-.266*
1,1,0.0,.143,-.079*
20,1,0.0,.143,-.079,-.142,-.079,0.0*
1,1,0.0,-.142,-.079*
%
%ADD12MACRO12*%
%ADD23O,1.9X1.2*%
%ADD25R,1.72X1.1*%
%ADD16C,.61*%
%AMMACRO11*
1,1,0.0,.3935,0.0*
20,1,0.0,.3935,0.0,.387522,-.068331,0.0*
1,1,0.0,.387522,-.068331*
20,1,0.0,.387522,-.068331,.369769,-.134585,0.0*
1,1,0.0,.369769,-.134585*
20,1,0.0,.369769,-.134585,.340781,-.19675,0.0*
1,1,0.0,.340781,-.19675*
20,1,0.0,.340781,-.19675,.301438,-.252937,0.0*
1,1,0.0,.301438,-.252937*
20,1,0.0,.301438,-.252937,.252937,-.301438,0.0*
1,1,0.0,.252937,-.301438*
20,1,0.0,.252937,-.301438,.19675,-.340781,0.0*
1,1,0.0,.19675,-.340781*
20,1,0.0,.19675,-.340781,.134585,-.369769,0.0*
1,1,0.0,.134585,-.369769*
20,1,0.0,.134585,-.369769,.068331,-.387522,0.0*
1,1,0.0,.068331,-.387522*
20,1,0.0,.068331,-.387522,0.0,-.3935,0.0*
1,1,0.0,0.0,-.3935*
20,1,0.0,0.0,-.3935,-.068331,-.387522,0.0*
1,1,0.0,-.068331,-.387522*
20,1,0.0,-.068331,-.387522,-.134585,-.369769,0.0*
1,1,0.0,-.134585,-.369769*
20,1,0.0,-.134585,-.369769,-.19675,-.340781,0.0*
1,1,0.0,-.19675,-.340781*
20,1,0.0,-.19675,-.340781,-.252937,-.301438,0.0*
1,1,0.0,-.252937,-.301438*
20,1,0.0,-.252937,-.301438,-.301438,-.252937,0.0*
1,1,0.0,-.301438,-.252937*
20,1,0.0,-.301438,-.252937,-.340781,-.19675,0.0*
1,1,0.0,-.340781,-.19675*
20,1,0.0,-.340781,-.19675,-.369769,-.134585,0.0*
1,1,0.0,-.369769,-.134585*
20,1,0.0,-.369769,-.134585,-.387522,-.068331,0.0*
1,1,0.0,-.387522,-.068331*
20,1,0.0,-.387522,-.068331,-.3935,0.0,0.0*
1,1,0.0,-.3935,0.0*
20,1,0.0,-.3935,0.0,-.387522,.068331,0.0*
1,1,0.0,-.387522,.068331*
20,1,0.0,-.387522,.068331,-.369769,.134585,0.0*
1,1,0.0,-.369769,.134585*
20,1,0.0,-.369769,.134585,-.340781,.19675,0.0*
1,1,0.0,-.340781,.19675*
20,1,0.0,-.340781,.19675,-.301438,.252937,0.0*
1,1,0.0,-.301438,.252937*
20,1,0.0,-.301438,.252937,-.252937,.301438,0.0*
1,1,0.0,-.252937,.301438*
20,1,0.0,-.252937,.301438,-.19675,.340781,0.0*
1,1,0.0,-.19675,.340781*
20,1,0.0,-.19675,.340781,-.134585,.369769,0.0*
1,1,0.0,-.134585,.369769*
20,1,0.0,-.134585,.369769,-.068331,.387522,0.0*
1,1,0.0,-.068331,.387522*
20,1,0.0,-.068331,.387522,0.0,.3935,0.0*
1,1,0.0,0.0,.3935*
20,1,0.0,0.0,.3935,.068331,.387522,0.0*
1,1,0.0,.068331,.387522*
20,1,0.0,.068331,.387522,.134585,.369769,0.0*
1,1,0.0,.134585,.369769*
20,1,0.0,.134585,.369769,.19675,.340781,0.0*
1,1,0.0,.19675,.340781*
20,1,0.0,.19675,.340781,.252937,.301438,0.0*
1,1,0.0,.252937,.301438*
20,1,0.0,.252937,.301438,.301438,.252937,0.0*
1,1,0.0,.301438,.252937*
20,1,0.0,.301438,.252937,.340781,.19675,0.0*
1,1,0.0,.340781,.19675*
20,1,0.0,.340781,.19675,.369769,.134585,0.0*
1,1,0.0,.369769,.134585*
20,1,0.0,.369769,.134585,.387522,.068331,0.0*
1,1,0.0,.387522,.068331*
20,1,0.0,.387522,.068331,.3935,0.0,0.0*
1,1,0.0,.3935,0.0*
1,1,0.0,-.163,-.196*
20,1,0.0,-.163,-.196,0.0,.197,0.0*
1,1,0.0,0.0,.197*
20,1,0.0,0.0,.197,.164,-.196,0.0*
1,1,0.0,.164,-.196*
1,1,0.0,.105,-.058*
20,1,0.0,.105,-.058,-.104,-.058,0.0*
1,1,0.0,-.104,-.058*
%
%ADD11MACRO11*%
%ADD26C,.203*%
%ADD27C,.254*%
%ADD28C,.381*%
%ADD29C,.382*%
%ADD36C,1.122*%
%ADD37C,1.58*%
%ADD30C,1.834*%
%ADD46R,.766X1.401*%
%ADD45R,.894X1.401*%
%ADD41R,1.274X.766*%
%ADD43O,2.104X1.404*%
%ADD47R,1.58X1.58*%
%ADD48R,1.832X1.834*%
%ADD32R,1.834X1.832*%
%ADD39R,1.834X1.834*%
%ADD31R,2.086X2.086*%
%ADD40R,2.086X2.088*%
%ADD44R,1.58X1.578*%
%ADD42R,1.578X1.58*%
%ADD38R,1.578X1.578*%
%ADD35R,.766X.766*%
%ADD34R,.894X.766*%
%ADD33R,.766X.894*%
G75*
%LPD*%
G75*
G36*
G01X0Y0D02*
Y4508500D01*
X10985500D01*
Y1258400D01*
G02Y1258300I-10204J-50D01*
G01Y1158700D01*
G02Y1158600I-10204J-50D01*
G01Y238400D01*
G02Y238300I-10204J-50D01*
G01Y138700D01*
G02Y138600I-10204J-50D01*
G01Y0D01*
X0D01*
G37*
%LPC*%
G75*
G36*
G01X9080700Y4374100D02*
G02X9024400Y4317800I-200J-56100D01*
G01Y4318800D01*
G02X9079700Y4374100I56100J-800D01*
G01X9080700D01*
G37*
G36*
G01X5870900Y3977000D02*
G02X5755000Y4092900I-28900J87000D01*
G01X5755700Y4095000D01*
G02X5811000Y4150300I86300J-31000D01*
G01X5813100Y4151000D01*
G02X5929000Y4035100I28900J-87000D01*
G01X5928300Y4033000D01*
G02X5873000Y3977700I-86300J31000D01*
G01X5870900Y3977000D01*
G37*
G36*
G01X6941300Y4025700D02*
G02Y4102300I-83300J38300D01*
G02Y4025700I-83300J-38300D01*
G37*
G36*
G01X9361300Y4016200D02*
G02X9187700Y4038800I-90319J-15733D01*
G02X9361300Y4016200I83273J-38394D01*
G37*
G36*
G01X9118800Y3898700D02*
X9042200D01*
Y3975300D01*
X9100000D01*
X9118800Y3994100D01*
Y3898700D01*
G37*
G36*
G01X1302700Y3960000D02*
G02X1131800Y4073400I-96222J40466D01*
G02X1303500Y3962000I74626J-73000D01*
G01X1302700Y3960000D01*
G37*
G36*
G01X1048700D02*
G02X877800Y4073400I-96222J40466D01*
G02X1049500Y3962000I74626J-73000D01*
G01X1048700Y3960000D01*
G37*
G36*
G01X736800Y3903400D02*
G02X660200I-38300J97100D01*
G02X736800I38300J97100D01*
G37*
G36*
G01X8293300Y3853700D02*
G02X8216700I-38300J83300D01*
G02X8293300I38300J83300D01*
G37*
G36*
G01X4718800Y3835200D02*
G02Y3911800I-83300J38300D01*
G02Y3835200I-83300J-38300D01*
G37*
G36*
G01X3657800Y3790200D02*
G02X3581200I-38300J83300D01*
G02X3657800I38300J83300D01*
G37*
G36*
G01X7204500Y3771700D02*
X6080100D01*
X6073600Y3778200D01*
X6080100Y3784800D01*
X7191400D01*
X7204500Y3771700D01*
G37*
G36*
G01X1793900D02*
X1685500D01*
X1762100Y3848300D01*
X1870500D01*
X1793900Y3771700D01*
G37*
G36*
G01X3902500Y3517700D02*
X3794100D01*
X3717500Y3594300D01*
X3825900D01*
X3902500Y3517700D01*
G37*
G36*
G01X5689800Y3571900D02*
Y3463500D01*
X5613200Y3540100D01*
Y3648500D01*
X5689800Y3571900D01*
G37*
G36*
G01X7467800Y3442800D02*
X7425000D01*
X7391200Y3476600D01*
Y3585000D01*
X7456800Y3519400D01*
X7467800D01*
Y3442800D01*
G37*
G36*
G01X5929000Y3521400D02*
G02X5758700Y3454200I-87051J-28784D01*
G02Y3530800I83300J38300D01*
G02X5870900Y3579500I83298J-38311D01*
G01X5873000Y3578800D01*
G02X5928300Y3523500I-31000J-86300D01*
G01X5929000Y3521400D01*
G37*
G36*
G01X6878300Y3403100D02*
G02X6787200Y3550700I-20257J89411D01*
G02X6941300Y3530800I70818J-58212D01*
G02Y3454200I-83288J-38300D01*
G02X6878700Y3403200I-83288J38313D01*
G03X6878300Y3403100I2278J-9963D01*
G37*
G36*
G01X8882600Y3364700D02*
G02X8821400Y3309600I-56109J783D01*
G01X8819400Y3309900D01*
G02X8805100Y3417400I7093J55645D01*
G02X8881500Y3376700I21401J-51884D01*
G02X8882600Y3365700I-54992J-11054D01*
G01Y3364700D01*
G37*
G36*
G01X2686800Y3200200D02*
G02Y3276800I-83300J38300D01*
G02Y3200200I-83300J-38300D01*
G37*
G36*
G01X1504200Y3276800D02*
G02Y3200200I83300J-38300D01*
G02Y3276800I83300J38300D01*
G37*
G36*
G01X4229300Y3144300D02*
X4152700D01*
Y3159100D01*
X4033300Y3278500D01*
Y3386900D01*
X4109900Y3310300D01*
Y3268300D01*
X4157300Y3220900D01*
X4199300D01*
X4229300Y3190900D01*
Y3144300D01*
G37*
G36*
G01X8347500Y3136700D02*
X8239100D01*
X8216700Y3159100D01*
Y3213300D01*
X8293300D01*
Y3190900D01*
X8347500Y3136700D01*
G37*
G36*
G01X8806400Y3210500D02*
G02X8741900Y3123000I-43428J-35510D01*
G01X8740600Y3123600D01*
G02X8722000Y3213300I22361J51415D01*
G02X8758800Y3230900I40944J-38337D01*
G02X8805800Y3211200I4198J-55901D01*
G03X8806400Y3210500I8055J6297D01*
G37*
G36*
G01X5929000Y2949900D02*
G02X5870900Y3008000I-87000J-28900D01*
G01X5872200Y3007600D01*
G02X5928600Y2951200I-30200J-86600D01*
G01X5929000Y2949900D01*
G37*
G36*
G01X7150300Y2968600D02*
X7010200Y2828500D01*
Y2841600D01*
X6969100Y2882700D01*
X6941300D01*
G02X6878700Y2831700I-83288J38313D01*
G03X6878300Y2831600I2278J-9963D01*
G02X6947400Y2900700I-20300J89400D01*
G03X6964600Y2891200I9961J-2285D01*
G01X7016800Y2943400D01*
X7056300Y2903900D01*
G03X7073700Y2911100I7212J7197D01*
G01Y3000300D01*
X7150300Y3077000D01*
Y2968600D01*
G37*
G36*
G01X4419800Y2905100D02*
X4343200Y2828500D01*
Y2936900D01*
X4419800Y3013500D01*
Y2905100D01*
G37*
G36*
G01X4041500Y2791300D02*
G02X3969700Y2782600I-41058J38216D01*
G01X3981100D01*
G02X3983200Y2783700I18832J-33398D01*
G03X3983100Y2792800I-2325J4525D01*
G02X3976700Y2796600I17491J36748D01*
G01X3955000D01*
G02X3955100Y2862600I45422J32931D01*
G01X3976700D01*
G02X3984000Y2866800I23835J-32983D01*
G01X3987000Y2868100D01*
Y2876600D01*
X3962600D01*
G03X3959900Y2882300I-10125J-1307D01*
G02X3948600Y2942600I40521J38802D01*
G01X3966000D01*
G02X4035000I34500J-21600D01*
G01X4066600D01*
G02X4089200Y2885500I-47J-33041D01*
G03X4096200Y2867900I6993J-7411D01*
G01X4098900D01*
X4152700Y2921700D01*
Y2959300D01*
X4194200D01*
X4229300Y2924200D01*
Y2889900D01*
X4130600Y2791300D01*
X4041500D01*
G37*
G36*
G01X10517500Y2828600D02*
G02X10575600Y2770500I87000J28900D01*
G01X10573500Y2771200D01*
G02X10518200Y2826500I31000J86300D01*
G01X10517500Y2828600D01*
G37*
G36*
G01X541600Y2819200D02*
G02Y2895800I-97100J38300D01*
G02Y2819200I-97100J-38300D01*
G37*
G36*
G01X2686800Y2755700D02*
G02Y2832300I-83300J38300D01*
G02Y2755700I-83300J-38300D01*
G37*
G36*
G01X1504200Y2832300D02*
G02Y2755700I83300J-38300D01*
G02Y2832300I83300J38300D01*
G37*
G36*
G01X4292800Y2631200D02*
X4152700D01*
Y2768800D01*
X4175100D01*
X4279900Y2873600D01*
X4292800Y2860700D01*
Y2778100D01*
X4239900Y2725200D01*
G03X4247100Y2707800I7197J-7212D01*
G01X4292800D01*
Y2631200D01*
G37*
G36*
G01X5222900Y2628700D02*
X4876100D01*
X4873600Y2631200D01*
X4375800D01*
X4343200Y2663800D01*
Y2707800D01*
X4419800D01*
Y2695600D01*
X4473600Y2641800D01*
X5236000D01*
X5222900Y2628700D01*
G37*
G36*
G01X9817300Y2583700D02*
G02X9740700I-38300J83300D01*
G02X9862300Y2705300I38300J83300D01*
G02Y2628700I-83300J-38300D01*
G02X9817300Y2583700I-83300J38300D01*
G37*
G36*
G01X5245000Y2565200D02*
X4882000D01*
X4901500Y2584700D01*
X5225500D01*
X5245000Y2565200D01*
G37*
G36*
G01X541600D02*
G02Y2641800I-97100J38300D01*
G02Y2565200I-97100J-38300D01*
G37*
G36*
G01X4498200Y2464800D02*
X4212000D01*
X4152700Y2524100D01*
Y2554200D01*
X4307200D01*
X4346600Y2514800D01*
X4448200D01*
X4498200Y2464800D01*
G37*
G36*
G01X7459400Y2578300D02*
G02Y2501700I97100J-38300D01*
G02Y2578300I97100J38300D01*
G37*
G36*
G01X6886900Y2326000D02*
G02X6945000Y2384100I-28900J87000D01*
G01X6944300Y2382000D01*
G02X6889000Y2326700I-86300J31000D01*
G01X6886900Y2326000D01*
G37*
G36*
G01X5929000Y2441900D02*
G02X5755000I-87000J-28900D01*
G01X5755700Y2444000D01*
G02X5811000Y2499300I86300J-31000D01*
G01X5813100Y2500000D01*
G02X5870900I28900J-87000D01*
G01X5873000Y2499300D01*
G02X5928300Y2444000I-31000J-86300D01*
G01X5929000Y2441900D01*
G37*
G36*
G01X2686800Y2311200D02*
G02Y2387800I-83300J38300D01*
G02Y2311200I-83300J-38300D01*
G37*
G36*
G01X1504200Y2387800D02*
G02Y2311200I83300J-38300D01*
G02Y2387800I83300J38300D01*
G37*
G36*
G01X541600Y2311200D02*
G02Y2387800I-97100J38300D01*
G02Y2311200I-97100J-38300D01*
G37*
G36*
G01X7459400Y2324300D02*
G02Y2247700I97100J-38300D01*
G02Y2324300I97100J38300D01*
G37*
G36*
G01X4972800Y2057200D02*
G02X4806200I-83300J38300D01*
G02Y2133800I83300J38300D01*
G02X4972800I83300J-38300D01*
G02Y2057200I-83300J-38300D01*
G37*
G36*
G01X7637400Y1966000D02*
G02X7475600I-80900J66000D01*
G03X7475400Y1966300I-8558J-5489D01*
G02X7637600I81100J65700D01*
G03X7637400Y1966000I8358J-5789D01*
G37*
G36*
G01X3341800Y1959900D02*
G02Y1870500I33900J-44700D01*
G01X3257400D01*
Y1959900D01*
X3341800D01*
G37*
G36*
G01X8655000Y1838900D02*
G02X8652200Y1825600I-33046J12D01*
G01X8617500Y1860300D01*
X8343700D01*
Y1905000D01*
G02X8349000Y1924400I38290J-37D01*
G01Y1949700D01*
X8415000D01*
Y1924400D01*
G02X8417300Y1919900I-32877J-19641D01*
G03X8426700I4700J1935D01*
G02X8429000Y1924400I35177J-15141D01*
G01Y1949700D01*
X8495000D01*
Y1924400D01*
G02X8497300Y1919900I-32877J-19641D01*
G03X8506700I4700J1935D01*
G02X8509000Y1924400I35177J-15141D01*
G01Y1949700D01*
X8575000D01*
Y1924400D01*
G02X8578900Y1915100I-33043J-19325D01*
G01X8580000Y1911400D01*
X8589000D01*
Y1949700D01*
X8654500D01*
X8655000Y1949200D01*
Y1838900D01*
G37*
G36*
G01X9862300Y1866700D02*
G02X9695700I-83300J38300D01*
G02Y1943300I83300J38300D01*
G02X9862300I83300J-38300D01*
G02Y1866700I-83300J-38300D01*
G37*
G36*
G01X5758700Y1943300D02*
G02Y1866700I83300J-38300D01*
G02Y1943300I83300J38300D01*
G37*
G36*
G01X2686800Y1866700D02*
G02Y1943300I-83300J38300D01*
G02Y1866700I-83300J-38300D01*
G37*
G36*
G01X1504200Y1943300D02*
G02Y1866700I83300J-38300D01*
G02Y1943300I83300J38300D01*
G37*
G36*
G01X6835800Y1994000D02*
G02X6769000Y1927200I22200J-89000D01*
G01X6769100Y1927700D01*
G02X6835300Y1993900I88900J-22700D01*
G01X6835800Y1994000D01*
G37*
G36*
G01X8735000Y1838900D02*
G02X8669000I-33000J50D01*
G01Y1935200D01*
X8735000Y1869200D01*
Y1838900D01*
G37*
G36*
G01X8795500Y1808700D02*
G02X8749000Y1838900I-13437J30209D01*
G01Y1855200D01*
X8795500Y1808700D01*
G37*
G36*
G01X4537500Y1739700D02*
X4530600D01*
X4432000Y1838300D01*
Y1845200D01*
X4537500Y1739700D01*
G37*
G36*
G01X10575600Y1865000D02*
G02X10517500Y1806900I28900J-87000D01*
G01X10518200Y1809000D01*
G02X10573500Y1864300I86300J-31000D01*
G01X10575600Y1865000D01*
G37*
G36*
G01X8899200Y1706300D02*
G02X8834700Y1641800I-9200J-55300D01*
G01X8834400Y1643400D01*
X8817400Y1660400D01*
Y1778100D01*
G02X8818100Y1786100I44728J117D01*
G01X8897600Y1706600D01*
X8899200Y1706300D01*
G37*
G36*
G01X591300Y1422200D02*
G02Y1498800I-83300J38300D01*
G02Y1422200I-83300J-38300D01*
G37*
G36*
G01X6941300Y1358700D02*
G02Y1435300I-83300J38300D01*
G02Y1358700I-83300J-38300D01*
G37*
G36*
G01X5758700Y1435300D02*
G02Y1358700I83300J-38300D01*
G02Y1435300I83300J38300D01*
G37*
G36*
G01X4864300Y1313700D02*
G02X4787700I-38300J83300D01*
G02X4739000Y1425900I38311J83298D01*
G01X4739700Y1428000D01*
G02X4795000Y1483300I86300J-31000D01*
G01X4797100Y1484000D01*
G02X4864300Y1313700I28784J-87051D01*
G37*
G36*
G01X4102300D02*
G02X4025700I-38300J83300D01*
G02X3977000Y1425900I38311J83298D01*
G01X3977700Y1428000D01*
G02X4033000Y1483300I86300J-31000D01*
G01X4035100Y1484000D01*
G02X4102300Y1313700I28784J-87051D01*
G37*
G36*
G01X8572700Y1213900D02*
X8571700D01*
G02X8516400Y1268100I780J56107D01*
G01Y1270200D01*
G02X8618600Y1301900I56087J-227D01*
G02X8583500Y1215000I-46148J-31899D01*
G02X8572700Y1213900I-11057J54996D01*
G37*
G36*
G01X8420300Y1444600D02*
Y987000D01*
X8407200Y1000100D01*
Y1508100D01*
X8391300Y1524000D01*
X8407200Y1539900D01*
Y1673500D01*
G02X8486500Y1676200I38300J41000D01*
G03X8486100Y1675800I7010J-7410D01*
G02X8428500Y1661000I-40641J38684D01*
G03X8415200Y1651300I-3115J-9697D01*
G01Y1608500D01*
X8483800Y1539900D01*
Y1508100D01*
X8420300Y1444600D01*
G37*
G36*
G01X8547300Y914200D02*
X8493100D01*
X8470700Y936600D01*
Y1222400D01*
X8483800Y1235500D01*
Y1031900D01*
X8524900Y990800D01*
X8547300D01*
Y914200D01*
G37*
G36*
G01X8616200Y990800D02*
G02Y914200I83300J-38300D01*
G02Y990800I83300J38300D01*
G37*
G36*
G01X9737700Y863500D02*
G02X9804500Y930300I-22200J89000D01*
G01X9804400Y929800D01*
G02X9738200Y863600I-88900J22700D01*
G01X9737700Y863500D01*
G37*
G36*
G01X6941300Y850700D02*
G02Y927300I-83300J38300D01*
G02Y850700I-83300J-38300D01*
G37*
G36*
G01X5758700Y927300D02*
G02Y850700I83300J-38300D01*
G02Y927300I83300J38300D01*
G37*
G36*
G01X10175900Y596700D02*
X10067500D01*
X10207600Y736800D01*
X10392300D01*
Y800300D01*
X10436500D01*
G02Y723700I41000J-38300D01*
G01X10302900D01*
X10175900Y596700D01*
G37*
G36*
G01X4864300Y591300D02*
G02X4787700I-38300J-83300D01*
G02X4864300I38300J-83300D01*
G37*
G36*
G01X4102300D02*
G02X4025700I-38300J-83300D01*
G02X4102300I38300J-83300D01*
G37*
G36*
G01X2250600Y352800D02*
X2067400D01*
Y536200D01*
X2114300D01*
Y679400D01*
X2203700Y590000D01*
Y536200D01*
X2250600D01*
Y352800D01*
G37*
G36*
G01X8728400Y167000D02*
G02X8786500Y225100I-28900J87000D01*
G01X8785800Y223000D01*
G02X8730500Y167700I-86300J31000D01*
G01X8728400Y167000D01*
G37*
G54D36*
X8942100Y3481100D03*
X9080500Y3175000D03*
X8509000Y508000D03*
X8382000Y190500D03*
G54D37*
X4889500Y3238500D03*
X2413000Y444500D03*
X1524000D03*
X381000D03*
G54D30*
X10287000Y4000500D03*
X444500D03*
Y2095500D03*
X7556500Y1778000D03*
X9715500Y254000D03*
G54D46*
X8509000Y666750D03*
X8382000D03*
G54D45*
X9906000D03*
G54D41*
X4495700Y2095500D03*
G54D43*
X10858500Y1208500D03*
X10488500D03*
X10858500Y188500D03*
X10488500D03*
G54D47*
X5080000Y508000D03*
X3810000D03*
G54D48*
X1270000Y444500D03*
X635000D03*
G54D32*
X8572500Y3937000D03*
G54D39*
X4889500Y2984500D03*
G54D31*
X1460500Y4000500D03*
X444500Y3111500D03*
G54D40*
X7556500Y2794000D03*
G54D44*
X508000Y1206500D03*
G54D42*
X10604500Y2032000D03*
G54D38*
Y3111500D03*
X4889500Y2349500D03*
G54D35*
X8255000Y3481100D03*
Y3365500D03*
X7429500D03*
X7112000D03*
X7429500Y3175000D03*
X8382000Y317500D03*
G54D34*
X8636000Y3481100D03*
Y3365500D03*
Y3175000D03*
G54D33*
X9080500Y3746500D03*
X3150900Y1915200D03*
X7937500Y1905000D03*
%LPD*%
G75*
G36*
G01X4465400Y2319800D02*
X4364400Y2420800D01*
G02X4371600Y2438200I7197J7212D01*
G01X4416400D01*
X4482800Y2371800D01*
Y2327000D01*
G02X4465400Y2319800I-10188J-3D01*
G37*
G54D10*
X202900Y-1283600D03*
X635000Y444500D03*
X2159000D03*
X3375700Y1915200D03*
X3150900Y2909600D03*
X3775700Y2204700D03*
X4000500Y3047900D03*
Y3048000D03*
Y2829600D03*
Y2921000D03*
X3492500Y3683000D03*
X5842000Y889000D03*
X7556500Y1778000D03*
X8699500Y254000D03*
X8382000Y190500D03*
X8509000Y508000D03*
X8572500Y1270000D03*
X8445500Y1714500D03*
X8572500Y2286000D03*
X8763000Y3175000D03*
X8542000Y2754600D03*
X8890000Y1651000D03*
X8953500Y1905000D03*
X8826500Y3365500D03*
X9080500Y3175000D03*
X8942100Y3481100D03*
X9080500Y4318000D03*
X9715500Y254000D03*
X10477500Y762000D03*
G54D11*
X202900Y-1474200D03*
X381000Y444500D03*
X635000D03*
X508000Y1206500D03*
Y1460500D03*
X1270000Y444500D03*
X1524000D03*
X1587500Y1905000D03*
Y2349500D03*
Y3238500D03*
Y2794000D03*
X2159000Y444500D03*
X2413000D03*
X2603500Y1905000D03*
Y2349500D03*
Y3238500D03*
Y2794000D03*
X3810000Y508000D03*
X4064000D03*
Y1397000D03*
X3619500Y3873500D03*
X4826000Y508000D03*
Y1397000D03*
X4889500Y2349500D03*
Y2095500D03*
Y2984500D03*
Y3238500D03*
X4635500Y3873500D03*
X5080000Y508000D03*
X5842000Y889000D03*
Y1905000D03*
Y1397000D03*
Y2413000D03*
Y2921000D03*
Y3492500D03*
Y4064000D03*
X6858000Y889000D03*
Y1905000D03*
Y1397000D03*
Y2413000D03*
Y2921000D03*
Y3492500D03*
Y4064000D03*
X8699500Y254000D03*
Y952500D03*
X8572500Y3937000D03*
X8255000D03*
X9271000Y4000500D03*
X9715500Y254000D03*
Y952500D03*
X9779000Y1905000D03*
Y2667000D03*
X10287000Y4000500D03*
X10604500Y1778000D03*
Y2032000D03*
Y3111500D03*
Y2857500D03*
G54D20*
X3295700Y2204700D03*
X3375700D03*
Y3054300D03*
X3295700D03*
X3455700Y2204700D03*
X3535700D03*
X3615700D03*
X3775700D03*
X3855700D03*
Y3054300D03*
X3695700D03*
X3615700D03*
X3535700D03*
X3455700D03*
X8462000Y1905000D03*
X8542000D03*
X8622000D03*
X8702000D03*
X8622000Y2754600D03*
X8542000D03*
X8462000D03*
X8382000D03*
X8782000Y1905000D03*
X8862100D03*
X8942100D03*
Y2754600D03*
X8862100D03*
X8782000D03*
G54D12*
X202900Y-1664600D03*
X444500Y2095500D03*
Y2349500D03*
Y2603500D03*
Y2857500D03*
Y3111500D03*
Y4000500D03*
X698500D03*
X952500D03*
X1206500D03*
X1460500D03*
X7556500Y1778000D03*
Y2032000D03*
Y2286000D03*
Y2540000D03*
Y2794000D03*
G54D21*
X3150900Y2669500D03*
X4000500Y2349500D03*
X8237200Y2209800D03*
X9086800Y2129800D03*
G54D22*
X3695700Y2204700D03*
X3775700Y3054300D03*
X8382000Y1905000D03*
X8702000Y2754600D03*
G54D13*
X202900Y-1855200D03*
X10858500Y188500D03*
X10488500D03*
X10858500Y1208500D03*
X10488500D03*
G54D23*
X10858500Y188500D03*
D03*
X10488500D03*
D03*
X10858500Y1208500D03*
D03*
X10488500D03*
D03*
G54D14*
X381000Y444500D03*
D03*
X508000Y1460500D03*
D03*
X1524000Y444500D03*
D03*
X1587500Y1905000D03*
D03*
Y2349500D03*
D03*
Y3238500D03*
D03*
Y2794000D03*
D03*
X2413000Y444500D03*
D03*
X2603500Y1905000D03*
D03*
Y2349500D03*
D03*
Y3238500D03*
D03*
Y2794000D03*
D03*
X4064000Y508000D03*
D03*
Y1397000D03*
D03*
X3619500Y3873500D03*
D03*
X4826000Y508000D03*
D03*
Y1397000D03*
D03*
X4889500Y2095500D03*
D03*
Y3238500D03*
D03*
X4635500Y3873500D03*
D03*
X5842000Y889000D03*
D03*
Y1905000D03*
D03*
Y1397000D03*
D03*
Y2413000D03*
D03*
Y2921000D03*
D03*
Y3492500D03*
D03*
Y4064000D03*
D03*
X6858000Y889000D03*
D03*
Y1905000D03*
D03*
Y1397000D03*
D03*
Y2413000D03*
D03*
Y2921000D03*
D03*
Y3492500D03*
D03*
Y4064000D03*
D03*
X8699500Y254000D03*
D03*
Y952500D03*
D03*
X8255000Y3937000D03*
D03*
X9271000Y4000500D03*
D03*
X9715500Y254000D03*
D03*
Y952500D03*
D03*
X9779000Y1905000D03*
D03*
Y2667000D03*
D03*
X10287000Y4000500D03*
D03*
X10604500Y1778000D03*
D03*
Y2857500D03*
D03*
G54D15*
X635000Y444500D03*
D03*
X508000Y1206500D03*
D03*
X1270000Y444500D03*
D03*
X2159000D03*
D03*
X3810000Y508000D03*
D03*
X4889500Y2349500D03*
D03*
Y2984500D03*
D03*
X5080000Y508000D03*
D03*
X8572500Y3937000D03*
D03*
X10604500Y2032000D03*
D03*
Y3111500D03*
D03*
G54D24*
X10488500Y828500D03*
Y763500D03*
Y698500D03*
Y633500D03*
Y568500D03*
G54D16*
X635000Y444500D03*
D03*
X2159000D03*
D03*
X3375700Y1915200D03*
D03*
X3150900Y2909600D03*
D03*
X3775700Y2204700D03*
D03*
X4000500Y3047900D03*
D03*
Y3048000D03*
D03*
Y2829600D03*
D03*
Y2921000D03*
D03*
X3492500Y3683000D03*
D03*
X5842000Y889000D03*
D03*
X7556500Y1778000D03*
D03*
X8699500Y254000D03*
D03*
X8382000Y190500D03*
D03*
X8509000Y508000D03*
D03*
X8572500Y1270000D03*
D03*
X8445500Y1714500D03*
D03*
X8572500Y2286000D03*
D03*
X8763000Y3175000D03*
D03*
X8542000Y2754600D03*
D03*
X8890000Y1651000D03*
D03*
X8953500Y1905000D03*
D03*
X8826500Y3365500D03*
D03*
X9080500Y3175000D03*
D03*
X8942100Y3481100D03*
D03*
X9080500Y4318000D03*
D03*
X9715500Y254000D03*
D03*
X10477500Y762000D03*
D03*
G54D25*
X10488500Y918500D03*
Y478500D03*
G54D26*
G01X793700Y444500D02*
G02I-285700J0D01*
G01Y1333500D02*
G02I-285700J0D01*
G01X571500Y1955800D02*
X317500D01*
G01Y2603500D02*
Y2857500D01*
G01Y2349500D02*
Y2603500D01*
G01Y2095500D02*
Y2349500D01*
G01Y1955800D02*
Y2095500D01*
G01Y3251200D02*
X571500D01*
G01X317500Y3111500D02*
Y3251200D01*
G01Y2857500D02*
Y3111500D01*
G01X304800Y3873500D02*
Y4127500D01*
G01X1600200Y3873500D02*
X304800D01*
G01Y4127500D02*
X444500D01*
G01X571500Y3251200D02*
Y1955800D01*
G01X952500Y4127500D02*
X1206500D01*
G01X698500D02*
X952500D01*
G01X444500D02*
X698500D01*
G01X1682700Y444500D02*
G02I-285700J0D01*
G01X2413000Y1778000D02*
X1778000D01*
G01D02*
Y1905000D01*
G01D02*
X1714500D01*
G01X1778000D02*
Y2032000D01*
G01D02*
X2413000D01*
G01X1778000Y2349500D02*
X1714500D01*
G01X2413000Y2222500D02*
X1778000D01*
G01D02*
Y2349500D01*
G01D02*
Y2476500D01*
G01D02*
X2413000D01*
G01X1778000Y3238500D02*
X1714500D01*
G01X2413000Y3111500D02*
X1778000D01*
G01D02*
Y3238500D01*
G01D02*
Y3365500D01*
G01D02*
X2413000D01*
G01X1778000Y2794000D02*
X1714500D01*
G01X2413000Y2667000D02*
X1778000D01*
G01D02*
Y2794000D01*
G01D02*
Y2921000D01*
G01D02*
X2413000D01*
G01X1600200Y4127500D02*
Y3873500D01*
G01X1460500Y4127500D02*
X1600200D01*
G01X1206500D02*
X1460500D01*
G01X2571700Y444500D02*
G02I-285700J0D01*
G01X2413000Y1905000D02*
Y1778000D01*
G01Y1905000D02*
X2476500D01*
G01X2413000Y2032000D02*
Y1905000D01*
G01Y2349500D02*
X2476500D01*
G01X2413000Y2476500D02*
Y2349500D01*
G01D02*
Y2222500D01*
G01Y3238500D02*
X2476500D01*
G01X2413000Y3365500D02*
Y3238500D01*
G01D02*
Y3111500D01*
G01Y2794000D02*
X2476500D01*
G01X2413000Y2921000D02*
Y2794000D01*
G01D02*
Y2667000D01*
G01X4222700Y508000D02*
G02I-285700J0D01*
G01X3873500Y1651000D02*
X5016500D01*
G01Y1143000D02*
X3873500D01*
G01D02*
Y1651000D01*
G01X3810000Y3873500D02*
X3746500D01*
G01X3810000Y3746500D02*
Y3873500D01*
G01D02*
Y4000500D01*
G01D02*
X4445000D01*
G01Y3746500D02*
X3810000D01*
G01X5238700Y508000D02*
G02I-285700J0D01*
G01X5175200Y2222500D02*
G02I-285700J0D01*
G01Y3111500D02*
G02I-285700J0D01*
G01X4445000Y3873500D02*
X4508500D01*
G01X4445000Y4000500D02*
Y3873500D01*
G01D02*
Y3746500D01*
G01X5016500Y1651000D02*
Y1143000D01*
G01X6032500Y889000D02*
X5969000D01*
G01X6667500Y762000D02*
X6032500D01*
G01D02*
Y889000D01*
G01D02*
Y1016000D01*
G01D02*
X6667500D01*
G01X6032500Y1778000D02*
Y1905000D01*
G01X6667500Y1778000D02*
X6032500D01*
G01Y1397000D02*
X5969000D01*
G01X6667500Y1270000D02*
X6032500D01*
G01D02*
Y1397000D01*
G01D02*
Y1524000D01*
G01D02*
X6667500D01*
G01X6032500Y1905000D02*
X5969000D01*
G01X6032500D02*
Y2032000D01*
G01D02*
X6667500D01*
G01X6032500Y2413000D02*
X5969000D01*
G01X6032500Y2286000D02*
Y2413000D01*
G01D02*
Y2540000D01*
G01D02*
X6667500D01*
G01Y2286000D02*
X6032500D01*
G01Y3365500D02*
Y3492500D01*
G01X6667500Y3365500D02*
X6032500D01*
G01Y2921000D02*
X5969000D01*
G01X6032500Y2794000D02*
Y2921000D01*
G01D02*
Y3048000D01*
G01D02*
X6667500D01*
G01Y2794000D02*
X6032500D01*
G01Y3492500D02*
X5969000D01*
G01X6032500D02*
Y3619500D01*
G01D02*
X6667500D01*
G01X6032500Y4064000D02*
X5969000D01*
G01X6667500Y3937000D02*
X6032500D01*
G01D02*
Y4064000D01*
G01D02*
Y4191000D01*
G01D02*
X6667500D01*
G01Y889000D02*
X6731000D01*
G01X6667500Y1016000D02*
Y889000D01*
G01D02*
Y762000D01*
G01Y1905000D02*
Y1778000D01*
G01Y1397000D02*
X6731000D01*
G01X6667500Y1524000D02*
Y1397000D01*
G01D02*
Y1270000D01*
G01Y1905000D02*
X6731000D01*
G01X6667500Y2032000D02*
Y1905000D01*
G01Y2413000D02*
X6731000D01*
G01X6667500Y2540000D02*
Y2413000D01*
G01D02*
Y2286000D01*
G01Y3492500D02*
Y3365500D01*
G01Y2921000D02*
X6731000D01*
G01X6667500Y3048000D02*
Y2921000D01*
G01D02*
Y2794000D01*
G01Y3492500D02*
X6731000D01*
G01X6667500Y3619500D02*
Y3492500D01*
G01Y4064000D02*
X6731000D01*
G01X6667500Y4191000D02*
Y4064000D01*
G01D02*
Y3937000D01*
G01X7683500Y1638300D02*
X7429500D01*
G01X7683500Y2933700D02*
Y1638300D01*
G01X7429500Y1778000D02*
Y2032000D01*
G01Y1638300D02*
Y1778000D01*
G01Y2540000D02*
Y2794000D01*
G01Y2286000D02*
Y2540000D01*
G01Y2032000D02*
Y2286000D01*
G01Y2933700D02*
X7683500D01*
G01X7429500Y2794000D02*
Y2933700D01*
G01X8731200Y3937000D02*
G02X8413800Y3619500I-317400J-100D01*
G02Y4254500I0J317500D01*
G02X8731200Y3937000I0J-317400D01*
G01X8890000Y254000D02*
X8826500D01*
G01X8890000Y127000D02*
Y254000D01*
G01D02*
Y381000D01*
G01X9525000Y127000D02*
X8890000D01*
G01Y381000D02*
X9525000D01*
G01X8890000Y952500D02*
X8826500D01*
G01X9525000Y825500D02*
X8890000D01*
G01D02*
Y952500D01*
G01D02*
Y1079500D01*
G01D02*
X9525000D01*
G01X9461500Y4000500D02*
X9398000D01*
G01X9461500Y3873500D02*
Y4000500D01*
G01D02*
Y4127500D01*
G01D02*
X10096500D01*
G01Y3873500D02*
X9461500D01*
G01X9525000Y254000D02*
X9588500D01*
G01X9525000Y381000D02*
Y254000D01*
G01D02*
Y127000D01*
G01Y952500D02*
X9588500D01*
G01X9525000Y1079500D02*
Y952500D01*
G01D02*
Y825500D01*
G01Y1714500D02*
Y2857500D01*
G01X10033000D02*
Y1714500D01*
G01D02*
X9525000D01*
G01Y2857500D02*
X10033000D01*
G01X10096500Y4000500D02*
X10160000D01*
G01X10096500Y4127500D02*
Y4000500D01*
G01D02*
Y3873500D01*
G01X10890200Y1905000D02*
G02I-285700J0D01*
G01Y2984500D02*
G02I-285700J0D01*
G54D17*
X444500Y2095500D03*
D03*
Y2349500D03*
D03*
Y2603500D03*
D03*
Y2857500D03*
D03*
Y4000500D03*
D03*
X698500D03*
D03*
X952500D03*
D03*
X1206500D03*
D03*
X7556500Y1778000D03*
D03*
Y2032000D03*
D03*
Y2286000D03*
D03*
Y2540000D03*
D03*
G54D27*
G01X508000Y1460500D02*
X685800D01*
X762000Y1536700D01*
Y1905000D01*
G01D02*
X1587500D01*
G01X762000D02*
Y2286000D01*
X698500Y2349500D01*
X444500D01*
G01X1587500D02*
X1079500D01*
X825500Y2603500D01*
X444500D01*
G01X1587500Y3238500D02*
X1079500D01*
X952500Y3111500D01*
X444500D01*
G01X1587500Y2794000D02*
X1016000D01*
X952500Y2857500D01*
X444500D01*
G01X5842000Y2921000D02*
X5715000D01*
X5651500Y2984500D01*
Y3810000D01*
X5207000Y4254500D01*
X2222500D01*
X1651000Y3683000D01*
X1270000D01*
X952500Y4000500D01*
G01X698500D02*
Y3873500D01*
X1016000Y3556000D01*
X4064000D01*
X4071600Y3548400D01*
Y3252400D01*
X4141400Y3182600D01*
X4352400D01*
X4381500Y3153500D01*
Y2679700D01*
X4457700Y2603500D01*
X5651500D01*
X5842000Y2413000D01*
G01Y3492500D02*
X5715000D01*
X5080000Y4127500D01*
X3556000D01*
X3238500Y3810000D01*
X1397000D01*
X1206500Y4000500D01*
G01X5842000Y4064000D02*
X5524500Y4381500D01*
X1968500D01*
X1587500Y4000500D01*
X1460500D01*
G01X3150900Y2589500D02*
X3046700D01*
X2921000Y2463800D01*
Y1981200D01*
X2844800Y1905000D01*
X2603500D01*
G01X3150900Y2669500D02*
X3036600D01*
X3034100Y2667000D01*
X2921000D01*
X2794000Y2540000D01*
Y2425700D01*
X2717800Y2349500D01*
X2603500D01*
G01X3150900Y2749500D02*
X2838500D01*
X2794000Y2794000D01*
X2603500D01*
G01X3150900Y2829600D02*
X3012400D01*
X2921000Y2921000D01*
Y3111500D01*
X2794000Y3238500D01*
X2603500D01*
G01X8509000Y508000D02*
Y342900D01*
X8483600Y317500D01*
X3321100D01*
X3295700Y342900D01*
Y2204700D01*
G01X8382000Y190500D02*
X3238500D01*
X3150900Y278100D01*
Y2349500D01*
G01X4064000Y1397000D02*
Y508000D01*
G01X4826000Y1397000D02*
X4381500Y1841500D01*
X3556000D01*
X3535700Y1861800D01*
Y2204700D01*
G01X4064000Y1397000D02*
X3746500Y1714500D01*
X3492500D01*
X3455700Y1751300D01*
Y2204700D01*
G01X3695700D02*
X3683000Y2192000D01*
Y2108200D01*
X3759200Y2032000D01*
X3937000D01*
X4000500Y2095500D01*
X4889500D01*
G01X3873500Y3302000D02*
X3937000Y3238500D01*
Y3175000D01*
X4000500Y3111500D01*
Y3048000D01*
G01Y3047900D02*
Y3048000D01*
G01Y2829600D02*
X4155400D01*
X4191000Y2794000D01*
Y2540000D01*
X4470300Y2260700D01*
Y1854200D01*
X4546500Y1778000D01*
X4826000D01*
X5715000Y889000D01*
X5842000D01*
G01X4000500Y2829600D02*
X4114800D01*
X4191000Y2905800D01*
Y3175000D01*
X3619500Y3746500D01*
Y3873500D01*
G01X5842000Y1397000D02*
X5334000D01*
X4889500Y1841500D01*
X4584700D01*
X4521100Y1905100D01*
Y2387700D01*
X4432300Y2476500D01*
X4330700D01*
X4254500Y2552700D01*
Y2844800D01*
X4178300Y2921000D01*
X4000500D01*
G01Y2749500D02*
X4114800D01*
X4133800Y2730500D01*
X4191000D01*
X4445000Y2984500D01*
X4889500D01*
G01X4000500Y2669500D02*
X4889500D01*
X4892000Y2667000D01*
X5207000D01*
X5270500Y2730500D01*
Y3746500D01*
X5143500Y3873500D01*
X4635500D01*
G01X4826000Y1397000D02*
Y508000D01*
G01X4889500Y2095500D02*
X5397500D01*
X5588000Y1905000D01*
X5842000D01*
G01Y2413000D02*
X6096000Y2667000D01*
X6794500D01*
X7302500Y3175000D01*
X8763000D01*
G01X5842000Y2921000D02*
X6096000Y3175000D01*
X6731000D01*
X6921500Y3365500D01*
X8826500D01*
G01X5842000Y3492500D02*
X6096000Y3746500D01*
X7175500D01*
X7440900Y3481100D01*
X8942100D01*
G01X7556500Y2794000D02*
X7429500Y2921000D01*
Y3746500D01*
X7366000Y3810000D01*
X6096000D01*
X5842000Y4064000D01*
G01X10488500Y633500D02*
X10377100D01*
X10375600Y635000D01*
X8191500D01*
X7937500Y889000D01*
X6858000D01*
G01X10488500Y698500D02*
X8318500D01*
X7620000Y1397000D01*
X6858000D01*
G01X7556500Y2286000D02*
X7366000D01*
X7048500Y2603500D01*
Y2857500D01*
X6985000Y2921000D01*
X6858000D01*
G01X7556500Y2032000D02*
X7239000D01*
X6858000Y2413000D01*
G01X7556500Y2540000D02*
X7366000D01*
X7112000Y2794000D01*
Y3429000D01*
X7048500Y3492500D01*
X6858000D01*
G01X9080500Y4318000D02*
X9017000Y4381500D01*
X8064500D01*
X7747000Y4064000D01*
X6858000D01*
G01X8388300Y1581200D02*
X8013700D01*
X7937500Y1657400D01*
Y2540000D01*
X7683500Y2794000D01*
X7556500D01*
G01X8382000Y190500D02*
Y1460500D01*
X8445500Y1524000D01*
Y1714500D01*
G01X10477500Y762000D02*
X10287000D01*
X9969500Y444500D01*
Y139700D01*
X9893300Y63500D01*
X8890000D01*
X8699500Y254000D01*
G01X8509000Y508000D02*
Y1206500D01*
X8572500Y1270000D01*
G01X8699500Y952500D02*
X8509000D01*
X8445500Y1016000D01*
Y1524000D01*
X8388300Y1581200D01*
G01X8312700Y1837700D02*
Y1980400D01*
G01X8572500Y1270000D02*
Y1341100D01*
X8542000Y1371600D01*
Y1905000D01*
G01X8462000D02*
Y1731000D01*
X8445500Y1714500D01*
G01X8388300Y1581200D02*
X8376900Y1592600D01*
Y1772800D01*
X8382000Y1777900D01*
Y1905000D01*
G01X8462000Y2754600D02*
Y2932400D01*
X8445500Y2948900D01*
Y2984500D01*
X8255000Y3175000D01*
Y3937000D01*
G01X8572500D02*
X9115900D01*
X9179400Y4000500D01*
X9271000D01*
G01X8862100Y1905000D02*
Y1778000D01*
G01X8942100Y1798100D02*
Y1905000D01*
G01D02*
Y2011900D01*
G01X9086800Y2049800D02*
X9442400D01*
X9460200Y2032000D01*
X9525000D01*
X9652000Y1905000D01*
X9779000D01*
G01X9086800Y2129800D02*
X9368800D01*
X9779000Y2540000D01*
Y2667000D01*
G01X9080500Y3175000D02*
Y2664400D01*
X9086800Y2658100D01*
Y2609800D01*
G01X8942100Y2754600D02*
Y3481100D01*
G01X8862100Y2754600D02*
Y3329900D01*
X8826500Y3365500D01*
G01X8782000Y2754600D02*
Y3156000D01*
X8763000Y3175000D01*
G01X9080500Y4318000D02*
Y3175000D01*
G01X9779000Y1905000D02*
X10477500D01*
X10604500Y1778000D01*
G01X9779000Y2667000D02*
X10414000D01*
X10604500Y2857500D01*
G01X10488500Y568500D02*
X10655300D01*
G01D02*
X10731500Y644700D01*
Y1333500D01*
G54D18*
X444500Y3111500D03*
D03*
X1460500Y4000500D03*
D03*
X7556500Y2794000D03*
D03*
G54D28*
G01X296900Y444500D02*
X381000D01*
G01X296900D02*
X381000D01*
G01X347700Y2095500D02*
X444500D01*
G01X347700Y4000500D02*
X444500D01*
G01X381000Y360400D02*
Y444500D01*
G01D02*
X465100D01*
G01X381000Y360400D02*
Y444500D01*
G01D02*
Y528600D01*
G01Y444500D02*
X465100D01*
G01X508000Y1206500D02*
Y1290600D01*
G01Y1206500D02*
X592100D01*
G01X508000Y1122400D02*
Y1206500D01*
G01D02*
Y1290600D01*
G01X423900Y1206500D02*
X508000D01*
G01D02*
X592100D01*
G01X444500Y1998700D02*
Y2095500D01*
G01D02*
Y2192300D01*
G01Y2095500D02*
X541300D01*
G01X444500Y1998700D02*
Y2095500D01*
G01D02*
Y2192300D01*
G01Y2095500D02*
X541300D01*
G01X444500Y3903700D02*
Y4000500D01*
G01D02*
Y4097300D01*
G01Y4000500D02*
X541300D01*
G01X444500Y3903700D02*
Y4000500D01*
G01D02*
Y4097300D01*
G01Y4000500D02*
X541300D01*
G01X2159000Y444500D02*
Y571500D01*
X2014600Y715900D01*
X1350900D01*
X1270000Y635000D01*
Y444500D01*
G01X1524000Y360400D02*
Y444500D01*
G01D02*
Y528600D01*
G01X1439900Y444500D02*
X1524000D01*
G01D02*
X1608100D01*
G01X1524000Y360400D02*
Y444500D01*
G01D02*
Y528600D01*
G01X1439900Y444500D02*
X1524000D01*
G01D02*
X1608100D01*
G01X2413000Y360400D02*
Y444500D01*
G01D02*
Y528600D01*
G01Y360400D02*
Y444500D01*
G01D02*
Y528600D01*
G01X2328900Y444500D02*
X2413000D01*
G01D02*
X2497100D01*
G01X3810000Y423900D02*
Y508000D01*
G01D02*
X3894100D01*
G01X3810000Y423900D02*
Y508000D01*
G01D02*
Y592100D01*
G01X3725900Y508000D02*
X3810000D01*
G01D02*
X3894100D01*
G01X3492500Y3683000D02*
X3873500Y3302000D01*
G01X3492500Y3683000D02*
X4699000D01*
X4889500Y3492500D01*
G01Y2265400D02*
Y2349500D01*
G01D02*
Y2433600D01*
G01Y2349500D02*
X4973600D01*
G01X4889500Y2265400D02*
Y2349500D01*
G01D02*
Y2433600D01*
G01X4805400Y2349500D02*
X4889500D01*
G01D02*
X4973600D01*
G01X4889500Y3492500D02*
Y3238500D01*
G01Y3154400D02*
Y3238500D01*
G01X4805400D02*
X4889500D01*
G01D02*
X4973600D01*
G01X4889500Y3154400D02*
Y3238500D01*
G01D02*
Y3322600D01*
G01X4805400Y3238500D02*
X4889500D01*
G01D02*
X4973600D01*
G01X6921500Y444500D02*
X5588000D01*
X5507100Y525400D01*
X5195300D01*
X5177900Y508000D01*
G01D02*
X5080000D01*
G01Y423900D02*
Y508000D01*
G01D02*
Y592100D01*
G01X4995900Y508000D02*
X5080000D01*
G01Y423900D02*
Y508000D01*
G01D02*
Y592100D01*
G01X4995900Y508000D02*
X5080000D01*
G01D02*
X5164100D01*
G01X6921500Y444500D02*
Y177800D01*
X7035800Y63500D01*
X8394700D01*
X8509000Y177800D01*
Y317500D01*
X9080500Y889000D01*
Y1778000D01*
X8953500Y1905000D01*
G01X7556500Y1079500D02*
X6921500Y444500D01*
G01X6858000Y1905000D02*
X8636000D01*
X8890000Y1651000D01*
G01X7556500Y1778000D02*
Y1079500D01*
G01X8572500Y2286000D02*
X8839200D01*
X8953500Y2171700D01*
Y1905000D01*
G01X8542000Y2754600D02*
Y2954000D01*
X8572500Y2984500D01*
X10096500D01*
X10223500Y3111500D01*
G01X8862100Y1778000D02*
Y1678900D01*
X8890000Y1651000D01*
G01D02*
X9080500Y1460500D01*
X9461500D01*
X9715500Y1206500D01*
Y952500D01*
G01X10223500Y3111500D02*
X10604500D01*
G01X10731500Y1333500D02*
Y1905000D01*
G01X10604500Y1947900D02*
Y2032000D01*
G01D02*
Y2116100D01*
G01X10520400Y2032000D02*
X10604500D01*
G01D02*
X10688600D01*
G01X10731500Y1905000D02*
X10604500Y2032000D01*
G01Y1947900D02*
Y2032000D01*
G01D02*
Y2116100D01*
G01X10520400Y2032000D02*
X10604500D01*
G01D02*
X10688600D01*
G01X10604500Y3027400D02*
Y3111500D01*
G01D02*
Y3195600D01*
G01Y3111500D02*
X10688600D01*
G01X10604500Y3027400D02*
Y3111500D01*
G01D02*
Y3195600D01*
G01X10520400Y3111500D02*
X10604500D01*
G01D02*
X10688600D01*
G54D19*
X3150900Y2589500D03*
Y2509500D03*
Y2429500D03*
Y2349500D03*
Y2909600D03*
Y2829600D03*
Y2749500D03*
X4000500Y2429500D03*
Y2509500D03*
Y2589500D03*
Y2669500D03*
Y2749500D03*
Y2829600D03*
Y2909600D03*
X8237200Y2609800D03*
Y2529800D03*
Y2449800D03*
Y2369800D03*
Y2289800D03*
Y2129800D03*
Y2049800D03*
X9086800D03*
Y2209800D03*
Y2289800D03*
Y2369800D03*
Y2449800D03*
Y2529800D03*
Y2609800D03*
G54D29*
G01X444500Y2095500D02*
X190500Y1841500D01*
G01D02*
Y1270000D01*
X254000Y1206500D01*
G01D02*
X508000D01*
G01X254000Y2095500D02*
X444500D01*
G01X254000Y4000500D02*
X127000Y3873500D01*
Y2222500D01*
X254000Y2095500D01*
G01X444500Y4000500D02*
X254000D01*
G01X635000Y444500D02*
X1270000D01*
G01X381000D02*
X508000Y571500D01*
G01Y1206500D02*
Y1079500D01*
G01Y571500D02*
X1397000D01*
G01X508000Y1079500D02*
X381000Y952500D01*
G01D02*
Y444500D01*
G01X1651000Y571500D02*
X1524000Y444500D01*
G01X1397000Y571500D02*
X1524000Y444500D01*
G01X2307800D02*
X2269600Y406300D01*
Y360000D01*
X2243500Y333900D01*
X2074500D01*
X2032000Y376400D01*
Y533300D01*
X1993800Y571500D01*
X1651000D01*
G01X3375700Y1915200D02*
X3058100D01*
X2159000Y1016100D01*
Y444500D01*
G01X2413000D02*
X3429000D01*
G01X2413000D02*
X2307800D01*
G01X3375700Y2204700D02*
Y1915200D01*
G01Y2204700D02*
Y2319000D01*
X3365500Y2329200D01*
Y2413000D01*
X3462000Y2509500D01*
X3536400D01*
G01X3775700Y2204700D02*
Y2828300D01*
X3694400Y2909600D01*
X3150900D01*
G01X3417600D02*
X3150900D01*
G01X3810000Y508000D02*
X4064000Y254000D01*
G01D02*
X4826000D01*
G01X3810000Y508000D02*
Y599500D01*
G01X3429000Y444500D02*
X3492500Y508000D01*
G01D02*
X3810000D01*
G01Y599500D02*
X3775700Y633800D01*
Y2204700D01*
G01X4000500Y2509500D02*
Y2589500D01*
G01Y2509500D02*
X3536400D01*
G01X4000500D02*
X4889500D01*
X4920000Y2540000D01*
X5207000D01*
X5588000Y2159000D01*
X6604000D01*
X6858000Y1905000D01*
G01X3536400Y2509500D02*
X3535700Y2510200D01*
Y3054300D01*
G01X3615700Y2204700D02*
Y2336800D01*
G01X4603700Y2349500D02*
X4578300Y2374900D01*
Y2411400D01*
X4456000Y2533700D01*
X4354400D01*
X4311700Y2576400D01*
Y2868500D01*
X4202000Y2978200D01*
X4106600D01*
X4062800Y3022000D01*
Y3073900D01*
X4026400Y3110300D01*
X3974600D01*
X3938200Y3073900D01*
Y2964800D01*
X3925500Y2952100D01*
Y2798500D01*
X3969400Y2754600D01*
X4031600D01*
X4049400Y2772400D01*
X4131700D01*
X4133800Y2770300D01*
Y2516300D01*
X4254500Y2395600D01*
Y2349500D01*
X4127500Y2222500D01*
X3849500D01*
X3831700Y2204700D01*
X3775700D01*
G01X3615700Y2336800D02*
X3691900Y2413000D01*
X3768100D01*
X3775700Y2405400D01*
G01D02*
Y2204700D01*
G01X3455700Y2947700D02*
X3417600Y2909600D01*
G01X3855700Y3054300D02*
X3904000D01*
G01X3855700D02*
Y3175000D01*
G01X3455700Y2947700D02*
Y3054300D01*
G01X3855700Y3175000D02*
X3792200Y3238500D01*
X3506600D01*
X3468300Y3200200D01*
G01D02*
Y2960400D01*
X3470200Y2958500D01*
X3459400Y2947700D01*
G01D02*
X3455700D01*
G01X3904000Y3054300D02*
X3910300Y3048000D01*
X4000500D01*
G01X4826000Y254000D02*
X5080000Y508000D01*
G01X4889500Y2349500D02*
X4603700D01*
G01X8862100Y1905000D02*
Y2313900D01*
X8702000Y2474000D01*
Y2754600D01*
G01X8572500Y2286000D02*
X8542000Y2316500D01*
G01D02*
Y2754600D01*
G01X10287000Y4000500D02*
Y3810000D01*
X10223500Y3746500D01*
X8826600D01*
X8636000Y3555900D01*
Y2941300D01*
X8702000Y2875300D01*
Y2754600D01*
G01X9715500Y952500D02*
X9906000Y762000D01*
Y444500D01*
X9715500Y254000D01*
G01X10858500Y2286000D02*
X10604500Y2032000D01*
G01X10858500Y2857500D02*
Y2286000D01*
G01X10604500Y3111500D02*
X10858500Y2857500D01*
M02*
