G04 ================== begin FILE IDENTIFICATION RECORD ==================*
G04 Layout Name:  AVRUSB500_new.brd*
G04 Film Name:    DrillDraw*
G04 File Format:  Gerber RS274X*
G04 File Origin:  Cadence Allegro 16.6-S034*
G04 Origin Date:  Fri Jul 19 12:25:43 2019*
G04 *
G04 Layer:  MANUFACTURING/NCLEGEND-1-2*
G04 Layer:  BOARD GEOMETRY/OUTLINE*
G04 *
G04 Offset:    (0.000 0.000)*
G04 Mirror:    No*
G04 Mode:      Positive*
G04 Rotation:  0*
G04 FullContactRelief:  No*
G04 UndefLineWidth:     0.100*
G04 ================== end FILE IDENTIFICATION RECORD ====================*
%FSLAX25Y25*MOMM*%
%IR0*IPPOS*OFA0.00000B0.00000*MIA0B0*SFA1.00000B1.00000*%
%AMMACRO13*
1,1,.1,-.45,.25*
20,1,.1,-.45,.25,.45,.25,0.0*
1,1,.1,.45,.25*
20,1,.1,.45,.25,.493412,.246202,0.0*
1,1,.1,.493412,.246202*
20,1,.1,.493412,.246202,.535505,.234923,0.0*
1,1,.1,.535505,.234923*
20,1,.1,.535505,.234923,.575,.216506,0.0*
1,1,.1,.575,.216506*
20,1,.1,.575,.216506,.610697,.191511,0.0*
1,1,.1,.610697,.191511*
20,1,.1,.610697,.191511,.641511,.160697,0.0*
1,1,.1,.641511,.160697*
20,1,.1,.641511,.160697,.666506,.125,0.0*
1,1,.1,.666506,.125*
20,1,.1,.666506,.125,.684923,.085505,0.0*
1,1,.1,.684923,.085505*
20,1,.1,.684923,.085505,.696202,.043412,0.0*
1,1,.1,.696202,.043412*
20,1,.1,.696202,.043412,.7,0.0,0.0*
1,1,.1,.7,0.0*
20,1,.1,.7,0.0,.696202,-.043412,0.0*
1,1,.1,.696202,-.043412*
20,1,.1,.696202,-.043412,.684923,-.085505,0.0*
1,1,.1,.684923,-.085505*
20,1,.1,.684923,-.085505,.666506,-.125,0.0*
1,1,.1,.666506,-.125*
20,1,.1,.666506,-.125,.641511,-.160697,0.0*
1,1,.1,.641511,-.160697*
20,1,.1,.641511,-.160697,.610697,-.191511,0.0*
1,1,.1,.610697,-.191511*
20,1,.1,.610697,-.191511,.575,-.216506,0.0*
1,1,.1,.575,-.216506*
20,1,.1,.575,-.216506,.535505,-.234923,0.0*
1,1,.1,.535505,-.234923*
20,1,.1,.535505,-.234923,.493412,-.246202,0.0*
1,1,.1,.493412,-.246202*
20,1,.1,.493412,-.246202,.45,-.25,0.0*
1,1,.1,.45,-.25*
20,1,.1,.45,-.25,-.45,-.25,0.0*
1,1,.1,-.45,-.25*
20,1,.1,-.45,-.25,-.493412,-.246202,0.0*
1,1,.1,-.493412,-.246202*
20,1,.1,-.493412,-.246202,-.535505,-.234923,0.0*
1,1,.1,-.535505,-.234923*
20,1,.1,-.535505,-.234923,-.575,-.216506,0.0*
1,1,.1,-.575,-.216506*
20,1,.1,-.575,-.216506,-.610697,-.191511,0.0*
1,1,.1,-.610697,-.191511*
20,1,.1,-.610697,-.191511,-.641511,-.160697,0.0*
1,1,.1,-.641511,-.160697*
20,1,.1,-.641511,-.160697,-.666506,-.125,0.0*
1,1,.1,-.666506,-.125*
20,1,.1,-.666506,-.125,-.684923,-.085505,0.0*
1,1,.1,-.684923,-.085505*
20,1,.1,-.684923,-.085505,-.696202,-.043412,0.0*
1,1,.1,-.696202,-.043412*
20,1,.1,-.696202,-.043412,-.7,0.0,0.0*
1,1,.1,-.7,0.0*
20,1,.1,-.7,0.0,-.696202,.043412,0.0*
1,1,.1,-.696202,.043412*
20,1,.1,-.696202,.043412,-.684923,.085505,0.0*
1,1,.1,-.684923,.085505*
20,1,.1,-.684923,.085505,-.666506,.125,0.0*
1,1,.1,-.666506,.125*
20,1,.1,-.666506,.125,-.641511,.160697,0.0*
1,1,.1,-.641511,.160697*
20,1,.1,-.641511,.160697,-.610697,.191511,0.0*
1,1,.1,-.610697,.191511*
20,1,.1,-.610697,.191511,-.575,.216506,0.0*
1,1,.1,-.575,.216506*
20,1,.1,-.575,.216506,-.535505,.234923,0.0*
1,1,.1,-.535505,.234923*
20,1,.1,-.535505,.234923,-.493412,.246202,0.0*
1,1,.1,-.493412,.246202*
20,1,.1,-.493412,.246202,-.45,.25,0.0*
1,1,.1,-.45,.25*
%
%ADD13MACRO13*%
%AMMACRO10*
1,1,.1,.635,0.0*
20,1,.1,.635,0.0,.625353,-.110267,0.0*
1,1,.1,.625353,-.110267*
20,1,.1,.625353,-.110267,.596705,-.217183,0.0*
1,1,.1,.596705,-.217183*
20,1,.1,.596705,-.217183,.549926,-.3175,0.0*
1,1,.1,.549926,-.3175*
20,1,.1,.549926,-.3175,.486438,-.40817,0.0*
1,1,.1,.486438,-.40817*
20,1,.1,.486438,-.40817,.40817,-.486438,0.0*
1,1,.1,.40817,-.486438*
20,1,.1,.40817,-.486438,.3175,-.549926,0.0*
1,1,.1,.3175,-.549926*
20,1,.1,.3175,-.549926,.217183,-.596705,0.0*
1,1,.1,.217183,-.596705*
20,1,.1,.217183,-.596705,.110267,-.625353,0.0*
1,1,.1,.110267,-.625353*
20,1,.1,.110267,-.625353,0.0,-.635,0.0*
1,1,.1,0.0,-.635*
20,1,.1,0.0,-.635,-.110267,-.625353,0.0*
1,1,.1,-.110267,-.625353*
20,1,.1,-.110267,-.625353,-.217183,-.596705,0.0*
1,1,.1,-.217183,-.596705*
20,1,.1,-.217183,-.596705,-.3175,-.549926,0.0*
1,1,.1,-.3175,-.549926*
20,1,.1,-.3175,-.549926,-.40817,-.486438,0.0*
1,1,.1,-.40817,-.486438*
20,1,.1,-.40817,-.486438,-.486438,-.40817,0.0*
1,1,.1,-.486438,-.40817*
20,1,.1,-.486438,-.40817,-.549926,-.3175,0.0*
1,1,.1,-.549926,-.3175*
20,1,.1,-.549926,-.3175,-.596705,-.217183,0.0*
1,1,.1,-.596705,-.217183*
20,1,.1,-.596705,-.217183,-.625353,-.110267,0.0*
1,1,.1,-.625353,-.110267*
20,1,.1,-.625353,-.110267,-.635,0.0,0.0*
1,1,.1,-.635,0.0*
20,1,.1,-.635,0.0,-.625353,.110267,0.0*
1,1,.1,-.625353,.110267*
20,1,.1,-.625353,.110267,-.596705,.217183,0.0*
1,1,.1,-.596705,.217183*
20,1,.1,-.596705,.217183,-.549926,.3175,0.0*
1,1,.1,-.549926,.3175*
20,1,.1,-.549926,.3175,-.486438,.40817,0.0*
1,1,.1,-.486438,.40817*
20,1,.1,-.486438,.40817,-.40817,.486438,0.0*
1,1,.1,-.40817,.486438*
20,1,.1,-.40817,.486438,-.3175,.549926,0.0*
1,1,.1,-.3175,.549926*
20,1,.1,-.3175,.549926,-.217183,.596705,0.0*
1,1,.1,-.217183,.596705*
20,1,.1,-.217183,.596705,-.110267,.625353,0.0*
1,1,.1,-.110267,.625353*
20,1,.1,-.110267,.625353,0.0,.635,0.0*
1,1,.1,0.0,.635*
20,1,.1,0.0,.635,.110267,.625353,0.0*
1,1,.1,.110267,.625353*
20,1,.1,.110267,.625353,.217183,.596705,0.0*
1,1,.1,.217183,.596705*
20,1,.1,.217183,.596705,.3175,.549926,0.0*
1,1,.1,.3175,.549926*
20,1,.1,.3175,.549926,.40817,.486438,0.0*
1,1,.1,.40817,.486438*
20,1,.1,.40817,.486438,.486438,.40817,0.0*
1,1,.1,.486438,.40817*
20,1,.1,.486438,.40817,.549926,.3175,0.0*
1,1,.1,.549926,.3175*
20,1,.1,.549926,.3175,.596705,.217183,0.0*
1,1,.1,.596705,.217183*
20,1,.1,.596705,.217183,.625353,.110267,0.0*
1,1,.1,.625353,.110267*
20,1,.1,.625353,.110267,.635,0.0,0.0*
1,1,.1,.635,0.0*
1,1,.1,.3175,0.0*
20,1,.1,.3175,0.0,-.3175,0.0,0.0*
1,1,.1,-.3175,0.0*
1,1,.1,0.0,.3175*
20,1,.1,0.0,.3175,0.0,-.3175,0.0*
1,1,.1,0.0,-.3175*
%
%ADD10MACRO10*%
%AMMACRO12*
1,1,.1,.533,0.0*
20,1,.1,.533,0.0,.524903,-.092554,0.0*
1,1,.1,.524903,-.092554*
20,1,.1,.524903,-.092554,.500856,-.182297,0.0*
1,1,.1,.500856,-.182297*
20,1,.1,.500856,-.182297,.461592,-.2665,0.0*
1,1,.1,.461592,-.2665*
20,1,.1,.461592,-.2665,.408302,-.342606,0.0*
1,1,.1,.408302,-.342606*
20,1,.1,.408302,-.342606,.342606,-.408302,0.0*
1,1,.1,.342606,-.408302*
20,1,.1,.342606,-.408302,.2665,-.461592,0.0*
1,1,.1,.2665,-.461592*
20,1,.1,.2665,-.461592,.182297,-.500856,0.0*
1,1,.1,.182297,-.500856*
20,1,.1,.182297,-.500856,.092554,-.524903,0.0*
1,1,.1,.092554,-.524903*
20,1,.1,.092554,-.524903,0.0,-.533,0.0*
1,1,.1,0.0,-.533*
20,1,.1,0.0,-.533,-.092554,-.524903,0.0*
1,1,.1,-.092554,-.524903*
20,1,.1,-.092554,-.524903,-.182297,-.500856,0.0*
1,1,.1,-.182297,-.500856*
20,1,.1,-.182297,-.500856,-.2665,-.461592,0.0*
1,1,.1,-.2665,-.461592*
20,1,.1,-.2665,-.461592,-.342606,-.408302,0.0*
1,1,.1,-.342606,-.408302*
20,1,.1,-.342606,-.408302,-.408302,-.342606,0.0*
1,1,.1,-.408302,-.342606*
20,1,.1,-.408302,-.342606,-.461592,-.2665,0.0*
1,1,.1,-.461592,-.2665*
20,1,.1,-.461592,-.2665,-.500856,-.182297,0.0*
1,1,.1,-.500856,-.182297*
20,1,.1,-.500856,-.182297,-.524903,-.092554,0.0*
1,1,.1,-.524903,-.092554*
20,1,.1,-.524903,-.092554,-.533,0.0,0.0*
1,1,.1,-.533,0.0*
20,1,.1,-.533,0.0,-.524903,.092554,0.0*
1,1,.1,-.524903,.092554*
20,1,.1,-.524903,.092554,-.500856,.182297,0.0*
1,1,.1,-.500856,.182297*
20,1,.1,-.500856,.182297,-.461592,.2665,0.0*
1,1,.1,-.461592,.2665*
20,1,.1,-.461592,.2665,-.408302,.342606,0.0*
1,1,.1,-.408302,.342606*
20,1,.1,-.408302,.342606,-.342606,.408302,0.0*
1,1,.1,-.342606,.408302*
20,1,.1,-.342606,.408302,-.2665,.461592,0.0*
1,1,.1,-.2665,.461592*
20,1,.1,-.2665,.461592,-.182297,.500856,0.0*
1,1,.1,-.182297,.500856*
20,1,.1,-.182297,.500856,-.092554,.524903,0.0*
1,1,.1,-.092554,.524903*
20,1,.1,-.092554,.524903,0.0,.533,0.0*
1,1,.1,0.0,.533*
20,1,.1,0.0,.533,.092554,.524903,0.0*
1,1,.1,.092554,.524903*
20,1,.1,.092554,.524903,.182297,.500856,0.0*
1,1,.1,.182297,.500856*
20,1,.1,.182297,.500856,.2665,.461592,0.0*
1,1,.1,.2665,.461592*
20,1,.1,.2665,.461592,.342606,.408302,0.0*
1,1,.1,.342606,.408302*
20,1,.1,.342606,.408302,.408302,.342606,0.0*
1,1,.1,.408302,.342606*
20,1,.1,.408302,.342606,.461592,.2665,0.0*
1,1,.1,.461592,.2665*
20,1,.1,.461592,.2665,.500856,.182297,0.0*
1,1,.1,.500856,.182297*
20,1,.1,.500856,.182297,.524903,.092554,0.0*
1,1,.1,.524903,.092554*
20,1,.1,.524903,.092554,.533,0.0,0.0*
1,1,.1,.533,0.0*
1,1,.1,-.222,-.266*
20,1,.1,-.222,-.266,0.0,.267,0.0*
1,1,.1,0.0,.267*
20,1,.1,0.0,.267,.223,-.266,0.0*
1,1,.1,.223,-.266*
1,1,.1,.143,-.079*
20,1,.1,.143,-.079,-.142,-.079,0.0*
1,1,.1,-.142,-.079*
%
%ADD12MACRO12*%
%AMMACRO11*
1,1,.1,.3935,0.0*
20,1,.1,.3935,0.0,.387522,-.068331,0.0*
1,1,.1,.387522,-.068331*
20,1,.1,.387522,-.068331,.369769,-.134585,0.0*
1,1,.1,.369769,-.134585*
20,1,.1,.369769,-.134585,.340781,-.19675,0.0*
1,1,.1,.340781,-.19675*
20,1,.1,.340781,-.19675,.301438,-.252937,0.0*
1,1,.1,.301438,-.252937*
20,1,.1,.301438,-.252937,.252937,-.301438,0.0*
1,1,.1,.252937,-.301438*
20,1,.1,.252937,-.301438,.19675,-.340781,0.0*
1,1,.1,.19675,-.340781*
20,1,.1,.19675,-.340781,.134585,-.369769,0.0*
1,1,.1,.134585,-.369769*
20,1,.1,.134585,-.369769,.068331,-.387522,0.0*
1,1,.1,.068331,-.387522*
20,1,.1,.068331,-.387522,0.0,-.3935,0.0*
1,1,.1,0.0,-.3935*
20,1,.1,0.0,-.3935,-.068331,-.387522,0.0*
1,1,.1,-.068331,-.387522*
20,1,.1,-.068331,-.387522,-.134585,-.369769,0.0*
1,1,.1,-.134585,-.369769*
20,1,.1,-.134585,-.369769,-.19675,-.340781,0.0*
1,1,.1,-.19675,-.340781*
20,1,.1,-.19675,-.340781,-.252937,-.301438,0.0*
1,1,.1,-.252937,-.301438*
20,1,.1,-.252937,-.301438,-.301438,-.252937,0.0*
1,1,.1,-.301438,-.252937*
20,1,.1,-.301438,-.252937,-.340781,-.19675,0.0*
1,1,.1,-.340781,-.19675*
20,1,.1,-.340781,-.19675,-.369769,-.134585,0.0*
1,1,.1,-.369769,-.134585*
20,1,.1,-.369769,-.134585,-.387522,-.068331,0.0*
1,1,.1,-.387522,-.068331*
20,1,.1,-.387522,-.068331,-.3935,0.0,0.0*
1,1,.1,-.3935,0.0*
20,1,.1,-.3935,0.0,-.387522,.068331,0.0*
1,1,.1,-.387522,.068331*
20,1,.1,-.387522,.068331,-.369769,.134585,0.0*
1,1,.1,-.369769,.134585*
20,1,.1,-.369769,.134585,-.340781,.19675,0.0*
1,1,.1,-.340781,.19675*
20,1,.1,-.340781,.19675,-.301438,.252937,0.0*
1,1,.1,-.301438,.252937*
20,1,.1,-.301438,.252937,-.252937,.301438,0.0*
1,1,.1,-.252937,.301438*
20,1,.1,-.252937,.301438,-.19675,.340781,0.0*
1,1,.1,-.19675,.340781*
20,1,.1,-.19675,.340781,-.134585,.369769,0.0*
1,1,.1,-.134585,.369769*
20,1,.1,-.134585,.369769,-.068331,.387522,0.0*
1,1,.1,-.068331,.387522*
20,1,.1,-.068331,.387522,0.0,.3935,0.0*
1,1,.1,0.0,.3935*
20,1,.1,0.0,.3935,.068331,.387522,0.0*
1,1,.1,.068331,.387522*
20,1,.1,.068331,.387522,.134585,.369769,0.0*
1,1,.1,.134585,.369769*
20,1,.1,.134585,.369769,.19675,.340781,0.0*
1,1,.1,.19675,.340781*
20,1,.1,.19675,.340781,.252937,.301438,0.0*
1,1,.1,.252937,.301438*
20,1,.1,.252937,.301438,.301438,.252937,0.0*
1,1,.1,.301438,.252937*
20,1,.1,.301438,.252937,.340781,.19675,0.0*
1,1,.1,.340781,.19675*
20,1,.1,.340781,.19675,.369769,.134585,0.0*
1,1,.1,.369769,.134585*
20,1,.1,.369769,.134585,.387522,.068331,0.0*
1,1,.1,.387522,.068331*
20,1,.1,.387522,.068331,.3935,0.0,0.0*
1,1,.1,.3935,0.0*
1,1,.1,-.163,-.196*
20,1,.1,-.163,-.196,0.0,.197,0.0*
1,1,.1,0.0,.197*
20,1,.1,0.0,.197,.164,-.196,0.0*
1,1,.1,.164,-.196*
1,1,.1,.105,-.058*
20,1,.1,.105,-.058,-.104,-.058,0.0*
1,1,.1,-.104,-.058*
%
%ADD11MACRO11*%
%ADD14C,.1*%
G75*
%LPD*%
G75*
G54D10*
X202900Y-1283600D03*
X635000Y444500D03*
X2159000D03*
X3375700Y1915200D03*
X3150900Y2909600D03*
X3775700Y2204700D03*
X4000500Y3047900D03*
Y3048000D03*
Y2829600D03*
Y2921000D03*
X3492500Y3683000D03*
X5842000Y889000D03*
X7556500Y1778000D03*
X8699500Y254000D03*
X8382000Y190500D03*
X8509000Y508000D03*
X8572500Y1270000D03*
X8445500Y1714500D03*
X8572500Y2286000D03*
X8763000Y3175000D03*
X8542000Y2754600D03*
X8890000Y1651000D03*
X8953500Y1905000D03*
X8826500Y3365500D03*
X9080500Y3175000D03*
X8942100Y3481100D03*
X9080500Y4318000D03*
X9715500Y254000D03*
X10477500Y762000D03*
G54D11*
X202900Y-1474200D03*
X381000Y444500D03*
X635000D03*
X508000Y1206500D03*
Y1460500D03*
X1270000Y444500D03*
X1524000D03*
X1587500Y1905000D03*
Y2349500D03*
Y3238500D03*
Y2794000D03*
X2159000Y444500D03*
X2413000D03*
X2603500Y1905000D03*
Y2349500D03*
Y3238500D03*
Y2794000D03*
X3810000Y508000D03*
X4064000D03*
Y1397000D03*
X3619500Y3873500D03*
X4826000Y508000D03*
Y1397000D03*
X4889500Y2349500D03*
Y2095500D03*
Y2984500D03*
Y3238500D03*
X4635500Y3873500D03*
X5080000Y508000D03*
X5842000Y889000D03*
Y1905000D03*
Y1397000D03*
Y2413000D03*
Y2921000D03*
Y3492500D03*
Y4064000D03*
X6858000Y889000D03*
Y1905000D03*
Y1397000D03*
Y2413000D03*
Y2921000D03*
Y3492500D03*
Y4064000D03*
X8699500Y254000D03*
Y952500D03*
X8572500Y3937000D03*
X8255000D03*
X9271000Y4000500D03*
X9715500Y254000D03*
Y952500D03*
X9779000Y1905000D03*
Y2667000D03*
X10287000Y4000500D03*
X10604500Y1778000D03*
Y2032000D03*
Y3111500D03*
Y2857500D03*
G54D12*
X202900Y-1664600D03*
X444500Y2095500D03*
Y2349500D03*
Y2603500D03*
Y2857500D03*
Y3111500D03*
Y4000500D03*
X698500D03*
X952500D03*
X1206500D03*
X1460500D03*
X7556500Y1778000D03*
Y2032000D03*
Y2286000D03*
Y2540000D03*
Y2794000D03*
G54D13*
X202900Y-1855200D03*
X10858500Y188500D03*
X10488500D03*
X10858500Y1208500D03*
X10488500D03*
G54D14*
G01X0Y-1950400D02*
Y-254000D01*
X2181200D01*
Y-1950400D01*
X0D01*
G01Y-1378900D02*
X2181200D01*
G01X0Y-1569400D02*
X2181200D01*
G01X0Y-1759900D02*
X2181200D01*
G01X320400Y-999200D02*
X337300Y-935700D01*
X354200Y-999200D01*
G01X348100Y-977000D02*
X326500D01*
G01X379600Y-935700D02*
Y-999200D01*
X406600D01*
G01X435400Y-935700D02*
Y-999200D01*
X462400D01*
G01X545600Y-935700D02*
Y-981200D01*
X548300Y-990700D01*
X553700Y-997100D01*
X560500Y-999200D01*
X567300Y-997100D01*
X572700Y-990700D01*
X575400Y-981200D01*
Y-935700D01*
G01X600700Y-999200D02*
Y-935700D01*
X631900Y-999200D01*
Y-935700D01*
G01X664000D02*
X680200D01*
G01X672100D02*
Y-999200D01*
G01X664000D02*
X680200D01*
G01X727900Y-935700D02*
Y-999200D01*
G01X712300Y-935700D02*
X743500D01*
G01X769500Y-990700D02*
X774900Y-996000D01*
X781000Y-999200D01*
X786400D01*
X791800Y-996000D01*
X795900Y-990700D01*
X797900Y-983300D01*
X796600Y-975900D01*
X793200Y-969600D01*
X787100Y-965300D01*
X779000Y-963200D01*
X774200Y-959000D01*
X772200Y-951600D01*
X773600Y-944200D01*
X776900Y-938900D01*
X781700Y-935700D01*
X786400D01*
X791100Y-937800D01*
X795200Y-943100D01*
G01X878400Y-999200D02*
X895300Y-935700D01*
X912200Y-999200D01*
G01X906100Y-977000D02*
X884500D01*
G01X937600Y-999200D02*
Y-935700D01*
X954500D01*
X959900Y-938900D01*
X963300Y-943100D01*
X964600Y-951600D01*
X963300Y-960000D01*
X959200Y-965300D01*
X954500Y-968500D01*
X937600D01*
G01X954500D02*
X964600Y-999200D01*
G01X1020400D02*
X993400D01*
Y-935700D01*
X1020400D01*
G01X1009600Y-966400D02*
X993400D01*
G01X1110400Y-935700D02*
X1126600D01*
G01X1118500D02*
Y-999200D01*
G01X1110400D02*
X1126600D01*
G01X1158700D02*
Y-935700D01*
X1189900Y-999200D01*
Y-935700D01*
G01X1268300Y-999200D02*
Y-935700D01*
X1285900Y-988600D01*
X1303500Y-935700D01*
Y-999200D01*
G01X1333600Y-935700D02*
X1349800D01*
G01X1341700D02*
Y-999200D01*
G01X1333600D02*
X1349800D01*
G01X1384000Y-935700D02*
Y-999200D01*
X1411000D01*
G01X1439800Y-935700D02*
Y-999200D01*
X1466800D01*
G01X1501000Y-935700D02*
X1517200D01*
G01X1509100D02*
Y-999200D01*
G01X1501000D02*
X1517200D01*
G01X1547300D02*
Y-935700D01*
X1564900Y-988600D01*
X1582500Y-935700D01*
Y-999200D01*
G01X1634200D02*
X1607200D01*
Y-935700D01*
X1634200D01*
G01X1623400Y-966400D02*
X1607200D01*
G01X1676500Y-935700D02*
Y-999200D01*
G01X1660900Y-935700D02*
X1692100D01*
G01X1745800Y-999200D02*
X1718800D01*
Y-935700D01*
X1745800D01*
G01X1735000Y-966400D02*
X1718800D01*
G01X1774600Y-999200D02*
Y-935700D01*
X1791500D01*
X1796900Y-938900D01*
X1800300Y-943100D01*
X1801600Y-951600D01*
X1800300Y-960000D01*
X1796200Y-965300D01*
X1791500Y-968500D01*
X1774600D01*
G01X1791500D02*
X1801600Y-999200D01*
G01X1829700Y-990700D02*
X1835100Y-996000D01*
X1841200Y-999200D01*
X1846600D01*
X1852000Y-996000D01*
X1856100Y-990700D01*
X1858100Y-983300D01*
X1856800Y-975900D01*
X1853400Y-969600D01*
X1847300Y-965300D01*
X1839200Y-963200D01*
X1834400Y-959000D01*
X1832400Y-951600D01*
X1833800Y-944200D01*
X1837100Y-938900D01*
X1841900Y-935700D01*
X1846600D01*
X1851300Y-937800D01*
X1855400Y-943100D01*
G01X50500Y-1141400D02*
Y-1077900D01*
X76300D01*
G01X66800Y-1108600D02*
X50500D01*
G01X111100Y-1077900D02*
X127300D01*
G01X119200D02*
Y-1141400D01*
G01X111100D02*
X127300D01*
G01X179100Y-1109700D02*
X192600D01*
Y-1128700D01*
X188500Y-1135100D01*
X183800Y-1139300D01*
X177000Y-1141400D01*
X170300Y-1139300D01*
X165500Y-1135100D01*
X161500Y-1128700D01*
X158800Y-1121300D01*
X157400Y-1112800D01*
Y-1105400D01*
X158800Y-1099100D01*
X161500Y-1091700D01*
X165500Y-1085300D01*
X169600Y-1081100D01*
X175000Y-1077900D01*
X179700D01*
X185100Y-1080000D01*
X189200Y-1084300D01*
G01X215900Y-1077900D02*
Y-1123400D01*
X218600Y-1132900D01*
X224000Y-1139300D01*
X230800Y-1141400D01*
X237600Y-1139300D01*
X243000Y-1132900D01*
X245700Y-1123400D01*
Y-1077900D01*
G01X273100Y-1141400D02*
Y-1077900D01*
X290000D01*
X295400Y-1081100D01*
X298800Y-1085300D01*
X300100Y-1093800D01*
X298800Y-1102200D01*
X294700Y-1107500D01*
X290000Y-1110700D01*
X273100D01*
G01X290000D02*
X300100Y-1141400D01*
G01X355900D02*
X328900D01*
Y-1077900D01*
X355900D01*
G01X345100Y-1108600D02*
X328900D01*
G01X0Y-904000D02*
X2181200D01*
G01X0Y-1046200D02*
X2181200D01*
G01X0Y-1188400D02*
X2181200D01*
G01X0Y0D02*
Y4500000D01*
X11000000D01*
Y0D01*
X0D01*
G01X748200Y-1251900D02*
X742800Y-1254000D01*
X738700Y-1259300D01*
X736000Y-1265700D01*
X734000Y-1274100D01*
X733300Y-1283700D01*
X734000Y-1293200D01*
X736000Y-1301600D01*
X738700Y-1308000D01*
X742800Y-1313300D01*
X748200Y-1315400D01*
X753600Y-1313300D01*
X757700Y-1308000D01*
X760400Y-1301600D01*
X762400Y-1293200D01*
X763100Y-1283700D01*
X762400Y-1274100D01*
X760400Y-1265700D01*
X757700Y-1259300D01*
X753600Y-1254000D01*
X748200Y-1251900D01*
G01X804000Y-1317500D02*
X802600Y-1316500D01*
Y-1314300D01*
X804000Y-1313300D01*
X805400Y-1314300D01*
Y-1316500D01*
X804000Y-1317500D01*
G01X844900Y-1302700D02*
X849000Y-1310100D01*
X854400Y-1314300D01*
X860500Y-1315400D01*
X865900Y-1314300D01*
X871300Y-1309100D01*
X874700Y-1302700D01*
X875400Y-1296400D01*
X874000Y-1288900D01*
X869300Y-1283700D01*
X864500Y-1281500D01*
X858400D01*
G01X864500D02*
X868600Y-1278400D01*
X872000Y-1273100D01*
X873300Y-1266700D01*
X872000Y-1260400D01*
X868600Y-1255100D01*
X862500Y-1251900D01*
X856400Y-1253000D01*
X850300Y-1257200D01*
G01X900700Y-1302700D02*
X904800Y-1310100D01*
X910200Y-1314300D01*
X916300Y-1315400D01*
X921700Y-1314300D01*
X927100Y-1309100D01*
X930500Y-1302700D01*
X931200Y-1296400D01*
X929800Y-1288900D01*
X925100Y-1283700D01*
X920300Y-1281500D01*
X914200D01*
G01X920300D02*
X924400Y-1278400D01*
X927800Y-1273100D01*
X929100Y-1266700D01*
X927800Y-1260400D01*
X924400Y-1255100D01*
X918300Y-1251900D01*
X912200Y-1253000D01*
X906100Y-1257200D01*
G01X720300Y-1442400D02*
X714900Y-1444500D01*
X710800Y-1449800D01*
X708100Y-1456200D01*
X706100Y-1464600D01*
X705400Y-1474200D01*
X706100Y-1483700D01*
X708100Y-1492100D01*
X710800Y-1498500D01*
X714900Y-1503800D01*
X720300Y-1505900D01*
X725700Y-1503800D01*
X729800Y-1498500D01*
X732500Y-1492100D01*
X734500Y-1483700D01*
X735200Y-1474200D01*
X734500Y-1464600D01*
X732500Y-1456200D01*
X729800Y-1449800D01*
X725700Y-1444500D01*
X720300Y-1442400D01*
G01X776100Y-1508000D02*
X774700Y-1507000D01*
Y-1504800D01*
X776100Y-1503800D01*
X777500Y-1504800D01*
Y-1507000D01*
X776100Y-1508000D01*
G01X830500Y-1505900D02*
X831900Y-1492100D01*
X833900Y-1480500D01*
X836600Y-1469900D01*
X840000Y-1458300D01*
X845400Y-1442400D01*
X818400D01*
G01X887700Y-1505900D02*
X892400Y-1504800D01*
X897800Y-1501700D01*
X901200Y-1496400D01*
X902600Y-1489000D01*
X901200Y-1481600D01*
X897200Y-1475200D01*
X891100Y-1472000D01*
X884300D01*
X880300Y-1469900D01*
X876900Y-1464600D01*
X875500Y-1457200D01*
X877600Y-1449800D01*
X882300Y-1444500D01*
X887700Y-1442400D01*
X893100Y-1444500D01*
X897800Y-1449800D01*
X899900Y-1457200D01*
X898500Y-1464600D01*
X895100Y-1469900D01*
X891100Y-1472000D01*
X884300D01*
X878200Y-1475200D01*
X874200Y-1481600D01*
X872800Y-1489000D01*
X874200Y-1496400D01*
X877600Y-1501700D01*
X883000Y-1504800D01*
X887700Y-1505900D01*
G01X942100D02*
X943500Y-1492100D01*
X945500Y-1480500D01*
X948200Y-1469900D01*
X951600Y-1458300D01*
X957000Y-1442400D01*
X930000D01*
G01X720300Y-1696400D02*
Y-1632900D01*
X712200Y-1645600D01*
G01Y-1696400D02*
X728400D01*
G01X776100Y-1698500D02*
X774700Y-1697500D01*
Y-1695300D01*
X776100Y-1694300D01*
X777500Y-1695300D01*
Y-1697500D01*
X776100Y-1698500D01*
G01X831900Y-1632900D02*
X826500Y-1635000D01*
X822400Y-1640300D01*
X819700Y-1646700D01*
X817700Y-1655100D01*
X817000Y-1664700D01*
X817700Y-1674200D01*
X819700Y-1682600D01*
X822400Y-1689000D01*
X826500Y-1694300D01*
X831900Y-1696400D01*
X837300Y-1694300D01*
X841400Y-1689000D01*
X844100Y-1682600D01*
X846100Y-1674200D01*
X846800Y-1664700D01*
X846100Y-1655100D01*
X844100Y-1646700D01*
X841400Y-1640300D01*
X837300Y-1635000D01*
X831900Y-1632900D01*
G01X874800Y-1669900D02*
X879600Y-1662500D01*
X883600Y-1658300D01*
X889100Y-1656200D01*
X893800Y-1658300D01*
X897200Y-1662500D01*
X899900Y-1668900D01*
X900600Y-1676300D01*
X899900Y-1682600D01*
X897200Y-1689000D01*
X893100Y-1694300D01*
X888400Y-1696400D01*
X883000Y-1694300D01*
X878200Y-1687900D01*
X875500Y-1678400D01*
X874800Y-1667800D01*
X876200Y-1654100D01*
X878200Y-1646700D01*
X881600Y-1639300D01*
X886300Y-1634000D01*
X891100Y-1632900D01*
X895800Y-1635000D01*
X899200Y-1640300D01*
G01X942100Y-1696400D02*
X943500Y-1682600D01*
X945500Y-1671000D01*
X948200Y-1660400D01*
X951600Y-1648800D01*
X957000Y-1632900D01*
X930000D01*
G01X664500Y-1886900D02*
Y-1823400D01*
X656400Y-1836100D01*
G01Y-1886900D02*
X672600D01*
G01X720300Y-1889000D02*
X718900Y-1888000D01*
Y-1885800D01*
X720300Y-1884800D01*
X721700Y-1885800D01*
Y-1888000D01*
X720300Y-1889000D01*
G01X784200Y-1886900D02*
Y-1823400D01*
X759200Y-1868900D01*
X793000D01*
G01X821800Y-1844600D02*
X842000Y-1886900D01*
G01Y-1844600D02*
X821800Y-1886900D01*
G01X887700Y-1823400D02*
X882300Y-1825500D01*
X878200Y-1830800D01*
X875500Y-1837200D01*
X873500Y-1845600D01*
X872800Y-1855200D01*
X873500Y-1864700D01*
X875500Y-1873100D01*
X878200Y-1879500D01*
X882300Y-1884800D01*
X887700Y-1886900D01*
X893100Y-1884800D01*
X897200Y-1879500D01*
X899900Y-1873100D01*
X901900Y-1864700D01*
X902600Y-1855200D01*
X901900Y-1845600D01*
X899900Y-1837200D01*
X897200Y-1830800D01*
X893100Y-1825500D01*
X887700Y-1823400D01*
G01X943500Y-1889000D02*
X942100Y-1888000D01*
Y-1885800D01*
X943500Y-1884800D01*
X944900Y-1885800D01*
Y-1888000D01*
X943500Y-1889000D01*
G01X984400Y-1877400D02*
X988500Y-1882700D01*
X993200Y-1885800D01*
X999300Y-1886900D01*
X1005400Y-1884800D01*
X1010100Y-1880600D01*
X1013500Y-1873100D01*
X1014200Y-1864700D01*
X1012800Y-1856200D01*
X1009400Y-1850900D01*
X1004700Y-1846700D01*
X1000000Y-1845600D01*
X995200Y-1846700D01*
X989200Y-1850900D01*
X991200Y-1823400D01*
X1009400D01*
G01X405800Y-1046200D02*
Y-1950400D01*
G01X734000Y-1132900D02*
X739400Y-1138200D01*
X745500Y-1141400D01*
X750900D01*
X756300Y-1138200D01*
X760400Y-1132900D01*
X762400Y-1125500D01*
X761100Y-1118100D01*
X757700Y-1111800D01*
X751600Y-1107500D01*
X743500Y-1105400D01*
X738700Y-1101200D01*
X736700Y-1093800D01*
X738100Y-1086400D01*
X741400Y-1081100D01*
X746200Y-1077900D01*
X750900D01*
X755600Y-1080000D01*
X759700Y-1085300D01*
G01X795900Y-1077900D02*
X812100D01*
G01X804000D02*
Y-1141400D01*
G01X795900D02*
X812100D01*
G01X846900Y-1077900D02*
X872700D01*
X846900Y-1141400D01*
X872700D01*
G01X929100D02*
X902100D01*
Y-1077900D01*
X929100D01*
G01X918300Y-1108600D02*
X902100D01*
G01X378200Y-349200D02*
Y-285700D01*
X391700D01*
X397200Y-288900D01*
X401200Y-293100D01*
X404600Y-299500D01*
X407300Y-306900D01*
X408000Y-317500D01*
X407300Y-328000D01*
X404600Y-335400D01*
X401200Y-341800D01*
X397200Y-346000D01*
X391700Y-349200D01*
X378200D01*
G01X435400D02*
Y-285700D01*
X452300D01*
X457700Y-288900D01*
X461100Y-293100D01*
X462400Y-301600D01*
X461100Y-310000D01*
X457000Y-315300D01*
X452300Y-318500D01*
X435400D01*
G01X452300D02*
X462400Y-349200D01*
G01X496600Y-285700D02*
X512800D01*
G01X504700D02*
Y-349200D01*
G01X496600D02*
X512800D01*
G01X547000Y-285700D02*
Y-349200D01*
X574000D01*
G01X602800Y-285700D02*
Y-349200D01*
X629800D01*
G01X742800Y-291000D02*
X738700Y-287800D01*
X734000Y-285700D01*
X728600D01*
X722500Y-288900D01*
X717800Y-294200D01*
X714400Y-300500D01*
X711700Y-311100D01*
X711000Y-320600D01*
X712300Y-330200D01*
X714400Y-336500D01*
X718400Y-342900D01*
X723200Y-347100D01*
X727900Y-349200D01*
X732600D01*
X737400Y-347100D01*
X741400Y-343900D01*
X744800Y-339700D01*
G01X769500Y-349200D02*
Y-285700D01*
G01X797900D02*
Y-349200D01*
G01Y-317500D02*
X769500D01*
G01X822600Y-349200D02*
X839500Y-285700D01*
X856400Y-349200D01*
G01X850300Y-327000D02*
X828700D01*
G01X881800Y-349200D02*
Y-285700D01*
X898700D01*
X904100Y-288900D01*
X907500Y-293100D01*
X908800Y-301600D01*
X907500Y-310000D01*
X903400Y-315300D01*
X898700Y-318500D01*
X881800D01*
G01X898700D02*
X908800Y-349200D01*
G01X951100Y-285700D02*
Y-349200D01*
G01X935500Y-285700D02*
X966700D01*
G01X1006900Y-351300D02*
X1005500Y-350300D01*
Y-348100D01*
X1006900Y-347100D01*
X1008300Y-348100D01*
Y-350300D01*
X1006900Y-351300D01*
G01Y-322700D02*
X1005500Y-321700D01*
Y-319600D01*
X1006900Y-318500D01*
X1008300Y-319600D01*
Y-321700D01*
X1006900Y-322700D01*
G01X1118500Y-285700D02*
Y-349200D01*
G01X1102900Y-285700D02*
X1134100D01*
G01X1174300Y-349200D02*
X1168900Y-348100D01*
X1164200Y-343900D01*
X1160100Y-337600D01*
X1157400Y-330200D01*
X1156000Y-321700D01*
Y-313200D01*
X1157400Y-304700D01*
X1160100Y-297300D01*
X1164200Y-291000D01*
X1168900Y-286800D01*
X1174300Y-285700D01*
X1179700Y-286800D01*
X1184400Y-291000D01*
X1188500Y-297300D01*
X1191200Y-304700D01*
X1192600Y-313200D01*
Y-321700D01*
X1191200Y-330200D01*
X1188500Y-337600D01*
X1184400Y-343900D01*
X1179700Y-348100D01*
X1174300Y-349200D01*
G01X1216600D02*
Y-285700D01*
X1232800D01*
X1238200Y-288900D01*
X1242300Y-296300D01*
X1243600Y-304700D01*
X1242300Y-313200D01*
X1238900Y-319600D01*
X1232800Y-322700D01*
X1216600D01*
G01X1341700Y-285700D02*
Y-349200D01*
G01X1332200Y-306900D02*
X1351200D01*
G01X1397500Y-349200D02*
X1393400Y-348100D01*
X1389400Y-343900D01*
X1386700Y-336500D01*
X1385300Y-328000D01*
X1386700Y-319600D01*
X1389400Y-312200D01*
X1393400Y-307900D01*
X1397500Y-306900D01*
X1401600Y-307900D01*
X1405600Y-312200D01*
X1408300Y-319600D01*
X1409000Y-328000D01*
X1408300Y-336500D01*
X1405600Y-343900D01*
X1401600Y-348100D01*
X1397500Y-349200D01*
G01X1514500Y-315300D02*
X1517200Y-312200D01*
X1519200Y-306900D01*
X1520600Y-299500D01*
X1519200Y-293100D01*
X1516500Y-288900D01*
X1511800Y-285700D01*
X1493500D01*
Y-349200D01*
X1515900D01*
X1520600Y-345000D01*
X1523300Y-338600D01*
X1524700Y-331200D01*
X1523300Y-323800D01*
X1519200Y-317500D01*
X1514500Y-315300D01*
X1493500D01*
G01X1564900Y-349200D02*
X1559500Y-348100D01*
X1554800Y-343900D01*
X1550700Y-337600D01*
X1548000Y-330200D01*
X1546600Y-321700D01*
Y-313200D01*
X1548000Y-304700D01*
X1550700Y-297300D01*
X1554800Y-291000D01*
X1559500Y-286800D01*
X1564900Y-285700D01*
X1570300Y-286800D01*
X1575000Y-291000D01*
X1579100Y-297300D01*
X1581800Y-304700D01*
X1583200Y-313200D01*
Y-321700D01*
X1581800Y-330200D01*
X1579100Y-337600D01*
X1575000Y-343900D01*
X1570300Y-348100D01*
X1564900Y-349200D01*
G01X1620700Y-285700D02*
Y-349200D01*
G01X1605100Y-285700D02*
X1636300D01*
G01X1676500D02*
Y-349200D01*
G01X1660900Y-285700D02*
X1692100D01*
G01X1732300Y-349200D02*
X1726900Y-348100D01*
X1722200Y-343900D01*
X1718100Y-337600D01*
X1715400Y-330200D01*
X1714000Y-321700D01*
Y-313200D01*
X1715400Y-304700D01*
X1718100Y-297300D01*
X1722200Y-291000D01*
X1726900Y-286800D01*
X1732300Y-285700D01*
X1737700Y-286800D01*
X1742400Y-291000D01*
X1746500Y-297300D01*
X1749200Y-304700D01*
X1750600Y-313200D01*
Y-321700D01*
X1749200Y-330200D01*
X1746500Y-337600D01*
X1742400Y-343900D01*
X1737700Y-348100D01*
X1732300Y-349200D01*
G01X1770500D02*
Y-285700D01*
X1788100Y-338600D01*
X1805700Y-285700D01*
Y-349200D01*
G01X1391600Y-1315400D02*
Y-1251900D01*
X1407800D01*
X1413200Y-1255100D01*
X1417300Y-1262500D01*
X1418600Y-1270900D01*
X1417300Y-1279400D01*
X1413900Y-1285800D01*
X1407800Y-1288900D01*
X1391600D01*
G01X1447400Y-1251900D02*
Y-1315400D01*
X1474400D01*
G01X1499800D02*
X1516700Y-1251900D01*
X1533600Y-1315400D01*
G01X1527500Y-1293200D02*
X1505900D01*
G01X1572500Y-1251900D02*
Y-1315400D01*
G01X1556900Y-1251900D02*
X1588100D01*
G01X1641800Y-1315400D02*
X1614800D01*
Y-1251900D01*
X1641800D01*
G01X1631000Y-1282600D02*
X1614800D01*
G01X1669200Y-1315400D02*
Y-1251900D01*
X1682700D01*
X1688200Y-1255100D01*
X1692200Y-1259300D01*
X1695600Y-1265700D01*
X1698300Y-1273100D01*
X1699000Y-1283700D01*
X1698300Y-1294200D01*
X1695600Y-1301600D01*
X1692200Y-1308000D01*
X1688200Y-1312200D01*
X1682700Y-1315400D01*
X1669200D01*
G01X1391600Y-1505900D02*
Y-1442400D01*
X1407800D01*
X1413200Y-1445600D01*
X1417300Y-1453000D01*
X1418600Y-1461400D01*
X1417300Y-1469900D01*
X1413900Y-1476300D01*
X1407800Y-1479400D01*
X1391600D01*
G01X1447400Y-1442400D02*
Y-1505900D01*
X1474400D01*
G01X1499800D02*
X1516700Y-1442400D01*
X1533600Y-1505900D01*
G01X1527500Y-1483700D02*
X1505900D01*
G01X1572500Y-1442400D02*
Y-1505900D01*
G01X1556900Y-1442400D02*
X1588100D01*
G01X1641800Y-1505900D02*
X1614800D01*
Y-1442400D01*
X1641800D01*
G01X1631000Y-1473100D02*
X1614800D01*
G01X1669200Y-1505900D02*
Y-1442400D01*
X1682700D01*
X1688200Y-1445600D01*
X1692200Y-1449800D01*
X1695600Y-1456200D01*
X1698300Y-1463600D01*
X1699000Y-1474200D01*
X1698300Y-1484700D01*
X1695600Y-1492100D01*
X1692200Y-1498500D01*
X1688200Y-1502700D01*
X1682700Y-1505900D01*
X1669200D01*
G01X1391600Y-1696400D02*
Y-1632900D01*
X1407800D01*
X1413200Y-1636100D01*
X1417300Y-1643500D01*
X1418600Y-1651900D01*
X1417300Y-1660400D01*
X1413900Y-1666800D01*
X1407800Y-1669900D01*
X1391600D01*
G01X1447400Y-1632900D02*
Y-1696400D01*
X1474400D01*
G01X1499800D02*
X1516700Y-1632900D01*
X1533600Y-1696400D01*
G01X1527500Y-1674200D02*
X1505900D01*
G01X1572500Y-1632900D02*
Y-1696400D01*
G01X1556900Y-1632900D02*
X1588100D01*
G01X1641800Y-1696400D02*
X1614800D01*
Y-1632900D01*
X1641800D01*
G01X1631000Y-1663600D02*
X1614800D01*
G01X1669200Y-1696400D02*
Y-1632900D01*
X1682700D01*
X1688200Y-1636100D01*
X1692200Y-1640300D01*
X1695600Y-1646700D01*
X1698300Y-1654100D01*
X1699000Y-1664700D01*
X1698300Y-1675200D01*
X1695600Y-1682600D01*
X1692200Y-1689000D01*
X1688200Y-1693200D01*
X1682700Y-1696400D01*
X1669200D01*
G01X1391600Y-1886900D02*
Y-1823400D01*
X1407800D01*
X1413200Y-1826600D01*
X1417300Y-1834000D01*
X1418600Y-1842400D01*
X1417300Y-1850900D01*
X1413900Y-1857300D01*
X1407800Y-1860400D01*
X1391600D01*
G01X1447400Y-1823400D02*
Y-1886900D01*
X1474400D01*
G01X1499800D02*
X1516700Y-1823400D01*
X1533600Y-1886900D01*
G01X1527500Y-1864700D02*
X1505900D01*
G01X1572500Y-1823400D02*
Y-1886900D01*
G01X1556900Y-1823400D02*
X1588100D01*
G01X1641800Y-1886900D02*
X1614800D01*
Y-1823400D01*
X1641800D01*
G01X1631000Y-1854100D02*
X1614800D01*
G01X1669200Y-1886900D02*
Y-1823400D01*
X1682700D01*
X1688200Y-1826600D01*
X1692200Y-1830800D01*
X1695600Y-1837200D01*
X1698300Y-1844600D01*
X1699000Y-1855200D01*
X1698300Y-1865700D01*
X1695600Y-1873100D01*
X1692200Y-1879500D01*
X1688200Y-1883700D01*
X1682700Y-1886900D01*
X1669200D01*
G01X1258000Y-1046200D02*
Y-1950400D01*
G01X1831200Y-1046200D02*
Y-1950400D01*
G01X1391600Y-1141400D02*
Y-1077900D01*
X1407800D01*
X1413200Y-1081100D01*
X1417300Y-1088500D01*
X1418600Y-1096900D01*
X1417300Y-1105400D01*
X1413900Y-1111800D01*
X1407800Y-1114900D01*
X1391600D01*
G01X1447400Y-1077900D02*
Y-1141400D01*
X1474400D01*
G01X1499800D02*
X1516700Y-1077900D01*
X1533600Y-1141400D01*
G01X1527500Y-1119200D02*
X1505900D01*
G01X1572500Y-1077900D02*
Y-1141400D01*
G01X1556900Y-1077900D02*
X1588100D01*
G01X1641800Y-1141400D02*
X1614800D01*
Y-1077900D01*
X1641800D01*
G01X1631000Y-1108600D02*
X1614800D01*
G01X1669200Y-1141400D02*
Y-1077900D01*
X1682700D01*
X1688200Y-1081100D01*
X1692200Y-1085300D01*
X1695600Y-1091700D01*
X1698300Y-1099100D01*
X1699000Y-1109700D01*
X1698300Y-1120200D01*
X1695600Y-1127600D01*
X1692200Y-1134000D01*
X1688200Y-1138200D01*
X1682700Y-1141400D01*
X1669200D01*
G01X1965400Y-1262500D02*
X1969500Y-1256100D01*
X1974200Y-1253000D01*
X1979700Y-1251900D01*
X1986400Y-1254000D01*
X1991200Y-1259300D01*
X1992500Y-1265700D01*
X1991800Y-1272000D01*
X1989100Y-1277300D01*
X1975600Y-1287900D01*
X1969500Y-1295300D01*
X1965400Y-1305900D01*
X1964100Y-1315400D01*
X1992500D01*
G01X2034100D02*
X2038800Y-1314300D01*
X2044200Y-1311200D01*
X2047600Y-1305900D01*
X2049000Y-1298500D01*
X2047600Y-1291100D01*
X2043600Y-1284700D01*
X2037500Y-1281500D01*
X2030700D01*
X2026700Y-1279400D01*
X2023300Y-1274100D01*
X2021900Y-1266700D01*
X2024000Y-1259300D01*
X2028700Y-1254000D01*
X2034100Y-1251900D01*
X2039500Y-1254000D01*
X2044200Y-1259300D01*
X2046300Y-1266700D01*
X2044900Y-1274100D01*
X2041500Y-1279400D01*
X2037500Y-1281500D01*
X2030700D01*
X2024600Y-1284700D01*
X2020600Y-1291100D01*
X2019200Y-1298500D01*
X2020600Y-1305900D01*
X2024000Y-1311200D01*
X2029400Y-1314300D01*
X2034100Y-1315400D01*
G01X1963400Y-1496400D02*
X1967500Y-1501700D01*
X1972200Y-1504800D01*
X1978300Y-1505900D01*
X1984400Y-1503800D01*
X1989100Y-1499600D01*
X1992500Y-1492100D01*
X1993200Y-1483700D01*
X1991800Y-1475200D01*
X1988400Y-1469900D01*
X1983700Y-1465700D01*
X1979000Y-1464600D01*
X1974200Y-1465700D01*
X1968200Y-1469900D01*
X1970200Y-1442400D01*
X1988400D01*
G01X2021200Y-1479400D02*
X2026000Y-1472000D01*
X2030000Y-1467800D01*
X2035500Y-1465700D01*
X2040200Y-1467800D01*
X2043600Y-1472000D01*
X2046300Y-1478400D01*
X2047000Y-1485800D01*
X2046300Y-1492100D01*
X2043600Y-1498500D01*
X2039500Y-1503800D01*
X2034800Y-1505900D01*
X2029400Y-1503800D01*
X2024600Y-1497400D01*
X2021900Y-1487900D01*
X2021200Y-1477300D01*
X2022600Y-1463600D01*
X2024600Y-1456200D01*
X2028000Y-1448800D01*
X2032700Y-1443500D01*
X2037500Y-1442400D01*
X2042200Y-1444500D01*
X2045600Y-1449800D01*
G01X1978300Y-1696400D02*
Y-1632900D01*
X1970200Y-1645600D01*
G01Y-1696400D02*
X1986400D01*
G01X2019200Y-1686900D02*
X2023300Y-1692200D01*
X2028000Y-1695300D01*
X2034100Y-1696400D01*
X2040200Y-1694300D01*
X2044900Y-1690100D01*
X2048300Y-1682600D01*
X2049000Y-1674200D01*
X2047600Y-1665700D01*
X2044200Y-1660400D01*
X2039500Y-1656200D01*
X2034800Y-1655100D01*
X2030000Y-1656200D01*
X2024000Y-1660400D01*
X2026000Y-1632900D01*
X2044200D01*
G01X2014300Y-1886900D02*
Y-1823400D01*
X1989300Y-1868900D01*
X2023100D01*
G01X1950400Y-1141400D02*
X1945000Y-1140300D01*
X1940300Y-1136100D01*
X1936200Y-1129800D01*
X1933500Y-1122400D01*
X1932100Y-1113900D01*
Y-1105400D01*
X1933500Y-1096900D01*
X1936200Y-1089500D01*
X1940300Y-1083200D01*
X1945000Y-1079000D01*
X1950400Y-1077900D01*
X1955800Y-1079000D01*
X1960500Y-1083200D01*
X1964600Y-1089500D01*
X1967300Y-1096900D01*
X1968700Y-1105400D01*
Y-1113900D01*
X1967300Y-1122400D01*
X1964600Y-1129800D01*
X1960500Y-1136100D01*
X1955800Y-1140300D01*
X1950400Y-1141400D01*
G01X1955800Y-1124500D02*
X1963900Y-1141400D01*
G01X2006200Y-1077900D02*
Y-1141400D01*
G01X1990600Y-1077900D02*
X2021800D01*
G01X2062000Y-1141400D02*
Y-1112800D01*
X2048500Y-1077900D01*
G01X2075500D02*
X2062000Y-1112800D01*
G01X10388500Y98500D02*
X10958500D01*
Y1308500D01*
X10388500D01*
Y98500D01*
M02*
