G04 ================== begin FILE IDENTIFICATION RECORD ==================*
G04 Layout Name:  avrusb500.brd*
G04 Film Name:    MetalT*
G04 File Format:  Gerber RS274X*
G04 File Origin:  Cadence Allegro 17.2-P019*
G04 Origin Date:  Mon Jul 29 16:04:59 2019*
G04 *
G04 Layer:  PIN/PASTEMASK_TOP*
G04 Layer:  PACKAGE GEOMETRY/PASTEMASK_TOP*
G04 *
G04 Offset:    (0.000 0.000)*
G04 Mirror:    No*
G04 Mode:      Positive*
G04 Rotation:  0*
G04 FullContactRelief:  No*
G04 UndefLineWidth:     0.000*
G04 ================== end FILE IDENTIFICATION RECORD ====================*
%FSLAX55Y55*MOMM*%
%IR0*IPPOS*OFA0.00000B0.00000*MIA0B0*SFA1.00000B1.00000*%
%ADD18R,2.25X.5*%
%ADD19R,2.X2.*%
%ADD13O,.457X1.778*%
%ADD12O,1.778X.457*%
%ADD16R,.457X1.778*%
%ADD14R,1.778X.457*%
%ADD17R,1.5X2.*%
%ADD15R,1.829X2.591*%
%ADD10R,2.591X1.829*%
%ADD11R,1.499X2.845*%
%LPD*%
G75*
G54D10*
X508000Y1016000D03*
Y1526500D03*
X5080000Y2540000D03*
Y2029500D03*
Y3048000D03*
Y3558500D03*
X10414000Y2540000D03*
Y2029500D03*
Y3045500D03*
Y3556000D03*
G54D11*
X2540000Y1270000D03*
X2113300D03*
X2540000Y2032000D03*
X2113300D03*
X2540000Y2794000D03*
X2113300D03*
X2540000Y3556000D03*
X2113300D03*
X4127500Y4127500D03*
X4554200D03*
X6177300Y317500D03*
Y825500D03*
Y1397000D03*
Y2667000D03*
Y2032000D03*
X6159500Y3365500D03*
X6177300Y3937000D03*
X6604000Y317500D03*
Y825500D03*
Y1397000D03*
Y2667000D03*
Y2032000D03*
X6586200Y3365500D03*
X6604000Y3937000D03*
X8636000Y381000D03*
X8209300D03*
X8191500Y1460500D03*
X8618200D03*
X9906000Y4191000D03*
X10332700D03*
G54D12*
X3150900Y2589500D03*
Y2509500D03*
Y2429500D03*
Y2349500D03*
Y2909600D03*
Y2829600D03*
Y2749500D03*
X4000500Y2429500D03*
Y2509500D03*
Y2589500D03*
Y2669500D03*
Y2749500D03*
Y2829600D03*
Y2909600D03*
X7983200Y2510800D03*
Y2430800D03*
Y2990800D03*
Y2910800D03*
Y2830800D03*
Y2750800D03*
Y2670800D03*
X8832800Y2430800D03*
Y2590800D03*
Y2670800D03*
Y2750800D03*
Y2830800D03*
Y2910800D03*
Y2990800D03*
G54D13*
X3295700Y2204700D03*
X3375700D03*
Y3054300D03*
X3295700D03*
X3455700Y2204700D03*
X3535700D03*
X3615700D03*
X3775700D03*
X3855700D03*
Y3054300D03*
X3695700D03*
X3615700D03*
X3535700D03*
X3455700D03*
X8208000Y2286000D03*
X8288000D03*
X8368000D03*
X8448000D03*
X8528000D03*
X8608100D03*
X8688100D03*
Y3135600D03*
X8608100D03*
X8528000D03*
X8368000D03*
X8288000D03*
X8208000D03*
X8128000D03*
G54D14*
X3150900Y2669500D03*
X4000500Y2349500D03*
X7983200Y2590800D03*
X8832800Y2510800D03*
G54D15*
X3556000Y508000D03*
X4066500D03*
X4823500D03*
X5334000D03*
G54D16*
X3695700Y2204700D03*
X3775700Y3054300D03*
X8128000Y2286000D03*
X8448000Y3135600D03*
G54D17*
X10160000Y207000D03*
Y1506000D03*
G54D18*
Y1016000D03*
Y936200D03*
Y856500D03*
Y776700D03*
Y697000D03*
G54D19*
X10585000Y207000D03*
Y1506000D03*
M02*
