G04 ================== begin FILE IDENTIFICATION RECORD ==================*
G04 Layout Name:  AVRUSB500_new.brd*
G04 Film Name:    MetalT*
G04 File Format:  Gerber RS274X*
G04 File Origin:  Cadence Allegro 16.6-S034*
G04 Origin Date:  Fri Jul 19 12:25:43 2019*
G04 *
G04 Layer:  PIN/PASTEMASK_TOP*
G04 Layer:  PACKAGE GEOMETRY/PASTEMASK_TOP*
G04 *
G04 Offset:    (0.000 0.000)*
G04 Mirror:    No*
G04 Mode:      Positive*
G04 Rotation:  0*
G04 FullContactRelief:  No*
G04 UndefLineWidth:     0.000*
G04 ================== end FILE IDENTIFICATION RECORD ====================*
%FSLAX25Y25*MOMM*%
%IR0*IPPOS*OFA0.00000B0.00000*MIA0B0*SFA1.00000B1.00000*%
%ADD14R,1.72X.4*%
%ADD11O,.457X1.778*%
%ADD10O,1.778X.457*%
%ADD13R,.457X1.778*%
%ADD12R,1.778X.457*%
%ADD15R,1.72X1.1*%
%LPD*%
G75*
G54D10*
X3150900Y2589500D03*
Y2509500D03*
Y2429500D03*
Y2349500D03*
Y2909600D03*
Y2829600D03*
Y2749500D03*
X4000500Y2429500D03*
Y2509500D03*
Y2589500D03*
Y2669500D03*
Y2749500D03*
Y2829600D03*
Y2909600D03*
X8237200Y2609800D03*
Y2529800D03*
Y2449800D03*
Y2369800D03*
Y2289800D03*
Y2129800D03*
Y2049800D03*
X9086800D03*
Y2209800D03*
Y2289800D03*
Y2369800D03*
Y2449800D03*
Y2529800D03*
Y2609800D03*
G54D11*
X3295700Y2204700D03*
X3375700D03*
Y3054300D03*
X3295700D03*
X3455700Y2204700D03*
X3535700D03*
X3615700D03*
X3775700D03*
X3855700D03*
Y3054300D03*
X3695700D03*
X3615700D03*
X3535700D03*
X3455700D03*
X8462000Y1905000D03*
X8542000D03*
X8622000D03*
X8702000D03*
X8622000Y2754600D03*
X8542000D03*
X8462000D03*
X8382000D03*
X8782000Y1905000D03*
X8862100D03*
X8942100D03*
Y2754600D03*
X8862100D03*
X8782000D03*
G54D12*
X3150900Y2669500D03*
X4000500Y2349500D03*
X8237200Y2209800D03*
X9086800Y2129800D03*
G54D13*
X3695700Y2204700D03*
X3775700Y3054300D03*
X8382000Y1905000D03*
X8702000Y2754600D03*
G54D14*
X10488500Y828500D03*
Y763500D03*
Y698500D03*
Y633500D03*
Y568500D03*
G54D15*
Y918500D03*
Y478500D03*
M02*
