G04 ================== begin FILE IDENTIFICATION RECORD ==================*
G04 Layout Name:  avrusb500.brd*
G04 Film Name:    SilkB*
G04 File Format:  Gerber RS274X*
G04 File Origin:  Cadence Allegro 17.2-P019*
G04 Origin Date:  Mon Jul 29 16:04:59 2019*
G04 *
G04 Layer:  REF DES/SILKSCREEN_TOP*
G04 Layer:  PACKAGE GEOMETRY/SILKSCREEN_BOTTOM*
G04 Layer:  BOARD GEOMETRY/SILKSCREEN_BOTTOM*
G04 *
G04 Offset:    (0.000 0.000)*
G04 Mirror:    No*
G04 Mode:      Positive*
G04 Rotation:  0*
G04 FullContactRelief:  No*
G04 UndefLineWidth:     0.200*
G04 ================== end FILE IDENTIFICATION RECORD ====================*
%FSLAX55Y55*MOMM*%
%IR0*IPPOS*OFA0.00000B0.00000*MIA0B0*SFA1.00000B1.00000*%
%ADD10C,.2*%
G75*
%LPD*%
G75*
G54D10*
G01X810600Y94700D02*
X820200Y88300D01*
X831500Y84100D01*
X844300D01*
X858800Y90500D01*
X870100Y101000D01*
X878100Y113700D01*
X884600Y134900D01*
X886200Y154000D01*
X882900Y173000D01*
X878100Y185700D01*
X868500Y198400D01*
X857200Y206900D01*
X846000Y211100D01*
X834700D01*
X823400Y206900D01*
X813800Y200500D01*
X805700Y192100D01*
G01X747000Y158200D02*
X735800Y143400D01*
X726100Y134900D01*
X713200Y130700D01*
X702000Y134900D01*
X693900Y143400D01*
X687500Y156100D01*
X685900Y170900D01*
X687500Y183600D01*
X693900Y196300D01*
X703600Y206900D01*
X714800Y211100D01*
X727700Y206900D01*
X739000Y194200D01*
X745400Y175100D01*
X747000Y154000D01*
X743800Y126400D01*
X739000Y111600D01*
X730900Y96800D01*
X719700Y86200D01*
X708400Y84100D01*
X697100Y88300D01*
X689100Y98900D01*
G01X728400Y998200D02*
X718800Y984000D01*
X712500Y967400D01*
Y948500D01*
X722000Y927100D01*
X737900Y910600D01*
X757000Y898700D01*
X788700Y889200D01*
X817300Y886800D01*
X845900Y891600D01*
X864900Y898700D01*
X884000Y912900D01*
X896700Y929500D01*
X903000Y946100D01*
Y962700D01*
X896700Y979300D01*
X887100Y993500D01*
X874400Y1005400D01*
G01X903000Y1136600D02*
X712500D01*
X750600Y1108200D01*
G01X903000D02*
Y1165000D01*
G01X712500Y1327100D02*
X718800Y1308100D01*
X734700Y1293900D01*
X753800Y1284400D01*
X779200Y1277300D01*
X807800Y1275000D01*
X836300Y1277300D01*
X861700Y1284400D01*
X880800Y1293900D01*
X896700Y1308100D01*
X903000Y1327100D01*
X896700Y1346100D01*
X880800Y1360300D01*
X861700Y1369800D01*
X836300Y1376900D01*
X807800Y1379200D01*
X779200Y1376900D01*
X753800Y1369800D01*
X734700Y1360300D01*
X718800Y1346100D01*
X712500Y1327100D01*
G01X1221400Y921300D02*
X1211800Y927700D01*
X1200500Y931900D01*
X1187700D01*
X1173200Y925500D01*
X1161900Y915000D01*
X1153900Y902300D01*
X1147400Y881100D01*
X1145800Y862000D01*
X1149100Y843000D01*
X1153900Y830300D01*
X1163500Y817600D01*
X1174800Y809100D01*
X1186000Y804900D01*
X1197300D01*
X1208600Y809100D01*
X1218200Y815500D01*
X1226300Y823900D01*
G01X1280200D02*
X1289800Y813400D01*
X1301100Y807000D01*
X1315500Y804900D01*
X1330000Y809100D01*
X1341300Y817600D01*
X1349300Y832400D01*
X1350900Y849300D01*
X1347700Y866300D01*
X1339700Y876900D01*
X1328400Y885300D01*
X1317200Y887400D01*
X1305900Y885300D01*
X1291400Y876900D01*
X1296200Y931900D01*
X1339700D01*
G01X2237400Y921300D02*
X2227800Y927700D01*
X2216500Y931900D01*
X2203700D01*
X2189200Y925500D01*
X2177900Y915000D01*
X2169900Y902300D01*
X2163400Y881100D01*
X2161800Y862000D01*
X2165100Y843000D01*
X2169900Y830300D01*
X2179500Y817600D01*
X2190800Y809100D01*
X2202000Y804900D01*
X2213300D01*
X2224600Y809100D01*
X2234200Y815500D01*
X2242300Y823900D01*
G01X2304200Y819700D02*
X2315500Y809100D01*
X2328300Y804900D01*
X2341200Y809100D01*
X2352500Y821800D01*
X2360500Y840900D01*
X2363700Y859900D01*
Y883200D01*
X2360500Y902300D01*
X2352500Y919200D01*
X2342800Y927700D01*
X2331500Y931900D01*
X2318700Y927700D01*
X2309000Y919200D01*
X2302600Y906500D01*
X2299400Y889600D01*
X2302600Y874800D01*
X2310600Y859900D01*
X2320300Y851500D01*
X2331500Y849300D01*
X2344400Y853600D01*
X2354100Y864200D01*
X2363700Y883200D01*
G01X2658500Y1696700D02*
Y1506200D01*
X2599300D01*
X2580300Y1515700D01*
X2568400Y1528400D01*
X2563700Y1553800D01*
X2568400Y1579200D01*
X2582700Y1595100D01*
X2599300Y1604600D01*
X2658500D01*
G01X2599300D02*
X2563700Y1696700D01*
G01X2465600Y1537900D02*
X2451400Y1518900D01*
X2434800Y1509400D01*
X2415900Y1506200D01*
X2392200Y1512500D01*
X2375600Y1528400D01*
X2370800Y1547500D01*
X2373200Y1566500D01*
X2382700Y1582400D01*
X2430100Y1614200D01*
X2451400Y1636400D01*
X2465600Y1668100D01*
X2470400Y1696700D01*
X2370800D01*
G01X2658500Y2458700D02*
Y2268200D01*
X2599300D01*
X2580300Y2277700D01*
X2568400Y2290400D01*
X2563700Y2315800D01*
X2568400Y2341200D01*
X2582700Y2357100D01*
X2599300Y2366600D01*
X2658500D01*
G01X2599300D02*
X2563700Y2458700D01*
G01X2472700Y2420600D02*
X2458500Y2442800D01*
X2439600Y2455500D01*
X2418200Y2458700D01*
X2399300Y2455500D01*
X2380300Y2439700D01*
X2368500Y2420600D01*
X2366100Y2401600D01*
X2370800Y2379300D01*
X2387400Y2363500D01*
X2404000Y2357100D01*
X2425300D01*
G01X2404000D02*
X2389800Y2347600D01*
X2377900Y2331700D01*
X2373200Y2312700D01*
X2377900Y2293600D01*
X2389800Y2277700D01*
X2411100Y2268200D01*
X2432400Y2271400D01*
X2453800Y2284100D01*
G01X2658500Y3220700D02*
Y3030200D01*
X2599300D01*
X2580300Y3039700D01*
X2568400Y3052400D01*
X2563700Y3077800D01*
X2568400Y3103200D01*
X2582700Y3119100D01*
X2599300Y3128600D01*
X2658500D01*
G01X2599300D02*
X2563700Y3220700D01*
G01X2392200D02*
Y3030200D01*
X2479900Y3166700D01*
X2361300D01*
G01X1967100Y4151100D02*
X1954400Y4143100D01*
X1945900Y4133400D01*
X1941700Y4122200D01*
X1945900Y4109300D01*
X1954400Y4099600D01*
X1967100Y4090000D01*
X1984000Y4086800D01*
X2068700D01*
G01X1960700Y4024800D02*
X1950200Y4015200D01*
X1943800Y4003900D01*
X1941700Y3989500D01*
X1945900Y3975000D01*
X1954400Y3963700D01*
X1969200Y3955700D01*
X1986100Y3954100D01*
X2003100Y3957300D01*
X2013700Y3965300D01*
X2022100Y3976600D01*
X2024200Y3987800D01*
X2022100Y3999100D01*
X2013700Y4013600D01*
X2068700Y4008800D01*
Y3965300D01*
G01X2658500Y3982700D02*
Y3792200D01*
X2599300D01*
X2580300Y3801700D01*
X2568400Y3814400D01*
X2563700Y3839800D01*
X2568400Y3865200D01*
X2582700Y3881100D01*
X2599300Y3890600D01*
X2658500D01*
G01X2599300D02*
X2563700Y3982700D01*
G01X2420600D02*
Y3792200D01*
X2449000Y3830300D01*
G01Y3982700D02*
X2392200D01*
G01X2201700D02*
Y3792200D01*
X2289400Y3928700D01*
X2170800D01*
G01X3538200Y287600D02*
X3524000Y297200D01*
X3507400Y303500D01*
X3488500D01*
X3467100Y294000D01*
X3450600Y278100D01*
X3438700Y259000D01*
X3429200Y227300D01*
X3426800Y198700D01*
X3431600Y170100D01*
X3438700Y151100D01*
X3452900Y132000D01*
X3469500Y119300D01*
X3486100Y113000D01*
X3502700D01*
X3519300Y119300D01*
X3533500Y128900D01*
X3545400Y141600D01*
G01X3624500Y151100D02*
X3638700Y128900D01*
X3657600Y116200D01*
X3679000Y113000D01*
X3697900Y116200D01*
X3716900Y132000D01*
X3728700Y151100D01*
X3731100Y170100D01*
X3726400Y192400D01*
X3709800Y208200D01*
X3693200Y214600D01*
X3671900D01*
G01X3693200D02*
X3707400Y224100D01*
X3719300Y240000D01*
X3724000Y259000D01*
X3719300Y278100D01*
X3707400Y294000D01*
X3686100Y303500D01*
X3664800Y300300D01*
X3643400Y287600D01*
G01X4009000Y3700800D02*
Y3891300D01*
X4068200D01*
X4087200Y3881800D01*
X4099100Y3869100D01*
X4103800Y3843700D01*
X4099100Y3818300D01*
X4084800Y3802400D01*
X4068200Y3792900D01*
X4009000D01*
G01X4068200D02*
X4103800Y3700800D01*
G01X4242200D02*
X4246900Y3742100D01*
X4254000Y3777000D01*
X4263500Y3808800D01*
X4275300Y3843700D01*
X4294300Y3891300D01*
X4199500D01*
G01X4656000Y1131900D02*
Y1074800D01*
X4688100Y1004900D01*
G01X4623800D02*
X4656000Y1074800D01*
G01X4557000Y1026100D02*
X4547400Y1013400D01*
X4536100Y1007000D01*
X4523200Y1004900D01*
X4507100Y1009100D01*
X4495900Y1019700D01*
X4492700Y1032400D01*
X4494300Y1045100D01*
X4500700Y1055700D01*
X4532900Y1076900D01*
X4547400Y1091700D01*
X4557000Y1112900D01*
X4560200Y1131900D01*
X4492700D01*
G01X4859600Y2557800D02*
X4869200Y2572000D01*
X4875500Y2588600D01*
Y2607500D01*
X4866000Y2628900D01*
X4850100Y2645400D01*
X4831000Y2657300D01*
X4799300Y2666800D01*
X4770700Y2669200D01*
X4742100Y2664400D01*
X4723100Y2657300D01*
X4704000Y2643100D01*
X4691300Y2626500D01*
X4685000Y2609900D01*
Y2593300D01*
X4691300Y2576700D01*
X4700900Y2562500D01*
X4713600Y2550600D01*
G01X4685000Y2419400D02*
X4875500D01*
X4837400Y2447800D01*
G01X4685000D02*
Y2391000D01*
G01X5351800Y728400D02*
X5366000Y718800D01*
X5382600Y712500D01*
X5401500D01*
X5422900Y722000D01*
X5439400Y737900D01*
X5451300Y757000D01*
X5460800Y788700D01*
X5463200Y817300D01*
X5458400Y845900D01*
X5451300Y864900D01*
X5437100Y884000D01*
X5420500Y896700D01*
X5403900Y903000D01*
X5387300D01*
X5370700Y896700D01*
X5356500Y887100D01*
X5344600Y874400D01*
G01X5258400Y744200D02*
X5244200Y725200D01*
X5227600Y715700D01*
X5208700Y712500D01*
X5185000Y718800D01*
X5168400Y734700D01*
X5163600Y753800D01*
X5166000Y772800D01*
X5175500Y788700D01*
X5222900Y820500D01*
X5244200Y842700D01*
X5258400Y874400D01*
X5263200Y903000D01*
X5163600D01*
G01X5300400Y3030200D02*
X5290800Y3016000D01*
X5284500Y2999400D01*
Y2980500D01*
X5294000Y2959100D01*
X5309900Y2942600D01*
X5329000Y2930700D01*
X5360700Y2921200D01*
X5389300Y2918800D01*
X5417900Y2923600D01*
X5436900Y2930700D01*
X5456000Y2944900D01*
X5468700Y2961500D01*
X5475000Y2978100D01*
Y2994700D01*
X5468700Y3011300D01*
X5459100Y3025500D01*
X5446400Y3037400D01*
G01X5475000Y3197000D02*
X5284500D01*
X5421000Y3109300D01*
Y3227900D01*
G01X6722500Y1252200D02*
Y1061700D01*
X6663300D01*
X6644300Y1071200D01*
X6632400Y1083900D01*
X6627700Y1109300D01*
X6632400Y1134700D01*
X6646700Y1150600D01*
X6663300Y1160100D01*
X6722500D01*
G01X6663300D02*
X6627700Y1252200D01*
G01X6529600Y1172800D02*
X6513000Y1150600D01*
X6498800Y1137900D01*
X6479900Y1131600D01*
X6463300Y1137900D01*
X6451400Y1150600D01*
X6441900Y1169700D01*
X6439600Y1191900D01*
X6441900Y1210900D01*
X6451400Y1230000D01*
X6465600Y1245900D01*
X6482200Y1252200D01*
X6501200Y1245900D01*
X6517800Y1226800D01*
X6527300Y1198200D01*
X6529600Y1166500D01*
X6524900Y1125200D01*
X6517800Y1103000D01*
X6505900Y1080800D01*
X6489300Y1064900D01*
X6472800Y1061700D01*
X6456200Y1068000D01*
X6444300Y1083900D01*
G01X6722500Y744200D02*
Y553700D01*
X6663300D01*
X6644300Y563200D01*
X6632400Y575900D01*
X6627700Y601300D01*
X6632400Y626700D01*
X6646700Y642600D01*
X6663300Y652100D01*
X6722500D01*
G01X6663300D02*
X6627700Y744200D01*
G01X6536700Y715600D02*
X6522500Y731500D01*
X6505900Y741000D01*
X6484600Y744200D01*
X6463300Y737900D01*
X6446700Y725200D01*
X6434800Y702900D01*
X6432500Y677500D01*
X6437200Y652100D01*
X6449100Y636200D01*
X6465600Y623600D01*
X6482200Y620400D01*
X6498800Y623600D01*
X6520100Y636200D01*
X6513000Y553700D01*
X6449100D01*
G01X6722500Y1823700D02*
Y1633200D01*
X6663300D01*
X6644300Y1642700D01*
X6632400Y1655400D01*
X6627700Y1680800D01*
X6632400Y1706200D01*
X6646700Y1722100D01*
X6663300Y1731600D01*
X6722500D01*
G01X6663300D02*
X6627700Y1823700D01*
G01X6484600D02*
Y1633200D01*
X6513000Y1671300D01*
G01Y1823700D02*
X6456200D01*
G01X6294100D02*
X6277500Y1820500D01*
X6258600Y1811000D01*
X6246700Y1795100D01*
X6242000Y1772900D01*
X6246700Y1750700D01*
X6260900Y1731600D01*
X6282300Y1722100D01*
X6305900D01*
X6320200Y1715700D01*
X6332000Y1699900D01*
X6336800Y1677700D01*
X6329600Y1655400D01*
X6313100Y1639500D01*
X6294100Y1633200D01*
X6275100Y1639500D01*
X6258600Y1655400D01*
X6251400Y1677700D01*
X6256200Y1699900D01*
X6268000Y1715700D01*
X6282300Y1722100D01*
X6305900D01*
X6327300Y1731600D01*
X6341500Y1750700D01*
X6346200Y1772900D01*
X6341500Y1795100D01*
X6329600Y1811000D01*
X6310700Y1820500D01*
X6294100Y1823700D01*
G01X6722500Y2458700D02*
Y2268200D01*
X6663300D01*
X6644300Y2277700D01*
X6632400Y2290400D01*
X6627700Y2315800D01*
X6632400Y2341200D01*
X6646700Y2357100D01*
X6663300Y2366600D01*
X6722500D01*
G01X6663300D02*
X6627700Y2458700D01*
G01X6484600D02*
Y2268200D01*
X6513000Y2306300D01*
G01Y2458700D02*
X6456200D01*
G01X6334400Y2436500D02*
X6317800Y2452400D01*
X6298800Y2458700D01*
X6279900Y2452400D01*
X6263300Y2433300D01*
X6251400Y2404700D01*
X6246700Y2376200D01*
Y2341200D01*
X6251400Y2312700D01*
X6263300Y2287300D01*
X6277500Y2274500D01*
X6294100Y2268200D01*
X6313100Y2274500D01*
X6327300Y2287300D01*
X6336800Y2306300D01*
X6341500Y2331700D01*
X6336800Y2353900D01*
X6324900Y2376200D01*
X6310700Y2388900D01*
X6294100Y2392000D01*
X6275100Y2385700D01*
X6260900Y2369800D01*
X6246700Y2341200D01*
G01X6041000Y2938800D02*
Y3129300D01*
X6100200D01*
X6119200Y3119800D01*
X6131100Y3107100D01*
X6135800Y3081700D01*
X6131100Y3056300D01*
X6116800Y3040400D01*
X6100200Y3030900D01*
X6041000D01*
G01X6100200D02*
X6135800Y2938800D01*
G01X6278900D02*
Y3129300D01*
X6250500Y3091200D01*
G01Y2938800D02*
X6307300D01*
G01X6424400Y3018200D02*
X6441000Y3040400D01*
X6455200Y3053100D01*
X6474100Y3059400D01*
X6490700Y3053100D01*
X6502600Y3040400D01*
X6512100Y3021300D01*
X6514400Y2999100D01*
X6512100Y2980100D01*
X6502600Y2961000D01*
X6488400Y2945100D01*
X6471800Y2938800D01*
X6452800Y2945100D01*
X6436200Y2964200D01*
X6426700Y2992800D01*
X6424400Y3024500D01*
X6429100Y3065800D01*
X6436200Y3088000D01*
X6448100Y3110200D01*
X6464700Y3126100D01*
X6481200Y3129300D01*
X6497800Y3123000D01*
X6509700Y3107100D01*
G01X6722500Y3093700D02*
Y2903200D01*
X6663300D01*
X6644300Y2912700D01*
X6632400Y2925400D01*
X6627700Y2950800D01*
X6632400Y2976200D01*
X6646700Y2992100D01*
X6663300Y3001600D01*
X6722500D01*
G01X6663300D02*
X6627700Y3093700D01*
G01X6529600Y2934900D02*
X6515400Y2915900D01*
X6498800Y2906400D01*
X6479900Y2903200D01*
X6456200Y2909500D01*
X6439600Y2925400D01*
X6434800Y2944500D01*
X6437200Y2963500D01*
X6446700Y2979400D01*
X6494100Y3011200D01*
X6515400Y3033400D01*
X6529600Y3065100D01*
X6534400Y3093700D01*
X6434800D01*
G01X6294100Y2903200D02*
X6313100Y2909500D01*
X6327300Y2925400D01*
X6336800Y2944500D01*
X6343900Y2969900D01*
X6346200Y2998500D01*
X6343900Y3027000D01*
X6336800Y3052400D01*
X6327300Y3071500D01*
X6313100Y3087400D01*
X6294100Y3093700D01*
X6275100Y3087400D01*
X6260900Y3071500D01*
X6251400Y3052400D01*
X6244300Y3027000D01*
X6242000Y2998500D01*
X6244300Y2969900D01*
X6251400Y2944500D01*
X6260900Y2925400D01*
X6275100Y2909500D01*
X6294100Y2903200D01*
G01X6722500Y4363700D02*
Y4173200D01*
X6663300D01*
X6644300Y4182700D01*
X6632400Y4195400D01*
X6627700Y4220800D01*
X6632400Y4246200D01*
X6646700Y4262100D01*
X6663300Y4271600D01*
X6722500D01*
G01X6663300D02*
X6627700Y4363700D01*
G01X6529600Y4204900D02*
X6515400Y4185900D01*
X6498800Y4176400D01*
X6479900Y4173200D01*
X6456200Y4179500D01*
X6439600Y4195400D01*
X6434800Y4214500D01*
X6437200Y4233500D01*
X6446700Y4249400D01*
X6494100Y4281200D01*
X6515400Y4303400D01*
X6529600Y4335100D01*
X6534400Y4363700D01*
X6434800D01*
G01X6294100D02*
Y4173200D01*
X6322500Y4211300D01*
G01Y4363700D02*
X6265700D01*
G01X7510900Y2372600D02*
X7549500D01*
G01X7530200D02*
Y2245600D01*
G01X7510900D02*
X7549500D01*
G01X7695100Y2362000D02*
X7685500Y2368400D01*
X7674200Y2372600D01*
X7661400D01*
X7646900Y2366200D01*
X7635600Y2355700D01*
X7627600Y2343000D01*
X7621100Y2321800D01*
X7619500Y2302700D01*
X7622800Y2283700D01*
X7627600Y2271000D01*
X7637200Y2258300D01*
X7648500Y2249800D01*
X7659700Y2245600D01*
X7671000D01*
X7682300Y2249800D01*
X7691900Y2256200D01*
X7700000Y2264600D01*
G01X7758700Y2351400D02*
X7768300Y2364100D01*
X7779600Y2370500D01*
X7792500Y2372600D01*
X7808600Y2368400D01*
X7819800Y2357800D01*
X7823000Y2345100D01*
X7821400Y2332400D01*
X7815000Y2321800D01*
X7782800Y2300600D01*
X7768300Y2285800D01*
X7758700Y2264600D01*
X7755500Y2245600D01*
X7823000D01*
G01X7278900Y3237100D02*
X7286900Y3224400D01*
X7296600Y3215900D01*
X7307800Y3211700D01*
X7320700Y3215900D01*
X7330400Y3224400D01*
X7340000Y3237100D01*
X7343200Y3254000D01*
Y3338700D01*
G01X7410000Y3264600D02*
X7421200Y3279400D01*
X7430900Y3287900D01*
X7443800Y3292100D01*
X7455000Y3287900D01*
X7463100Y3279400D01*
X7469500Y3266700D01*
X7471100Y3251900D01*
X7469500Y3239200D01*
X7463100Y3226500D01*
X7453400Y3215900D01*
X7442200Y3211700D01*
X7429300Y3215900D01*
X7418000Y3228600D01*
X7411600Y3247700D01*
X7410000Y3268800D01*
X7413200Y3296400D01*
X7418000Y3311200D01*
X7426100Y3326000D01*
X7437300Y3336600D01*
X7448600Y3338700D01*
X7459900Y3334500D01*
X7467900Y3323900D01*
G01X8073000Y1033800D02*
Y1224300D01*
X8132200D01*
X8151200Y1214800D01*
X8163100Y1202100D01*
X8167800Y1176700D01*
X8163100Y1151300D01*
X8148800Y1135400D01*
X8132200Y1125900D01*
X8073000D01*
G01X8132200D02*
X8167800Y1033800D01*
G01X8310900D02*
Y1224300D01*
X8282500Y1186200D01*
G01Y1033800D02*
X8339300D01*
G01X8754500Y807700D02*
Y617200D01*
X8695300D01*
X8676300Y626700D01*
X8664400Y639400D01*
X8659700Y664800D01*
X8664400Y690200D01*
X8678700Y706100D01*
X8695300Y715600D01*
X8754500D01*
G01X8695300D02*
X8659700Y807700D01*
G01X8516600D02*
X8500000Y804500D01*
X8481100Y795000D01*
X8469200Y779100D01*
X8464500Y756900D01*
X8469200Y734700D01*
X8483400Y715600D01*
X8504800Y706100D01*
X8528400D01*
X8542700Y699700D01*
X8554500Y683900D01*
X8559300Y661700D01*
X8552100Y639400D01*
X8535600Y623500D01*
X8516600Y617200D01*
X8497600Y623500D01*
X8481100Y639400D01*
X8473900Y661700D01*
X8478700Y683900D01*
X8490500Y699700D01*
X8504800Y706100D01*
X8528400D01*
X8549800Y715600D01*
X8564000Y734700D01*
X8568700Y756900D01*
X8564000Y779100D01*
X8552100Y795000D01*
X8533200Y804500D01*
X8516600Y807700D01*
G01X8660100Y3513100D02*
Y3386100D01*
X8628000D01*
X8615100Y3392500D01*
X8605400Y3400900D01*
X8597400Y3413600D01*
X8591000Y3428400D01*
X8589400Y3449600D01*
X8591000Y3470800D01*
X8597400Y3485600D01*
X8605400Y3498300D01*
X8615100Y3506800D01*
X8628000Y3513100D01*
X8660100D01*
G01X8525800Y3407300D02*
X8516200Y3394600D01*
X8504900Y3388200D01*
X8492000Y3386100D01*
X8475900Y3390300D01*
X8464700Y3400900D01*
X8461500Y3413600D01*
X8463100Y3426300D01*
X8469500Y3436900D01*
X8501700Y3458100D01*
X8516200Y3472900D01*
X8525800Y3494100D01*
X8529000Y3513100D01*
X8461500D01*
G01X10193600Y2557800D02*
X10203200Y2572000D01*
X10209500Y2588600D01*
Y2607500D01*
X10200000Y2628900D01*
X10184100Y2645400D01*
X10165000Y2657300D01*
X10133300Y2666800D01*
X10104700Y2669200D01*
X10076100Y2664400D01*
X10057100Y2657300D01*
X10038000Y2643100D01*
X10025300Y2626500D01*
X10019000Y2609900D01*
Y2593300D01*
X10025300Y2576700D01*
X10034900Y2562500D01*
X10047600Y2550600D01*
G01X10019000Y2419400D02*
X10209500D01*
X10171400Y2447800D01*
G01X10019000D02*
Y2391000D01*
G01Y2228900D02*
X10209500D01*
X10171400Y2257300D01*
G01X10019000D02*
Y2200500D01*
G01X9917100Y2814500D02*
X9974200D01*
X10044100Y2846600D01*
G01Y2782300D02*
X9974200Y2814500D01*
G01X9942500Y2720300D02*
X9927700Y2710700D01*
X9919200Y2697800D01*
X9917100Y2683300D01*
X9919200Y2670500D01*
X9929800Y2657600D01*
X9942500Y2649600D01*
X9955200Y2648000D01*
X9970000Y2651200D01*
X9980600Y2662400D01*
X9984800Y2673700D01*
Y2688200D01*
G01Y2673700D02*
X9991200Y2664000D01*
X10001800Y2656000D01*
X10014500Y2652800D01*
X10027200Y2656000D01*
X10037700Y2664000D01*
X10044100Y2678500D01*
X10042000Y2693000D01*
X10033500Y2707500D01*
G01X10193600Y3573800D02*
X10203200Y3588000D01*
X10209500Y3604600D01*
Y3623500D01*
X10200000Y3644900D01*
X10184100Y3661400D01*
X10165000Y3673300D01*
X10133300Y3682800D01*
X10104700Y3685200D01*
X10076100Y3680400D01*
X10057100Y3673300D01*
X10038000Y3659100D01*
X10025300Y3642500D01*
X10019000Y3625900D01*
Y3609300D01*
X10025300Y3592700D01*
X10034900Y3578500D01*
X10047600Y3566600D01*
G01X10019000Y3435400D02*
X10209500D01*
X10171400Y3463800D01*
G01X10019000D02*
Y3407000D01*
G01X10177800Y3289900D02*
X10196800Y3275700D01*
X10206300Y3259100D01*
X10209500Y3240200D01*
X10203200Y3216500D01*
X10187300Y3199900D01*
X10168200Y3195100D01*
X10149200Y3197500D01*
X10133300Y3207000D01*
X10101500Y3254400D01*
X10079300Y3275700D01*
X10047600Y3289900D01*
X10019000Y3294700D01*
Y3195100D01*
G01X9787500Y3764300D02*
Y3954800D01*
X9846700D01*
X9865700Y3945300D01*
X9877600Y3932600D01*
X9882300Y3907200D01*
X9877600Y3881800D01*
X9863300Y3865900D01*
X9846700Y3856400D01*
X9787500D01*
G01X9846700D02*
X9882300Y3764300D01*
G01X10025400D02*
Y3954800D01*
X9997000Y3916700D01*
G01Y3764300D02*
X10053800D01*
G01X10211200D02*
X10215900Y3805600D01*
X10223000Y3840500D01*
X10232500Y3872300D01*
X10244300Y3907200D01*
X10263300Y3954800D01*
X10168500D01*
G01X11098100Y992300D02*
X11079000Y980400D01*
X11066300Y966200D01*
X11060000Y949600D01*
X11066300Y930700D01*
X11079000Y916500D01*
X11098100Y902200D01*
X11123500Y897500D01*
X11250500D01*
G01X11218800Y799400D02*
X11237800Y785200D01*
X11247300Y768600D01*
X11250500Y749700D01*
X11244200Y726000D01*
X11228300Y709400D01*
X11209200Y704600D01*
X11190200Y707000D01*
X11174300Y716500D01*
X11142500Y763900D01*
X11120300Y785200D01*
X11088600Y799400D01*
X11060000Y804200D01*
Y704600D01*
M02*
