G04 ================== begin FILE IDENTIFICATION RECORD ==================*
G04 Layout Name:  AVRUSB500_new.brd*
G04 Film Name:    SilkB*
G04 File Format:  Gerber RS274X*
G04 File Origin:  Cadence Allegro 16.6-S034*
G04 Origin Date:  Fri Jul 19 12:25:43 2019*
G04 *
G04 Layer:  REF DES/SILKSCREEN_TOP*
G04 Layer:  PACKAGE GEOMETRY/SILKSCREEN_BOTTOM*
G04 Layer:  BOARD GEOMETRY/SILKSCREEN_BOTTOM*
G04 *
G04 Offset:    (0.000 0.000)*
G04 Mirror:    No*
G04 Mode:      Positive*
G04 Rotation:  0*
G04 FullContactRelief:  No*
G04 UndefLineWidth:     0.200*
G04 ================== end FILE IDENTIFICATION RECORD ====================*
%FSLAX25Y25*MOMM*%
%IR0*IPPOS*OFA0.00000B0.00000*MIA0B0*SFA1.00000B1.00000*%
%ADD10C,.2*%
G75*
%LPD*%
G75*
G54D10*
G01X94700Y1157900D02*
X88300Y1148300D01*
X84100Y1137000D01*
Y1124200D01*
X90500Y1109700D01*
X101000Y1098400D01*
X113700Y1090400D01*
X134900Y1083900D01*
X154000Y1082300D01*
X173000Y1085600D01*
X185700Y1090400D01*
X198400Y1100000D01*
X206900Y1111300D01*
X211100Y1122500D01*
Y1133800D01*
X206900Y1145100D01*
X200500Y1154700D01*
X192100Y1162800D01*
G01X211100Y1252000D02*
X84100D01*
X109500Y1232700D01*
G01X211100D02*
Y1271300D01*
G01X84100Y1381500D02*
X88300Y1368700D01*
X98900Y1359000D01*
X111600Y1352600D01*
X128600Y1347800D01*
X147600Y1346200D01*
X166700Y1347800D01*
X183600Y1352600D01*
X196300Y1359000D01*
X206900Y1368700D01*
X211100Y1381500D01*
X206900Y1394400D01*
X196300Y1404100D01*
X183600Y1410500D01*
X166700Y1415300D01*
X147600Y1416900D01*
X128600Y1415300D01*
X111600Y1410500D01*
X98900Y1404100D01*
X88300Y1394400D01*
X84100Y1381500D01*
G01X683600Y31200D02*
X693200Y24800D01*
X704500Y20600D01*
X717300D01*
X731800Y27000D01*
X743100Y37500D01*
X751100Y50200D01*
X757600Y71400D01*
X759200Y90500D01*
X755900Y109500D01*
X751100Y122200D01*
X741500Y134900D01*
X730200Y143400D01*
X719000Y147600D01*
X707700D01*
X696400Y143400D01*
X686800Y137000D01*
X678700Y128600D01*
G01X620000Y94700D02*
X608800Y79900D01*
X599100Y71400D01*
X586200Y67200D01*
X575000Y71400D01*
X566900Y79900D01*
X560500Y92600D01*
X558900Y107400D01*
X560500Y120100D01*
X566900Y132800D01*
X576600Y143400D01*
X587800Y147600D01*
X600700Y143400D01*
X612000Y130700D01*
X618400Y111600D01*
X620000Y90500D01*
X616800Y62900D01*
X612000Y48100D01*
X603900Y33300D01*
X592700Y22700D01*
X581400Y20600D01*
X570100Y24800D01*
X562100Y35400D01*
G01X1221400Y857800D02*
X1211800Y864200D01*
X1200500Y868400D01*
X1187700D01*
X1173200Y862000D01*
X1161900Y851500D01*
X1153900Y838800D01*
X1147400Y817600D01*
X1145800Y798500D01*
X1149100Y779500D01*
X1153900Y766800D01*
X1163500Y754100D01*
X1174800Y745600D01*
X1186000Y741400D01*
X1197300D01*
X1208600Y745600D01*
X1218200Y752000D01*
X1226300Y760400D01*
G01X1280200D02*
X1289800Y749900D01*
X1301100Y743500D01*
X1315500Y741400D01*
X1330000Y745600D01*
X1341300Y754100D01*
X1349300Y768900D01*
X1350900Y785800D01*
X1347700Y802800D01*
X1339700Y813400D01*
X1328400Y821800D01*
X1317200Y823900D01*
X1305900Y821800D01*
X1291400Y813400D01*
X1296200Y868400D01*
X1339700D01*
G01X1649600Y4087600D02*
X1636900Y4079600D01*
X1628400Y4069900D01*
X1624200Y4058700D01*
X1628400Y4045800D01*
X1636900Y4036100D01*
X1649600Y4026500D01*
X1666500Y4023300D01*
X1751200D01*
G01X1624200Y3906600D02*
X1751200D01*
X1660200Y3966200D01*
Y3885700D01*
G01X2110400Y857800D02*
X2100800Y864200D01*
X2089500Y868400D01*
X2076700D01*
X2062200Y862000D01*
X2050900Y851500D01*
X2042900Y838800D01*
X2036400Y817600D01*
X2034800Y798500D01*
X2038100Y779500D01*
X2042900Y766800D01*
X2052500Y754100D01*
X2063800Y745600D01*
X2075000Y741400D01*
X2086300D01*
X2097600Y745600D01*
X2107200Y752000D01*
X2115300Y760400D01*
G01X2177200Y756200D02*
X2188500Y745600D01*
X2201300Y741400D01*
X2214200Y745600D01*
X2225500Y758300D01*
X2233500Y777400D01*
X2236700Y796400D01*
Y819700D01*
X2233500Y838800D01*
X2225500Y855700D01*
X2215800Y864200D01*
X2204500Y868400D01*
X2191700Y864200D01*
X2182000Y855700D01*
X2175600Y843000D01*
X2172400Y826100D01*
X2175600Y811300D01*
X2183600Y796400D01*
X2193300Y788000D01*
X2204500Y785800D01*
X2217400Y790100D01*
X2227100Y800700D01*
X2236700Y819700D01*
G01X2306900Y1766900D02*
Y1639900D01*
X2266700D01*
X2253800Y1646300D01*
X2245800Y1654700D01*
X2242600Y1671700D01*
X2245800Y1688600D01*
X2255400Y1699200D01*
X2266700Y1705500D01*
X2306900D01*
G01X2266700D02*
X2242600Y1766900D01*
G01X2175800Y1661100D02*
X2166200Y1648400D01*
X2154900Y1642000D01*
X2142000Y1639900D01*
X2125900Y1644100D01*
X2114700Y1654700D01*
X2111500Y1667400D01*
X2113100Y1680100D01*
X2119500Y1690700D01*
X2151700Y1711900D01*
X2166200Y1726700D01*
X2175800Y1747900D01*
X2179000Y1766900D01*
X2111500D01*
G01X2306900Y2211400D02*
Y2084400D01*
X2266700D01*
X2253800Y2090800D01*
X2245800Y2099200D01*
X2242600Y2116200D01*
X2245800Y2133100D01*
X2255400Y2143700D01*
X2266700Y2150000D01*
X2306900D01*
G01X2266700D02*
X2242600Y2211400D01*
G01X2180600Y2186000D02*
X2171000Y2200800D01*
X2158100Y2209300D01*
X2143600Y2211400D01*
X2130800Y2209300D01*
X2117900Y2198700D01*
X2109900Y2186000D01*
X2108300Y2173300D01*
X2111500Y2158500D01*
X2122700Y2147900D01*
X2134000Y2143700D01*
X2148500D01*
G01X2134000D02*
X2124300Y2137300D01*
X2116300Y2126700D01*
X2113100Y2114000D01*
X2116300Y2101300D01*
X2124300Y2090800D01*
X2138800Y2084400D01*
X2153300Y2086500D01*
X2167800Y2095000D01*
G01X2306900Y2655900D02*
Y2528900D01*
X2266700D01*
X2253800Y2535300D01*
X2245800Y2543700D01*
X2242600Y2560700D01*
X2245800Y2577600D01*
X2255400Y2588200D01*
X2266700Y2594500D01*
X2306900D01*
G01X2266700D02*
X2242600Y2655900D01*
G01X2125900D02*
Y2528900D01*
X2185500Y2619900D01*
X2105000D01*
G01X2306900Y3100400D02*
Y2973400D01*
X2266700D01*
X2253800Y2979800D01*
X2245800Y2988200D01*
X2242600Y3005200D01*
X2245800Y3022100D01*
X2255400Y3032700D01*
X2266700Y3039000D01*
X2306900D01*
G01X2266700D02*
X2242600Y3100400D01*
G01X2145300D02*
Y2973400D01*
X2164600Y2998800D01*
G01Y3100400D02*
X2126000D01*
G01X1996400D02*
Y2973400D01*
X2056000Y3064400D01*
X1975500D01*
G01X3761400Y921300D02*
X3751800Y927700D01*
X3740500Y931900D01*
X3727700D01*
X3713200Y925500D01*
X3701900Y915000D01*
X3693900Y902300D01*
X3687400Y881100D01*
X3685800Y862000D01*
X3689100Y843000D01*
X3693900Y830300D01*
X3703500Y817600D01*
X3714800Y809100D01*
X3726000Y804900D01*
X3737300D01*
X3748600Y809100D01*
X3758200Y815500D01*
X3766300Y823900D01*
G01X3820200Y830300D02*
X3829800Y815500D01*
X3842700Y807000D01*
X3857200Y804900D01*
X3870000Y807000D01*
X3882900Y817600D01*
X3890900Y830300D01*
X3892500Y843000D01*
X3889300Y857800D01*
X3878100Y868400D01*
X3866800Y872600D01*
X3852300D01*
G01X3866800D02*
X3876500Y879000D01*
X3884500Y889600D01*
X3887700Y902300D01*
X3884500Y915000D01*
X3876500Y925500D01*
X3862000Y931900D01*
X3847500Y929800D01*
X3833000Y921300D01*
G01X3916100Y4011600D02*
Y4138600D01*
X3956300D01*
X3969200Y4132200D01*
X3977200Y4123800D01*
X3980400Y4106800D01*
X3977200Y4089900D01*
X3967600Y4079300D01*
X3956300Y4073000D01*
X3916100D01*
G01X3956300D02*
X3980400Y4011600D01*
G01X4074500D02*
X4077700Y4039100D01*
X4082600Y4062400D01*
X4089000Y4083600D01*
X4097100Y4106800D01*
X4109900Y4138600D01*
X4045600D01*
G01X4656000Y1131900D02*
Y1074800D01*
X4688100Y1004900D01*
G01X4623800D02*
X4656000Y1074800D01*
G01X4557000Y1026100D02*
X4547400Y1013400D01*
X4536100Y1007000D01*
X4523200Y1004900D01*
X4507100Y1009100D01*
X4495900Y1019700D01*
X4492700Y1032400D01*
X4494300Y1045100D01*
X4500700Y1055700D01*
X4532900Y1076900D01*
X4547400Y1091700D01*
X4557000Y1112900D01*
X4560200Y1131900D01*
X4492700D01*
G01X4476200Y2935900D02*
X4469800Y2926300D01*
X4465600Y2915000D01*
Y2902200D01*
X4472000Y2887700D01*
X4482500Y2876400D01*
X4495200Y2868400D01*
X4516400Y2861900D01*
X4535500Y2860300D01*
X4554500Y2863600D01*
X4567200Y2868400D01*
X4579900Y2878000D01*
X4588400Y2889300D01*
X4592600Y2900500D01*
Y2911800D01*
X4588400Y2923100D01*
X4582000Y2932700D01*
X4573600Y2940800D01*
G01X4592600Y3049400D02*
X4465600D01*
X4556600Y2989800D01*
Y3070300D01*
G01X5128600Y94700D02*
X5138200Y88300D01*
X5149500Y84100D01*
X5162300D01*
X5176800Y90500D01*
X5188100Y101000D01*
X5196100Y113700D01*
X5202600Y134900D01*
X5204200Y154000D01*
X5200900Y173000D01*
X5196100Y185700D01*
X5186500Y198400D01*
X5175200Y206900D01*
X5164000Y211100D01*
X5152700D01*
X5141400Y206900D01*
X5131800Y200500D01*
X5123700Y192100D01*
G01X5065000Y105300D02*
X5055400Y92600D01*
X5044100Y86200D01*
X5031200Y84100D01*
X5015100Y88300D01*
X5003900Y98900D01*
X5000700Y111600D01*
X5002300Y124300D01*
X5008700Y134900D01*
X5040900Y156100D01*
X5055400Y170900D01*
X5065000Y192100D01*
X5068200Y211100D01*
X5000700D01*
G01X5302800Y2398100D02*
X5309200Y2407700D01*
X5313400Y2419000D01*
Y2431800D01*
X5307000Y2446300D01*
X5296500Y2457600D01*
X5283800Y2465600D01*
X5262600Y2472100D01*
X5243500Y2473700D01*
X5224500Y2470400D01*
X5211800Y2465600D01*
X5199100Y2456000D01*
X5190600Y2444700D01*
X5186400Y2433500D01*
Y2422200D01*
X5190600Y2410900D01*
X5197000Y2401300D01*
X5205400Y2393200D01*
G01X5186400Y2304000D02*
X5313400D01*
X5288000Y2323300D01*
G01X5186400D02*
Y2284700D01*
G01X6561400Y750900D02*
Y623900D01*
X6521200D01*
X6508300Y630300D01*
X6500300Y638700D01*
X6497100Y655700D01*
X6500300Y672600D01*
X6509900Y683200D01*
X6521200Y689500D01*
X6561400D01*
G01X6521200D02*
X6497100Y750900D01*
G01X6430300Y698000D02*
X6419100Y683200D01*
X6409400Y674700D01*
X6396500Y670500D01*
X6385300Y674700D01*
X6377200Y683200D01*
X6370800Y695900D01*
X6369200Y710700D01*
X6370800Y723400D01*
X6377200Y736100D01*
X6386900Y746700D01*
X6398100Y750900D01*
X6411000Y746700D01*
X6422300Y734000D01*
X6428700Y714900D01*
X6430300Y693800D01*
X6427100Y666200D01*
X6422300Y651400D01*
X6414200Y636600D01*
X6403000Y626000D01*
X6391700Y623900D01*
X6380400Y628100D01*
X6372400Y638700D01*
G01X6561400Y1258900D02*
Y1131900D01*
X6521200D01*
X6508300Y1138300D01*
X6500300Y1146700D01*
X6497100Y1163700D01*
X6500300Y1180600D01*
X6509900Y1191200D01*
X6521200Y1197500D01*
X6561400D01*
G01X6521200D02*
X6497100Y1258900D01*
G01X6435100Y1239900D02*
X6425500Y1250400D01*
X6414200Y1256800D01*
X6399800Y1258900D01*
X6385300Y1254700D01*
X6374000Y1246200D01*
X6366000Y1231400D01*
X6364400Y1214500D01*
X6367600Y1197500D01*
X6375600Y1186900D01*
X6386900Y1178500D01*
X6398100Y1176400D01*
X6409400Y1178500D01*
X6423900Y1186900D01*
X6419100Y1131900D01*
X6375600D01*
G01X6138600Y2043100D02*
Y2170100D01*
X6178800D01*
X6191700Y2163700D01*
X6199700Y2155300D01*
X6202900Y2138300D01*
X6199700Y2121400D01*
X6190100Y2110800D01*
X6178800Y2104500D01*
X6138600D01*
G01X6178800D02*
X6202900Y2043100D01*
G01X6300200D02*
Y2170100D01*
X6280900Y2144700D01*
G01Y2043100D02*
X6319500D01*
G01X6138600Y2551100D02*
Y2678100D01*
X6178800D01*
X6191700Y2671700D01*
X6199700Y2663300D01*
X6202900Y2646300D01*
X6199700Y2629400D01*
X6190100Y2618800D01*
X6178800Y2612500D01*
X6138600D01*
G01X6178800D02*
X6202900Y2551100D01*
G01X6300200D02*
Y2678100D01*
X6280900Y2652700D01*
G01Y2551100D02*
X6319500D01*
G01X6429700D02*
Y2678100D01*
X6410400Y2652700D01*
G01Y2551100D02*
X6449000D01*
G01X6138600Y3059100D02*
Y3186100D01*
X6178800D01*
X6191700Y3179700D01*
X6199700Y3171300D01*
X6202900Y3154300D01*
X6199700Y3137400D01*
X6190100Y3126800D01*
X6178800Y3120500D01*
X6138600D01*
G01X6178800D02*
X6202900Y3059100D01*
G01X6300200D02*
Y3186100D01*
X6280900Y3160700D01*
G01Y3059100D02*
X6319500D01*
G01X6399200Y3164900D02*
X6408800Y3177600D01*
X6420100Y3184000D01*
X6433000Y3186100D01*
X6449100Y3181900D01*
X6460300Y3171300D01*
X6463500Y3158600D01*
X6461900Y3145900D01*
X6455500Y3135300D01*
X6423300Y3114100D01*
X6408800Y3099300D01*
X6399200Y3078100D01*
X6396000Y3059100D01*
X6463500D01*
G01X6138600Y3630600D02*
Y3757600D01*
X6178800D01*
X6191700Y3751200D01*
X6199700Y3742800D01*
X6202900Y3725800D01*
X6199700Y3708900D01*
X6190100Y3698300D01*
X6178800Y3692000D01*
X6138600D01*
G01X6178800D02*
X6202900Y3630600D01*
G01X6300200D02*
Y3757600D01*
X6280900Y3732200D01*
G01Y3630600D02*
X6319500D01*
G01X6394400Y3656000D02*
X6404000Y3641200D01*
X6416900Y3632700D01*
X6431400Y3630600D01*
X6444200Y3632700D01*
X6457100Y3643300D01*
X6465100Y3656000D01*
X6466700Y3668700D01*
X6463500Y3683500D01*
X6452300Y3694100D01*
X6441000Y3698300D01*
X6426500D01*
G01X6441000D02*
X6450700Y3704700D01*
X6458700Y3715300D01*
X6461900Y3728000D01*
X6458700Y3740700D01*
X6450700Y3751200D01*
X6436200Y3757600D01*
X6421700Y3755500D01*
X6407200Y3747000D01*
G01X6561400Y3925900D02*
Y3798900D01*
X6521200D01*
X6508300Y3805300D01*
X6500300Y3813700D01*
X6497100Y3830700D01*
X6500300Y3847600D01*
X6509900Y3858200D01*
X6521200Y3864500D01*
X6561400D01*
G01X6521200D02*
X6497100Y3925900D01*
G01X6399800D02*
Y3798900D01*
X6419100Y3824300D01*
G01Y3925900D02*
X6380500D01*
G01X6305600Y3906900D02*
X6296000Y3917400D01*
X6284700Y3923800D01*
X6270300Y3925900D01*
X6255800Y3921700D01*
X6244500Y3913200D01*
X6236500Y3898400D01*
X6234900Y3881500D01*
X6238100Y3864500D01*
X6246100Y3853900D01*
X6257400Y3845500D01*
X6268600Y3843400D01*
X6279900Y3845500D01*
X6294400Y3853900D01*
X6289600Y3798900D01*
X6246100D01*
G01X7764900Y1991600D02*
X7803500D01*
G01X7784200D02*
Y1864600D01*
G01X7764900D02*
X7803500D01*
G01X7949100Y1981000D02*
X7939500Y1987400D01*
X7928200Y1991600D01*
X7915400D01*
X7900900Y1985200D01*
X7889600Y1974700D01*
X7881600Y1962000D01*
X7875100Y1940800D01*
X7873500Y1921700D01*
X7876800Y1902700D01*
X7881600Y1890000D01*
X7891200Y1877300D01*
X7902500Y1868800D01*
X7913700Y1864600D01*
X7925000D01*
X7936300Y1868800D01*
X7945900Y1875200D01*
X7954000Y1883600D01*
G01X8043200Y1864600D02*
Y1991600D01*
X8023900Y1966200D01*
G01Y1864600D02*
X8062500D01*
G01X7469400Y2983100D02*
X7477400Y2970400D01*
X7487100Y2961900D01*
X7498300Y2957700D01*
X7511200Y2961900D01*
X7520900Y2970400D01*
X7530500Y2983100D01*
X7533700Y3000000D01*
Y3084700D01*
G01X7595700Y2983100D02*
X7605300Y2968300D01*
X7618200Y2959800D01*
X7632700Y2957700D01*
X7645500Y2959800D01*
X7658400Y2970400D01*
X7666400Y2983100D01*
X7668000Y2995800D01*
X7664800Y3010600D01*
X7653600Y3021200D01*
X7642300Y3025400D01*
X7627800D01*
G01X7642300D02*
X7652000Y3031800D01*
X7660000Y3042400D01*
X7663200Y3055100D01*
X7660000Y3067800D01*
X7652000Y3078300D01*
X7637500Y3084700D01*
X7623000Y3082600D01*
X7608500Y3074100D01*
G01X8596600Y3640100D02*
Y3513100D01*
X8564500D01*
X8551600Y3519500D01*
X8541900Y3527900D01*
X8533900Y3540600D01*
X8527500Y3555400D01*
X8525900Y3576600D01*
X8527500Y3597800D01*
X8533900Y3612600D01*
X8541900Y3625300D01*
X8551600Y3633800D01*
X8564500Y3640100D01*
X8596600D01*
G01X8431800D02*
Y3513100D01*
X8451100Y3538500D01*
G01Y3640100D02*
X8412500D01*
G01X8996100Y392100D02*
Y519100D01*
X9036300D01*
X9049200Y512700D01*
X9057200Y504300D01*
X9060400Y487300D01*
X9057200Y470400D01*
X9047600Y459800D01*
X9036300Y453500D01*
X8996100D01*
G01X9036300D02*
X9060400Y392100D01*
G01X9157700D02*
X9169000Y394200D01*
X9181900Y400600D01*
X9189900Y411100D01*
X9193100Y426000D01*
X9189900Y440800D01*
X9180300Y453500D01*
X9165800Y459800D01*
X9149700D01*
X9140100Y464100D01*
X9132000Y474600D01*
X9128800Y489500D01*
X9133600Y504300D01*
X9144900Y514900D01*
X9157700Y519100D01*
X9170600Y514900D01*
X9181900Y504300D01*
X9186700Y489500D01*
X9183500Y474600D01*
X9175400Y464100D01*
X9165800Y459800D01*
X9149700D01*
X9135200Y453500D01*
X9125600Y440800D01*
X9122400Y426000D01*
X9125600Y411100D01*
X9133600Y400600D01*
X9146500Y394200D01*
X9157700Y392100D01*
G01X9418900Y814400D02*
Y687400D01*
X9378700D01*
X9365800Y693800D01*
X9357800Y702200D01*
X9354600Y719200D01*
X9357800Y736100D01*
X9367400Y746700D01*
X9378700Y753000D01*
X9418900D01*
G01X9378700D02*
X9354600Y814400D01*
G01X9284600Y799600D02*
X9273300Y810200D01*
X9260500Y814400D01*
X9247600Y810200D01*
X9236300Y797500D01*
X9228300Y778400D01*
X9225100Y759400D01*
Y736100D01*
X9228300Y717000D01*
X9236300Y700100D01*
X9246000Y691600D01*
X9257300Y687400D01*
X9270100Y691600D01*
X9279800Y700100D01*
X9286200Y712800D01*
X9289400Y729700D01*
X9286200Y744500D01*
X9278200Y759400D01*
X9268500Y767800D01*
X9257300Y770000D01*
X9244400Y765700D01*
X9234700Y755100D01*
X9225100Y736100D01*
G01X10044100Y2497000D02*
X10101200D01*
X10171100Y2529100D01*
G01Y2464800D02*
X10101200Y2497000D01*
G01X10044100Y2367500D02*
X10171100D01*
X10145700Y2386800D01*
G01X10044100D02*
Y2348200D01*
G01X9567600Y4138600D02*
Y4265600D01*
X9607800D01*
X9620700Y4259200D01*
X9628700Y4250800D01*
X9631900Y4233800D01*
X9628700Y4216900D01*
X9619100Y4206300D01*
X9607800Y4200000D01*
X9567600D01*
G01X9607800D02*
X9631900Y4138600D01*
G01X9729200D02*
Y4265600D01*
X9709900Y4240200D01*
G01Y4138600D02*
X9748500D01*
G01X9858700Y4265600D02*
X9845900Y4261400D01*
X9836200Y4250800D01*
X9829800Y4238100D01*
X9825000Y4221100D01*
X9823400Y4202100D01*
X9825000Y4183000D01*
X9829800Y4166100D01*
X9836200Y4153400D01*
X9845900Y4142800D01*
X9858700Y4138600D01*
X9871600Y4142800D01*
X9881300Y4153400D01*
X9887700Y4166100D01*
X9892500Y4183000D01*
X9894100Y4202100D01*
X9892500Y4221100D01*
X9887700Y4238100D01*
X9881300Y4250800D01*
X9871600Y4261400D01*
X9858700Y4265600D01*
G01X10325800Y325300D02*
X10332200Y328700D01*
X10336400Y332700D01*
X10338500Y337400D01*
X10336400Y342900D01*
X10332200Y346900D01*
X10325800Y351000D01*
X10317300Y352300D01*
X10275000D01*
G01X10285600Y381700D02*
X10279200Y385800D01*
X10276100Y390500D01*
X10275000Y396000D01*
X10277100Y402700D01*
X10282400Y407500D01*
X10288800Y408800D01*
X10295100Y408100D01*
X10300400Y405400D01*
X10311000Y391900D01*
X10318400Y385800D01*
X10329000Y381700D01*
X10338500Y380400D01*
Y408800D01*
G01X10858500Y378500D02*
Y1068500D01*
G01X11017800Y2080600D02*
X11024200Y2090200D01*
X11028400Y2101500D01*
Y2114300D01*
X11022000Y2128800D01*
X11011500Y2140100D01*
X10998800Y2148100D01*
X10977600Y2154600D01*
X10958500Y2156200D01*
X10939500Y2152900D01*
X10926800Y2148100D01*
X10914100Y2138500D01*
X10905600Y2127200D01*
X10901400Y2116000D01*
Y2104700D01*
X10905600Y2093400D01*
X10912000Y2083800D01*
X10920400Y2075700D01*
G01X10901400Y1989700D02*
X10928900Y1986500D01*
X10952200Y1981600D01*
X10973400Y1975200D01*
X10996600Y1967100D01*
X11028400Y1954300D01*
Y2018600D01*
G01X11017800Y3160100D02*
X11024200Y3169700D01*
X11028400Y3181000D01*
Y3193800D01*
X11022000Y3208300D01*
X11011500Y3219600D01*
X10998800Y3227600D01*
X10977600Y3234100D01*
X10958500Y3235700D01*
X10939500Y3232400D01*
X10926800Y3227600D01*
X10914100Y3218000D01*
X10905600Y3206700D01*
X10901400Y3195500D01*
Y3184200D01*
X10905600Y3172900D01*
X10912000Y3163300D01*
X10920400Y3155200D01*
G01X10901400Y3066000D02*
X10903500Y3054700D01*
X10909900Y3041800D01*
X10920400Y3033800D01*
X10935300Y3030600D01*
X10950100Y3033800D01*
X10962800Y3043400D01*
X10969100Y3057900D01*
Y3074000D01*
X10973400Y3083600D01*
X10983900Y3091700D01*
X10998800Y3094900D01*
X11013600Y3090100D01*
X11024200Y3078800D01*
X11028400Y3066000D01*
X11024200Y3053100D01*
X11013600Y3041800D01*
X10998800Y3037000D01*
X10983900Y3040200D01*
X10973400Y3048300D01*
X10969100Y3057900D01*
Y3074000D01*
X10962800Y3088500D01*
X10950100Y3098100D01*
X10935300Y3101300D01*
X10920400Y3098100D01*
X10909900Y3090100D01*
X10903500Y3077200D01*
X10901400Y3066000D01*
M02*
