G04 ================== begin FILE IDENTIFICATION RECORD ==================*
G04 Layout Name:  avrusb500.brd*
G04 Film Name:    SolderB*
G04 File Format:  Gerber RS274X*
G04 File Origin:  Cadence Allegro 17.2-P019*
G04 Origin Date:  Mon Jul 29 16:04:59 2019*
G04 *
G04 Layer:  VIA CLASS/SOLDERMASK_BOTTOM*
G04 Layer:  PIN/SOLDERMASK_BOTTOM*
G04 Layer:  PACKAGE GEOMETRY/SOLDERMASK_BOTTOM*
G04 Layer:  BOARD GEOMETRY/SOLDERMASK_BOTTOM*
G04 *
G04 Offset:    (0.000 0.000)*
G04 Mirror:    No*
G04 Mode:      Positive*
G04 Rotation:  0*
G04 FullContactRelief:  No*
G04 UndefLineWidth:     0.000*
G04 ================== end FILE IDENTIFICATION RECORD ====================*
%FSLAX55Y55*MOMM*%
%IR0*IPPOS*OFA0.00000B0.00000*MIA0B0*SFA1.00000B1.00000*%
%ADD11C,1.321*%
%ADD12C,1.118*%
%ADD10R,1.321X1.321*%
%ADD13C,1.575*%
%ADD14R,1.575X1.575*%
%LPD*%
G75*
G54D10*
X762000Y508000D03*
X1270000D03*
X2286000D03*
X8636000Y3810000D03*
G54D11*
X508000Y508000D03*
X1524000D03*
X2540000D03*
X4064000Y1397000D03*
X4826000D03*
X8318500Y3810000D03*
X9652000Y2222500D03*
Y2984500D03*
G54D12*
X762000Y508000D03*
X508000Y1526500D03*
X762000Y4064000D03*
X2095500Y1270000D03*
X3302000Y1905000D03*
X3150900Y1992600D03*
X3429000Y2794000D03*
X3535700Y1544300D03*
X3492500Y1397000D03*
X4191000Y2349500D03*
X3810000Y2413000D03*
X4191000Y2540000D03*
X3746500Y2794000D03*
X4191000Y3429000D03*
X4000500Y2921000D03*
X4127500Y3683000D03*
X4572000Y2032000D03*
X4254500Y2667000D03*
X4635500Y2857500D03*
X4554200Y3700800D03*
X5207000Y1778000D03*
X5080000Y2032000D03*
Y2857500D03*
X5937200Y1428800D03*
X6162400Y3305000D03*
X5842000Y2984500D03*
X7048500Y1460500D03*
X6794500Y1714500D03*
X6836400Y2752100D03*
X7620000Y2032000D03*
X8001000Y2159000D03*
X7556500Y2794000D03*
X7683500D03*
X7810500D03*
X8191500Y381000D03*
X8618200Y1460500D03*
X8128000Y2095500D03*
X8448000Y2542500D03*
X8699500Y3429000D03*
X8572500Y3365500D03*
X8509000Y3302000D03*
X8448000Y2984500D03*
X8318500Y2794000D03*
X9109800D03*
G54D13*
X508000Y2286000D03*
Y2540000D03*
Y2794000D03*
Y3048000D03*
X762000Y4064000D03*
X1016000D03*
X1270000D03*
X1524000D03*
X7366000Y2032000D03*
Y2286000D03*
Y2540000D03*
Y2794000D03*
G54D14*
X508000Y3302000D03*
X1778000Y4064000D03*
X7366000Y3048000D03*
M02*
