G04 ================== begin FILE IDENTIFICATION RECORD ==================*
G04 Layout Name:  AVRUSB500_new.brd*
G04 Film Name:    SolderT*
G04 File Format:  Gerber RS274X*
G04 File Origin:  Cadence Allegro 16.6-S034*
G04 Origin Date:  Fri Jul 19 12:25:43 2019*
G04 *
G04 Layer:  VIA CLASS/SOLDERMASK_TOP*
G04 Layer:  PIN/SOLDERMASK_TOP*
G04 Layer:  PACKAGE GEOMETRY/SOLDERMASK_TOP*
G04 Layer:  BOARD GEOMETRY/SOLDERMASK_TOP*
G04 *
G04 Offset:    (0.000 0.000)*
G04 Mirror:    No*
G04 Mode:      Positive*
G04 Rotation:  0*
G04 FullContactRelief:  No*
G04 UndefLineWidth:     0.000*
G04 ================== end FILE IDENTIFICATION RECORD ====================*
%FSLAX25Y25*MOMM*%
%IR0*IPPOS*OFA0.00000B0.00000*MIA0B0*SFA1.00000B1.00000*%
%ADD20R,1.72X.4*%
%ADD10C,1.321*%
%ADD12C,1.118*%
%ADD11R,1.321X1.321*%
%ADD13C,1.575*%
%ADD14R,1.575X1.575*%
%ADD16O,.457X1.778*%
%ADD15O,1.778X.457*%
%ADD18R,.457X1.778*%
%ADD17R,1.778X.457*%
%ADD19O,1.9X1.2*%
%ADD21R,1.72X1.1*%
%LPD*%
G75*
G54D10*
X381000Y444500D03*
X508000Y1460500D03*
X1524000Y444500D03*
X1587500Y1905000D03*
Y2349500D03*
Y3238500D03*
Y2794000D03*
X2413000Y444500D03*
X2603500Y1905000D03*
Y2349500D03*
Y3238500D03*
Y2794000D03*
X4064000Y508000D03*
Y1397000D03*
X3619500Y3873500D03*
X4826000Y508000D03*
Y1397000D03*
X4889500Y2095500D03*
Y3238500D03*
X4635500Y3873500D03*
X5842000Y889000D03*
Y1905000D03*
Y1397000D03*
Y2413000D03*
Y2921000D03*
Y3492500D03*
Y4064000D03*
X6858000Y889000D03*
Y1905000D03*
Y1397000D03*
Y2413000D03*
Y2921000D03*
Y3492500D03*
Y4064000D03*
X8699500Y254000D03*
Y952500D03*
X8255000Y3937000D03*
X9271000Y4000500D03*
X9715500Y254000D03*
Y952500D03*
X9779000Y1905000D03*
Y2667000D03*
X10287000Y4000500D03*
X10604500Y1778000D03*
Y2857500D03*
G54D11*
X635000Y444500D03*
X508000Y1206500D03*
X1270000Y444500D03*
X2159000D03*
X3810000Y508000D03*
X4889500Y2349500D03*
Y2984500D03*
X5080000Y508000D03*
X8572500Y3937000D03*
X10604500Y2032000D03*
Y3111500D03*
G54D20*
X10488500Y828500D03*
Y763500D03*
Y698500D03*
Y633500D03*
Y568500D03*
G54D21*
Y918500D03*
Y478500D03*
G54D12*
X635000Y444500D03*
X2159000D03*
X3375700Y1915200D03*
X3150900Y2909600D03*
X3775700Y2204700D03*
X4000500Y3047900D03*
Y3048000D03*
Y2829600D03*
Y2921000D03*
X3492500Y3683000D03*
X5842000Y889000D03*
X7556500Y1778000D03*
X8699500Y254000D03*
X8382000Y190500D03*
X8509000Y508000D03*
X8572500Y1270000D03*
X8445500Y1714500D03*
X8572500Y2286000D03*
X8763000Y3175000D03*
X8542000Y2754600D03*
X8890000Y1651000D03*
X8953500Y1905000D03*
X8826500Y3365500D03*
X9080500Y3175000D03*
X8942100Y3481100D03*
X9080500Y4318000D03*
X9715500Y254000D03*
X10477500Y762000D03*
G54D13*
X444500Y2095500D03*
Y2349500D03*
Y2603500D03*
Y2857500D03*
Y4000500D03*
X698500D03*
X952500D03*
X1206500D03*
X7556500Y1778000D03*
Y2032000D03*
Y2286000D03*
Y2540000D03*
G54D14*
X444500Y3111500D03*
X1460500Y4000500D03*
X7556500Y2794000D03*
G54D15*
X3150900Y2589500D03*
Y2509500D03*
Y2429500D03*
Y2349500D03*
Y2909600D03*
Y2829600D03*
Y2749500D03*
X4000500Y2429500D03*
Y2509500D03*
Y2589500D03*
Y2669500D03*
Y2749500D03*
Y2829600D03*
Y2909600D03*
X8237200Y2609800D03*
Y2529800D03*
Y2449800D03*
Y2369800D03*
Y2289800D03*
Y2129800D03*
Y2049800D03*
X9086800D03*
Y2209800D03*
Y2289800D03*
Y2369800D03*
Y2449800D03*
Y2529800D03*
Y2609800D03*
G54D16*
X3295700Y2204700D03*
X3375700D03*
Y3054300D03*
X3295700D03*
X3455700Y2204700D03*
X3535700D03*
X3615700D03*
X3775700D03*
X3855700D03*
Y3054300D03*
X3695700D03*
X3615700D03*
X3535700D03*
X3455700D03*
X8462000Y1905000D03*
X8542000D03*
X8622000D03*
X8702000D03*
X8622000Y2754600D03*
X8542000D03*
X8462000D03*
X8382000D03*
X8782000Y1905000D03*
X8862100D03*
X8942100D03*
Y2754600D03*
X8862100D03*
X8782000D03*
G54D17*
X3150900Y2669500D03*
X4000500Y2349500D03*
X8237200Y2209800D03*
X9086800Y2129800D03*
G54D18*
X3695700Y2204700D03*
X3775700Y3054300D03*
X8382000Y1905000D03*
X8702000Y2754600D03*
G54D19*
X10858500Y188500D03*
X10488500D03*
X10858500Y1208500D03*
X10488500D03*
M02*
