G04 ================== begin FILE IDENTIFICATION RECORD ==================*
G04 Layout Name:  avrusb500.brd*
G04 Film Name:    TOP*
G04 File Format:  Gerber RS274X*
G04 File Origin:  Cadence Allegro 17.2-P019*
G04 Origin Date:  Mon Jul 29 16:04:59 2019*
G04 *
G04 Layer:  BOARD GEOMETRY/DESIGN_OUTLINE*
G04 Layer:  PIN/TOP*
G04 Layer:  VIA CLASS/TOP*
G04 *
G04 Offset:    (0.000 0.000)*
G04 Mirror:    No*
G04 Mode:      Positive*
G04 Rotation:  0*
G04 FullContactRelief:  No*
G04 UndefLineWidth:     0.000*
G04 ================== end FILE IDENTIFICATION RECORD ====================*
%FSLAX55Y55*MOMM*%
%IR0*IPPOS*OFA0.00000B0.00000*MIA0B0*SFA1.00000B1.00000*%
%ADD23R,2.25X.5*%
%ADD11C,1.321*%
%ADD10R,1.321X1.321*%
%ADD14C,1.575*%
%ADD15R,1.575X1.575*%
%ADD18O,.457X1.778*%
%ADD17O,1.778X.457*%
%ADD21R,.457X1.778*%
%ADD19R,1.778X.457*%
%ADD24R,2.X2.*%
%ADD22R,1.5X2.*%
%ADD13C,.61*%
%ADD20R,1.829X2.591*%
%ADD12R,2.591X1.829*%
%ADD16R,1.499X2.845*%
%LPD*%
G75*
G54D10*
X762000Y508000D03*
X1270000D03*
X2286000D03*
X8636000Y3810000D03*
G54D20*
X3556000Y508000D03*
X4066500D03*
X4823500D03*
X5334000D03*
G54D11*
X508000D03*
X1524000D03*
X2540000D03*
X4064000Y1397000D03*
X4826000D03*
X8318500Y3810000D03*
X9652000Y2222500D03*
Y2984500D03*
G54D12*
X508000Y1016000D03*
Y1526500D03*
X5080000Y2540000D03*
Y2029500D03*
Y3048000D03*
Y3558500D03*
X10414000Y2540000D03*
Y2029500D03*
Y3045500D03*
Y3556000D03*
G54D21*
X3695700Y2204700D03*
X3775700Y3054300D03*
X8128000Y2286000D03*
X8448000Y3135600D03*
G54D13*
X762000Y508000D03*
X508000Y1526500D03*
X762000Y4064000D03*
X2095500Y1270000D03*
X3302000Y1905000D03*
X3150900Y1992600D03*
X3429000Y2794000D03*
X3535700Y1544300D03*
X3492500Y1397000D03*
X4191000Y2349500D03*
X3810000Y2413000D03*
X4191000Y2540000D03*
X3746500Y2794000D03*
X4191000Y3429000D03*
X4000500Y2921000D03*
X4127500Y3683000D03*
X4572000Y2032000D03*
X4254500Y2667000D03*
X4635500Y2857500D03*
X4554200Y3700800D03*
X5207000Y1778000D03*
X5080000Y2032000D03*
Y2857500D03*
X5937200Y1428800D03*
X6162400Y3305000D03*
X5842000Y2984500D03*
X7048500Y1460500D03*
X6794500Y1714500D03*
X6836400Y2752100D03*
X7620000Y2032000D03*
X8001000Y2159000D03*
X7556500Y2794000D03*
X7683500D03*
X7810500D03*
X8191500Y381000D03*
X8618200Y1460500D03*
X8128000Y2095500D03*
X8448000Y2542500D03*
X8699500Y3429000D03*
X8572500Y3365500D03*
X8509000Y3302000D03*
X8448000Y2984500D03*
X8318500Y2794000D03*
X9109800D03*
G54D22*
X10160000Y207000D03*
Y1506000D03*
G54D14*
X508000Y2286000D03*
Y2540000D03*
Y2794000D03*
Y3048000D03*
X762000Y4064000D03*
X1016000D03*
X1270000D03*
X1524000D03*
X7366000Y2032000D03*
Y2286000D03*
Y2540000D03*
Y2794000D03*
G54D23*
X10160000Y1016000D03*
Y936200D03*
Y856500D03*
Y776700D03*
Y697000D03*
G54D24*
X10585000Y207000D03*
Y1506000D03*
G54D15*
X508000Y3302000D03*
X1778000Y4064000D03*
X7366000Y3048000D03*
G54D16*
X2540000Y1270000D03*
X2113300D03*
X2540000Y2032000D03*
X2113300D03*
X2540000Y2794000D03*
X2113300D03*
X2540000Y3556000D03*
X2113300D03*
X4127500Y4127500D03*
X4554200D03*
X6177300Y317500D03*
Y825500D03*
Y1397000D03*
Y2667000D03*
Y2032000D03*
X6159500Y3365500D03*
X6177300Y3937000D03*
X6604000Y317500D03*
Y825500D03*
Y1397000D03*
Y2667000D03*
Y2032000D03*
X6586200Y3365500D03*
X6604000Y3937000D03*
X8636000Y381000D03*
X8209300D03*
X8191500Y1460500D03*
X8618200D03*
X9906000Y4191000D03*
X10332700D03*
G54D17*
X3150900Y2589500D03*
Y2509500D03*
Y2429500D03*
Y2349500D03*
Y2909600D03*
Y2829600D03*
Y2749500D03*
X4000500Y2429500D03*
Y2509500D03*
Y2589500D03*
Y2669500D03*
Y2749500D03*
Y2829600D03*
Y2909600D03*
X7983200Y2510800D03*
Y2430800D03*
Y2990800D03*
Y2910800D03*
Y2830800D03*
Y2750800D03*
Y2670800D03*
X8832800Y2430800D03*
Y2590800D03*
Y2670800D03*
Y2750800D03*
Y2830800D03*
Y2910800D03*
Y2990800D03*
G54D18*
X3295700Y2204700D03*
X3375700D03*
Y3054300D03*
X3295700D03*
X3455700Y2204700D03*
X3535700D03*
X3615700D03*
X3775700D03*
X3855700D03*
Y3054300D03*
X3695700D03*
X3615700D03*
X3535700D03*
X3455700D03*
X8208000Y2286000D03*
X8288000D03*
X8368000D03*
X8448000D03*
X8528000D03*
X8608100D03*
X8688100D03*
Y3135600D03*
X8608100D03*
X8528000D03*
X8368000D03*
X8288000D03*
X8208000D03*
X8128000D03*
G54D19*
X3150900Y2669500D03*
X4000500Y2349500D03*
X7983200Y2590800D03*
X8832800Y2510800D03*
M02*
